<svg width="1050px" height="163px" version="1.1" xmlns="http://www.w3.org/2000/svg" xmlns:xlink="http://www.w3.org/1999/xlink" overflow="visible" id="q1mg6c2c">
   <desc>Engraved by Verovio 5.6.0-85e7620</desc>
   <defs>
      <g id="E050-q1mg6c2c">
         <path transform="scale(1,-1)" d="M441 -245c-23 -4 -48 -6 -76 -6c-59 0 -102 7 -130 20c-88 42 -150 93 -187 154c-26 44 -43 103 -48 176c0 6 -1 13 -1 19c0 54 15 111 45 170c29 57 65 106 110 148s96 85 153 127c-3 16 -8 46 -13 92c-4 43 -5 73 -5 89c0 117 16 172 69 257c34 54 64 82 89 82 c21 0 43 -30 69 -92s39 -115 41 -159v-15c0 -109 -21 -162 -67 -241c-13 -20 -63 -90 -98 -118c-13 -9 -25 -19 -37 -29l31 -181c8 1 18 2 28 2c58 0 102 -12 133 -35c59 -43 92 -104 98 -184c1 -7 1 -15 1 -22c0 -123 -87 -209 -181 -248c8 -57 17 -110 25 -162 c5 -31 6 -58 6 -80c0 -30 -5 -53 -14 -70c-35 -64 -88 -99 -158 -103c-5 0 -11 -1 -16 -1c-37 0 -72 10 -108 27c-50 24 -77 59 -80 105v11c0 29 7 55 20 76c18 28 45 42 79 44h6c49 0 93 -42 97 -87v-9c0 -51 -34 -86 -105 -106c17 -24 51 -36 102 -36c62 0 116 43 140 85 c9 16 13 41 13 74c0 20 -1 42 -5 67c-8 53 -18 106 -26 159zM461 939c-95 0 -135 -175 -135 -286c0 -24 2 -48 5 -71c50 39 92 82 127 128c40 53 60 100 60 140v8c-4 53 -22 81 -55 81h-2zM406 119l54 -326c73 25 110 78 110 161c0 7 0 15 -1 23c-7 95 -57 142 -151 142h-12 zM382 117c-72 -2 -128 -47 -128 -120v-7c2 -46 43 -99 75 -115c-3 -2 -7 -5 -10 -10c-70 33 -116 88 -123 172v11c0 68 44 126 88 159c23 17 49 29 78 36l-29 170c-21 -13 -52 -37 -92 -73c-50 -44 -86 -84 -109 -119c-45 -69 -67 -130 -67 -182v-13c5 -68 35 -127 93 -176 s125 -73 203 -73c25 0 50 3 75 9c-19 111 -36 221 -54 331z" />
      </g>
      <g id="E262-q1mg6c2c">
         <path transform="scale(1,-1)" d="M136 186v169h17v-164l44 14v-91l-44 -14v-165l44 12v-91l-44 -13v-155h-17v150l-76 -22v-155h-17v149l-43 -13v90l43 14v167l-43 -14v92l43 13v169h17v-163zM60 73v-167l76 22v168z" />
      </g>
      <g id="E0A3-q1mg6c2c">
         <path transform="scale(1,-1)" d="M278 64c0 22 -17 39 -43 39c-12 0 -26 -3 -41 -10c-85 -43 -165 -94 -165 -156c5 -25 15 -32 49 -32c67 11 200 95 200 159zM0 -36c0 68 73 174 200 174c66 0 114 -39 114 -97c0 -84 -106 -173 -218 -173c-64 0 -96 32 -96 96z" />
      </g>
      <g id="E4E5-q1mg6c2c">
         <path transform="scale(1,-1)" d="M107 292c-13 24 -30 49 -52 71c-1 1 0 2 0 3l-2 2c3 3 4 4 6 4c12 0 26 -7 40 -20s44 -40 89 -81c26 -24 28 -29 46 -47c4 -4 8 -9 10 -14c6 -8 8 -16 8 -27c0 -19 -12 -40 -36 -61c-28 -23 -49 -38 -61 -73c-4 -11 -7 -27 -10 -50c13 -43 34 -83 59 -121 c31 -47 59 -79 101 -129c-8 0 -26 7 -54 20l-62 29l-21 6l-23 1c-25 0 -45 -10 -60 -30l-4 -14l-1 -12c0 -33 20 -56 39 -78c8 -9 17 -18 26 -26c17 -15 27 -24 28 -30l-3 -3c-11 5 -19 10 -25 15c-9 3 -37 21 -45 26c-24 14 -45 32 -63 51c-19 21 -37 44 -37 71 c0 63 27 95 80 95c41 0 86 -18 136 -52c-19 26 -37 48 -55 66c-23 23 -48 44 -73 65c-28 23 -47 40 -58 53s-17 26 -18 39c75 64 113 125 113 183c0 27 -7 48 -18 68z" />
      </g>
   </defs>
   <style type="text/css">#q1mg6c2c g.page-margin {font-family:Times,serif;}#q1mg6c2c g.ending, #q1mg6c2c g.fing, #q1mg6c2c g.reh, #q1mg6c2c g.tempo {font-weight:bold;}#q1mg6c2c g.dir, #q1mg6c2c g.dynam, #q1mg6c2c g.mNum {font-style:italic;}#q1mg6c2c g.label {font-weight:normal;}#q1mg6c2c path {stroke:currentColor}</style>
   <svg class="definition-scale" color="black" viewBox="0 0 21000 3260">
      <g class="page-margin" transform="translate(500, 500)">
         <g id="b1l9f4i5" class="system">
            <g id="measure-0000001960892238" class="measure">
               <g id="gvw6234" class="mNum autogenerated">
                  <text y="766" text-anchor="middle" font-size="0px">
                     <tspan id="ho5ybbh" class="text">
                        <tspan font-size="324px">77</tspan>
                     </tspan>
                  </text>
               </g>
               <g id="staff-0000001141626169" class="staff">
                  <path d="M0 1009 L3529 1009" stroke-width="13" />
                  <path d="M0 1189 L3529 1189" stroke-width="13" />
                  <path d="M0 1369 L3529 1369" stroke-width="13" />
                  <path d="M0 1549 L3529 1549" stroke-width="13" />
                  <path d="M0 1729 L3529 1729" stroke-width="13" />
                  <g id="a1j3psyb" class="clef">
                     <use xlink:href="#E050-q1mg6c2c" transform="translate(90, 1549) scale(0.72, 0.72)" />
                  </g>
                  <g id="bvfaws" class="keySig">
                     <g id="cex9y2v" class="keyAccid">
                        <use xlink:href="#E262-q1mg6c2c" transform="translate(735, 1009) scale(0.72, 0.72)" />
                     </g>
                     <g id="d14aeey0" class="keyAccid">
                        <use xlink:href="#E262-q1mg6c2c" transform="translate(913, 1279) scale(0.72, 0.72)" />
                     </g>
                  </g>
                  <g id="layer-0000000530213778" class="layer">
                     <g id="note-0000000799661901" class="note">
                        <g class="notehead">
                           <use xlink:href="#E0A3-q1mg6c2c" transform="translate(1324, 1189) scale(0.72, 0.72)" />
                        </g>
                        <g id="d18cuijp" class="dots">
                           <ellipse cx="1640" cy="1099" rx="36" ry="36" fill-opacity="1" stroke-opacity="1" />
                        </g>
                        <g id="c1ti11qp" class="stem">
                           <path d="M1333 1214 L1333 1819" stroke-width="18" />
                        </g>
                     </g>
                     <g id="rest-0000000913770494" class="rest">
                        <use xlink:href="#E4E5-q1mg6c2c" transform="translate(2664, 1369) scale(0.72, 0.72)" />
                     </g>
                  </g>
               </g>
               <g id="k1co49w1" class="barLine">
                  <path d="M3354 1009 L3354 1729" stroke-width="27" />
                  <path d="M3484 1009 L3484 1729" stroke-width="90" />
               </g>
            </g>
            <g id="w1yefrb" class="systemMilestoneEnd section-0000000726147665" />
         </g>
         <g id="xjzcfod" class="pageMilestoneEnd score-0000000988520477" />
         <g id="yvzizra" class="pageMilestoneEnd mdiv-0000000463168455" />
         <g id="d1esdbe8" class="pgHead autogenerated">
            <text font-size="0px">
               <tspan id="ewocrbc" class="rend" x="10000" y="219" text-anchor="middle">
                  <tspan id="f1g7zh41" class="text">
                     <tspan font-size="324px">– </tspan>
                  </tspan>
                  <tspan id="gh1s0vd" class="num">
                     <title class="labelAttr">page</title>
                     <tspan id="h1lk1pk3" class="text">
                        <tspan font-size="324px">2</tspan>
                     </tspan>
                  </tspan>
                  <tspan id="jqza5bc" class="text">
                     <tspan font-size="324px"> –</tspan>
                  </tspan>
               </tspan>
            </text>
         </g>
      </g>
   </svg>
</svg>
