<svg width="1050px" height="168px" version="1.1" xmlns="http://www.w3.org/2000/svg" xmlns:xlink="http://www.w3.org/1999/xlink" overflow="visible" id="ns6hcod">
   <desc>Engraved by Verovio 5.6.0-85e7620</desc>
   <defs>
      <g id="E050-ns6hcod">
         <path transform="scale(1,-1)" d="M441 -245c-23 -4 -48 -6 -76 -6c-59 0 -102 7 -130 20c-88 42 -150 93 -187 154c-26 44 -43 103 -48 176c0 6 -1 13 -1 19c0 54 15 111 45 170c29 57 65 106 110 148s96 85 153 127c-3 16 -8 46 -13 92c-4 43 -5 73 -5 89c0 117 16 172 69 257c34 54 64 82 89 82 c21 0 43 -30 69 -92s39 -115 41 -159v-15c0 -109 -21 -162 -67 -241c-13 -20 -63 -90 -98 -118c-13 -9 -25 -19 -37 -29l31 -181c8 1 18 2 28 2c58 0 102 -12 133 -35c59 -43 92 -104 98 -184c1 -7 1 -15 1 -22c0 -123 -87 -209 -181 -248c8 -57 17 -110 25 -162 c5 -31 6 -58 6 -80c0 -30 -5 -53 -14 -70c-35 -64 -88 -99 -158 -103c-5 0 -11 -1 -16 -1c-37 0 -72 10 -108 27c-50 24 -77 59 -80 105v11c0 29 7 55 20 76c18 28 45 42 79 44h6c49 0 93 -42 97 -87v-9c0 -51 -34 -86 -105 -106c17 -24 51 -36 102 -36c62 0 116 43 140 85 c9 16 13 41 13 74c0 20 -1 42 -5 67c-8 53 -18 106 -26 159zM461 939c-95 0 -135 -175 -135 -286c0 -24 2 -48 5 -71c50 39 92 82 127 128c40 53 60 100 60 140v8c-4 53 -22 81 -55 81h-2zM406 119l54 -326c73 25 110 78 110 161c0 7 0 15 -1 23c-7 95 -57 142 -151 142h-12 zM382 117c-72 -2 -128 -47 -128 -120v-7c2 -46 43 -99 75 -115c-3 -2 -7 -5 -10 -10c-70 33 -116 88 -123 172v11c0 68 44 126 88 159c23 17 49 29 78 36l-29 170c-21 -13 -52 -37 -92 -73c-50 -44 -86 -84 -109 -119c-45 -69 -67 -130 -67 -182v-13c5 -68 35 -127 93 -176 s125 -73 203 -73c25 0 50 3 75 9c-19 111 -36 221 -54 331z" />
      </g>
      <g id="E260-ns6hcod">
         <path transform="scale(1,-1)" d="M20 110c32 16 54 27 93 27c26 0 35 -3 54 -13c13 -7 24 -20 27 -38l4 -25c0 -28 -16 -57 -45 -89c-23 -25 -39 -44 -65 -68l-88 -79v644h20v-359zM90 106c-32 0 -48 -10 -70 -29v-194c31 31 54 59 71 84c21 32 32 59 32 84c0 9 1 16 1 20c0 14 -3 21 -11 30l-8 3z" />
      </g>
      <g id="E0A4-ns6hcod">
         <path transform="scale(1,-1)" d="M0 -39c0 68 73 172 200 172c66 0 114 -37 114 -95c0 -84 -106 -171 -218 -171c-64 0 -96 30 -96 94z" />
      </g>
      <g id="E261-ns6hcod">
         <path transform="scale(1,-1)" d="M0 -188v539h18v-191l139 22v-533h-17v186zM18 -100l122 17v176l-122 -19v-174z" />
      </g>
      <g id="E4E5-ns6hcod">
         <path transform="scale(1,-1)" d="M107 292c-13 24 -30 49 -52 71c-1 1 0 2 0 3l-2 2c3 3 4 4 6 4c12 0 26 -7 40 -20s44 -40 89 -81c26 -24 28 -29 46 -47c4 -4 8 -9 10 -14c6 -8 8 -16 8 -27c0 -19 -12 -40 -36 -61c-28 -23 -49 -38 -61 -73c-4 -11 -7 -27 -10 -50c13 -43 34 -83 59 -121 c31 -47 59 -79 101 -129c-8 0 -26 7 -54 20l-62 29l-21 6l-23 1c-25 0 -45 -10 -60 -30l-4 -14l-1 -12c0 -33 20 -56 39 -78c8 -9 17 -18 26 -26c17 -15 27 -24 28 -30l-3 -3c-11 5 -19 10 -25 15c-9 3 -37 21 -45 26c-24 14 -45 32 -63 51c-19 21 -37 44 -37 71 c0 63 27 95 80 95c41 0 86 -18 136 -52c-19 26 -37 48 -55 66c-23 23 -48 44 -73 65c-28 23 -47 40 -58 53s-17 26 -18 39c75 64 113 125 113 183c0 27 -7 48 -18 68z" />
      </g>
      <g id="E4E6-ns6hcod">
         <path transform="scale(1,-1)" d="M0 123c7 34 33 56 69 60c29 -3 43 -9 53 -29c4 -8 7 -15 10 -22c0 -21 -1 -25 -11 -35c-5 -8 -18 -14 -40 -20l12 -3l15 -1c44 0 97 26 122 56c10 11 18 26 24 42c7 1 15 2 22 3l-140 -424h-36l111 330c-10 -6 -27 -12 -53 -16l-52 -8h-10l-20 1c-1 0 -8 3 -21 6 c-37 9 -55 28 -55 60z" />
      </g>
      <g id="E241-ns6hcod">
         <path transform="scale(1,-1)" d="M179 646c-4 8 -17 30 -18 33l-4 10c0 3 2 5 5 5s7 -2 13 -7c23 -33 46 -81 66 -132c22 -57 35 -125 35 -163c0 -104 -60 -183 -122 -241c-63 -59 -57 -53 -61 -56c-38 -34 -63 -95 -71 -95h-22v190c40 7 69 11 87 16c88 27 168 95 168 200c0 30 -12 89 -30 138 c-17 47 -31 73 -46 102z" />
      </g>
   </defs>
   <style type="text/css">#ns6hcod g.page-margin {font-family:Times,serif;}#ns6hcod g.ending, #ns6hcod g.fing, #ns6hcod g.reh, #ns6hcod g.tempo {font-weight:bold;}#ns6hcod g.dir, #ns6hcod g.dynam, #ns6hcod g.mNum {font-style:italic;}#ns6hcod g.label {font-weight:normal;}#ns6hcod path {stroke:currentColor}</style>
   <svg class="definition-scale" color="black" viewBox="0 0 21000 3360">
      <g class="page-margin" transform="translate(500, 500)">
         <g id="rnujbus" class="system">
            <g id="measure-0000000621795938" class="measure">
               <g id="l19gul3a" class="mNum autogenerated">
                  <text y="862" text-anchor="middle" font-size="0px">
                     <tspan id="mgcpab4" class="text">
                        <tspan font-size="324px">64</tspan>
                     </tspan>
                  </text>
               </g>
               <g id="staff-0000000698600310" class="staff">
                  <path d="M0 1105 L5324 1105" stroke-width="13" />
                  <path d="M0 1285 L5324 1285" stroke-width="13" />
                  <path d="M0 1465 L5324 1465" stroke-width="13" />
                  <path d="M0 1645 L5324 1645" stroke-width="13" />
                  <path d="M0 1825 L5324 1825" stroke-width="13" />
                  <g id="i7004yr" class="clef">
                     <use xlink:href="#E050-ns6hcod" transform="translate(90, 1645) scale(0.72, 0.72)" />
                  </g>
                  <g id="j99lw7k" class="keySig">
                     <g id="kpkhzr7" class="keyAccid">
                        <use xlink:href="#E260-ns6hcod" transform="translate(735, 1465) scale(0.72, 0.72)" />
                     </g>
                     <g id="l1mx7pv4" class="keyAccid">
                        <use xlink:href="#E260-ns6hcod" transform="translate(915, 1195) scale(0.72, 0.72)" />
                     </g>
                     <g id="m13zupdq" class="keyAccid">
                        <use xlink:href="#E260-ns6hcod" transform="translate(1095, 1555) scale(0.72, 0.72)" />
                     </g>
                     <g id="nw5wpk6" class="keyAccid">
                        <use xlink:href="#E260-ns6hcod" transform="translate(1275, 1285) scale(0.72, 0.72)" />
                     </g>
                  </g>
                  <g id="layer-0000000433002195" class="layer">
                     <g id="beam-0000000904728802" class="beam">
                        <polygon stroke-opacity="1" fill-opacity="1" points="1687,1690 3055,2050 3055,1960 1687,1600" />
                        <g id="note-0000000507279988" class="note">
                           <g class="notehead">
                              <use xlink:href="#E0A4-ns6hcod" transform="translate(1687, 1105) scale(0.72, 0.72)" />
                           </g>
                           <g id="up88t6u" class="stem">
                              <path d="M1696 1133 L1696 1672" stroke-width="18" />
                           </g>
                        </g>
                        <g id="note-0000000360830239" class="note">
                           <g class="notehead">
                              <use xlink:href="#E0A4-ns6hcod" transform="translate(2137, 1285) scale(0.72, 0.72)" />
                           </g>
                           <g id="vyb4ixr" class="stem">
                              <path d="M2146 1313 L2146 1792" stroke-width="18" />
                           </g>
                           <g id="m1sh0n6x" class="accid" />
                        </g>
                        <g id="note-0000000363365557" class="note">
                           <g class="notehead">
                              <use xlink:href="#E0A4-ns6hcod" transform="translate(2587, 1465) scale(0.72, 0.72)" />
                           </g>
                           <g id="w1qwd5yn" class="stem">
                              <path d="M2596 1493 L2596 1912" stroke-width="18" />
                           </g>
                           <g id="ov32n17" class="accid" />
                        </g>
                        <g id="note-0000000553888894" class="note">
                           <g class="notehead">
                              <use xlink:href="#E0A4-ns6hcod" transform="translate(3037, 1555) scale(0.72, 0.72)" />
                           </g>
                           <g id="x1cgc993" class="stem">
                              <path d="M3046 1583 L3046 2032" stroke-width="18" />
                           </g>
                           <g id="q1g0bbgn" class="accid" />
                        </g>
                     </g>
                     <g id="beam-0000000259542316" class="beam">
                        <polygon stroke-opacity="1" fill-opacity="1" points="3487,2185 4879,2005 4879,1915 3487,2095" />
                        <g id="note-0000000322776946" class="note">
                           <g class="notehead">
                              <use xlink:href="#E0A4-ns6hcod" transform="translate(3487, 1645) scale(0.72, 0.72)" />
                           </g>
                           <g id="yu8p107" class="stem">
                              <path d="M3496 1673 L3496 2167" stroke-width="18" />
                           </g>
                        </g>
                        <g id="note-0000001127297760" class="note">
                           <g class="notehead">
                              <use xlink:href="#E0A4-ns6hcod" transform="translate(3937, 1195) scale(0.72, 0.72)" />
                           </g>
                           <g id="z15pi9y6" class="stem">
                              <path d="M3946 1223 L3946 2109" stroke-width="18" />
                           </g>
                           <g id="accid-0000001170603598" class="accid">
                              <use xlink:href="#E261-ns6hcod" transform="translate(3779, 1195) scale(0.72, 0.72)" />
                           </g>
                        </g>
                        <g id="note-0000001609080018" class="note">
                           <g class="notehead">
                              <use xlink:href="#E0A4-ns6hcod" transform="translate(4387, 1285) scale(0.72, 0.72)" />
                           </g>
                           <g id="abtmubg" class="stem">
                              <path d="M4396 1313 L4396 2050" stroke-width="18" />
                           </g>
                           <g id="w1ipvig7" class="accid" />
                        </g>
                        <g id="note-0000001784919836" class="note">
                           <g class="notehead">
                              <use xlink:href="#E0A4-ns6hcod" transform="translate(4861, 1285) scale(0.72, 0.72)" />
                           </g>
                           <g id="bfqnkb" class="stem">
                              <path d="M4870 1313 L4870 1987" stroke-width="18" />
                           </g>
                           <g id="accid-0000000422438956" class="accid">
                              <use xlink:href="#E261-ns6hcod" transform="translate(4703, 1285) scale(0.72, 0.72)" />
                           </g>
                        </g>
                     </g>
                  </g>
               </g>
               <g id="gb30972" class="barLine">
                  <path d="M5311 1105 L5311 1825" stroke-width="27" />
               </g>
            </g>
            <g id="measure-0000001511740338" class="measure">
               <g id="staff-0000001387720635" class="staff">
                  <path d="M5324 1105 L8984 1105" stroke-width="13" />
                  <path d="M5324 1285 L8984 1285" stroke-width="13" />
                  <path d="M5324 1465 L8984 1465" stroke-width="13" />
                  <path d="M5324 1645 L8984 1645" stroke-width="13" />
                  <path d="M5324 1825 L8984 1825" stroke-width="13" />
                  <g class="ledgerLines above">
                     <path d="M7333 925 L7655 925" stroke-width="22" />
                     <path d="M8233 925 L8555 925" stroke-width="22" />
                  </g>
                  <g id="layer-0000000219368839" class="layer">
                     <g id="beam-0000001831044242" class="beam">
                        <polygon stroke-opacity="1" fill-opacity="1" points="5504,2005 6949,2005 6949,1915 5504,1915" />
                        <g id="note-0000000707734722" class="note">
                           <g class="notehead">
                              <use xlink:href="#E0A4-ns6hcod" transform="translate(5504, 1195) scale(0.72, 0.72)" />
                           </g>
                           <g id="c11vvl54" class="stem">
                              <path d="M5513 1223 L5513 1987" stroke-width="18" />
                           </g>
                           <g id="m76u3oh" class="accid" />
                        </g>
                        <g id="note-0000001477548615" class="note">
                           <g class="notehead">
                              <use xlink:href="#E0A4-ns6hcod" transform="translate(6007, 1375) scale(0.72, 0.72)" />
                           </g>
                           <g id="d1bgx4fz" class="stem">
                              <path d="M6016 1403 L6016 1987" stroke-width="18" />
                           </g>
                           <g id="accid-0000000256970961" class="accid">
                              <use xlink:href="#E260-ns6hcod" transform="translate(5820, 1375) scale(0.72, 0.72)" />
                           </g>
                        </g>
                        <g id="note-0000000684315662" class="note">
                           <g class="notehead">
                              <use xlink:href="#E0A4-ns6hcod" transform="translate(6481, 1375) scale(0.72, 0.72)" />
                           </g>
                           <g id="eo3ns4w" class="stem">
                              <path d="M6490 1403 L6490 1987" stroke-width="18" />
                           </g>
                           <g id="accid-0000001286553747" class="accid">
                              <use xlink:href="#E261-ns6hcod" transform="translate(6323, 1375) scale(0.72, 0.72)" />
                           </g>
                        </g>
                        <g id="note-0000000122620681" class="note">
                           <g class="notehead">
                              <use xlink:href="#E0A4-ns6hcod" transform="translate(6931, 1195) scale(0.72, 0.72)" />
                           </g>
                           <g id="fosulvh" class="stem">
                              <path d="M6940 1223 L6940 1987" stroke-width="18" />
                           </g>
                           <g id="s11sy3ym" class="accid" />
                        </g>
                     </g>
                     <g id="beam-0000001195663375" class="beam">
                        <polygon stroke-opacity="1" fill-opacity="1" points="7381,1645 7849,1690 7849,1600 7381,1555" />
                        <g id="note-0000000010679414" class="note">
                           <g class="notehead">
                              <use xlink:href="#E0A4-ns6hcod" transform="translate(7381, 835) scale(0.72, 0.72)" />
                           </g>
                           <g id="gcl3g3w" class="stem">
                              <path d="M7390 863 L7390 1627" stroke-width="18" />
                           </g>
                           <g id="vl1t5a9" class="accid" />
                        </g>
                        <g id="note-0000001105382729" class="note">
                           <g class="notehead">
                              <use xlink:href="#E0A4-ns6hcod" transform="translate(7831, 1015) scale(0.72, 0.72)" />
                           </g>
                           <g id="hya1uhv" class="stem">
                              <path d="M7840 1043 L7840 1672" stroke-width="18" />
                           </g>
                        </g>
                     </g>
                     <g id="note-0000000107240081" class="note">
                        <g class="notehead">
                           <use xlink:href="#E0A4-ns6hcod" transform="translate(8281, 925) scale(0.72, 0.72)" />
                        </g>
                        <g id="i164ytzd" class="stem">
                           <path d="M8290 953 L8290 1555" stroke-width="18" />
                        </g>
                        <g id="y1546duy" class="accid" />
                     </g>
                  </g>
               </g>
               <g id="h19lw1m7" class="barLine">
                  <path d="M8971 1105 L8971 1825" stroke-width="27" />
               </g>
            </g>
            <g id="sb-0000001505869094" class="sb" />
            <g id="measure-0000001138072690" class="measure">
               <g id="staff-0000000871093265" class="staff">
                  <path d="M8984 1105 L12519 1105" stroke-width="13" />
                  <path d="M8984 1285 L12519 1285" stroke-width="13" />
                  <path d="M8984 1465 L12519 1465" stroke-width="13" />
                  <path d="M8984 1645 L12519 1645" stroke-width="13" />
                  <path d="M8984 1825 L12519 1825" stroke-width="13" />
                  <g class="ledgerLines above">
                     <path d="M10256 925 L10578 925" stroke-width="22" />
                     <path d="M11396 925 L11718 925" stroke-width="22" />
                     <path d="M11846 925 L12168 925" stroke-width="22" />
                     <path d="M10256 745 L10578 745" stroke-width="22" />
                     <path d="M11396 745 L11718 745" stroke-width="22" />
                     <path d="M11396 565 L11718 565" stroke-width="22" />
                  </g>
                  <g id="layer-0000001227903153" class="layer">
                     <g id="rest-0000001810827872" class="rest">
                        <use xlink:href="#E4E5-ns6hcod" transform="translate(9164, 1465) scale(0.72, 0.72)" />
                     </g>
                     <g id="rest-0000000794394348" class="rest">
                        <use xlink:href="#E4E6-ns6hcod" transform="translate(9854, 1465) scale(0.72, 0.72)" />
                     </g>
                     <g id="note-0000001535051167" class="note">
                        <g class="notehead">
                           <use xlink:href="#E0A4-ns6hcod" transform="translate(10304, 745) scale(0.72, 0.72)" />
                        </g>
                        <g id="j3pdlu3" class="stem">
                           <path d="M10313 773 L10313 1465" stroke-width="18" />
                           <g id="k1hk60fl" class="flag">
                              <use xlink:href="#E241-ns6hcod" transform="translate(10304, 1465) scale(0.72, 0.72)" />
                           </g>
                        </g>
                     </g>
                     <g id="rest-0000001434960710" class="rest">
                        <use xlink:href="#E4E5-ns6hcod" transform="translate(10754, 1465) scale(0.72, 0.72)" />
                     </g>
                     <g id="beam-0000000787543313" class="beam">
                        <polygon stroke-opacity="1" fill-opacity="1" points="11444,1510 11912,1555 11912,1465 11444,1420" />
                        <g id="note-0000001213277509" class="note">
                           <g class="notehead">
                              <use xlink:href="#E0A4-ns6hcod" transform="translate(11444, 565) scale(0.72, 0.72)" />
                           </g>
                           <g id="l7flv2l" class="stem">
                              <path d="M11453 593 L11453 1492" stroke-width="18" />
                           </g>
                           <g id="r2jjf90" class="accid" />
                        </g>
                        <g id="note-0000001474749124" class="note">
                           <g class="notehead">
                              <use xlink:href="#E0A4-ns6hcod" transform="translate(11894, 835) scale(0.72, 0.72)" />
                           </g>
                           <g id="m100rwr6" class="stem">
                              <path d="M11903 863 L11903 1537" stroke-width="18" />
                           </g>
                           <g id="tcgpl3w" class="accid" />
                        </g>
                     </g>
                  </g>
               </g>
               <g id="ihn4f6u" class="barLine">
                  <path d="M12344 1105 L12344 1825" stroke-width="27" />
                  <path d="M12474 1105 L12474 1825" stroke-width="90" />
               </g>
            </g>
            <g id="b1thxuzq" class="systemMilestoneEnd section-0000002012449026" />
         </g>
         <g id="ckphhvj" class="pageMilestoneEnd score-0000000865523946" />
         <g id="d7ouj8h" class="pageMilestoneEnd mdiv-0000000856072842" />
         <g id="igxy8fe" class="pgHead autogenerated">
            <text font-size="0px">
               <tspan id="jhxd5vy" class="rend" x="10000" y="219" text-anchor="middle">
                  <tspan id="kig7loa" class="text">
                     <tspan font-size="324px">– </tspan>
                  </tspan>
                  <tspan id="l7rev0u" class="num">
                     <title class="labelAttr">page</title>
                     <tspan id="mzpkkmb" class="text">
                        <tspan font-size="324px">2</tspan>
                     </tspan>
                  </tspan>
                  <tspan id="o1orp3sb" class="text">
                     <tspan font-size="324px"> –</tspan>
                  </tspan>
               </tspan>
            </text>
         </g>
      </g>
   </svg>
</svg>
