<svg width="2100px" height="2970px" version="1.1" xmlns="http://www.w3.org/2000/svg" xmlns:xlink="http://www.w3.org/1999/xlink" overflow="visible" id="oshl09i">
   <desc>Engraved by Verovio 5.6.0-85e7620</desc>
   <defs>
      <g id="E050-oshl09i">
         <path transform="scale(1,-1)" d="M441 -245c-23 -4 -48 -6 -76 -6c-59 0 -102 7 -130 20c-88 42 -150 93 -187 154c-26 44 -43 103 -48 176c0 6 -1 13 -1 19c0 54 15 111 45 170c29 57 65 106 110 148s96 85 153 127c-3 16 -8 46 -13 92c-4 43 -5 73 -5 89c0 117 16 172 69 257c34 54 64 82 89 82 c21 0 43 -30 69 -92s39 -115 41 -159v-15c0 -109 -21 -162 -67 -241c-13 -20 -63 -90 -98 -118c-13 -9 -25 -19 -37 -29l31 -181c8 1 18 2 28 2c58 0 102 -12 133 -35c59 -43 92 -104 98 -184c1 -7 1 -15 1 -22c0 -123 -87 -209 -181 -248c8 -57 17 -110 25 -162 c5 -31 6 -58 6 -80c0 -30 -5 -53 -14 -70c-35 -64 -88 -99 -158 -103c-5 0 -11 -1 -16 -1c-37 0 -72 10 -108 27c-50 24 -77 59 -80 105v11c0 29 7 55 20 76c18 28 45 42 79 44h6c49 0 93 -42 97 -87v-9c0 -51 -34 -86 -105 -106c17 -24 51 -36 102 -36c62 0 116 43 140 85 c9 16 13 41 13 74c0 20 -1 42 -5 67c-8 53 -18 106 -26 159zM461 939c-95 0 -135 -175 -135 -286c0 -24 2 -48 5 -71c50 39 92 82 127 128c40 53 60 100 60 140v8c-4 53 -22 81 -55 81h-2zM406 119l54 -326c73 25 110 78 110 161c0 7 0 15 -1 23c-7 95 -57 142 -151 142h-12 zM382 117c-72 -2 -128 -47 -128 -120v-7c2 -46 43 -99 75 -115c-3 -2 -7 -5 -10 -10c-70 33 -116 88 -123 172v11c0 68 44 126 88 159c23 17 49 29 78 36l-29 170c-21 -13 -52 -37 -92 -73c-50 -44 -86 -84 -109 -119c-45 -69 -67 -130 -67 -182v-13c5 -68 35 -127 93 -176 s125 -73 203 -73c25 0 50 3 75 9c-19 111 -36 221 -54 331z" />
      </g>
      <g id="E260-oshl09i">
         <path transform="scale(1,-1)" d="M20 110c32 16 54 27 93 27c26 0 35 -3 54 -13c13 -7 24 -20 27 -38l4 -25c0 -28 -16 -57 -45 -89c-23 -25 -39 -44 -65 -68l-88 -79v644h20v-359zM90 106c-32 0 -48 -10 -70 -29v-194c31 31 54 59 71 84c21 32 32 59 32 84c0 9 1 16 1 20c0 14 -3 21 -11 30l-8 3z" />
      </g>
      <g id="E084-oshl09i">
         <path transform="scale(1,-1)" d="M20 -78c84 97 114 180 134 329h170c-13 -32 -82 -132 -99 -151l-84 -97c-33 -36 -59 -63 -80 -81h162v102l127 123v-225h57v-39h-57v-34c0 -43 19 -65 57 -65v-34h-244v36c48 0 60 26 60 70v27h-203v39z" />
      </g>
      <g id="E0A4-oshl09i">
         <path transform="scale(1,-1)" d="M0 -39c0 68 73 172 200 172c66 0 114 -37 114 -95c0 -84 -106 -171 -218 -171c-64 0 -96 30 -96 94z" />
      </g>
      <g id="E4C0-oshl09i">
         <path transform="scale(1,-1)" d="M0 0c0 0 40 320 300 320s300 -320 300 -320h-32s-38 227 -268 227s-268 -227 -268 -227h-32zM355 52c0 -30 -25 -55 -55 -55s-55 25 -55 55s25 55 55 55s55 -25 55 -55z" />
      </g>
      <g id="E262-oshl09i">
         <path transform="scale(1,-1)" d="M136 186v169h17v-164l44 14v-91l-44 -14v-165l44 12v-91l-44 -13v-155h-17v150l-76 -22v-155h-17v149l-43 -13v90l43 14v167l-43 -14v92l43 13v169h17v-163zM60 73v-167l76 22v168z" />
      </g>
      <g id="E0A3-oshl09i">
         <path transform="scale(1,-1)" d="M278 64c0 22 -17 39 -43 39c-12 0 -26 -3 -41 -10c-85 -43 -165 -94 -165 -156c5 -25 15 -32 49 -32c67 11 200 95 200 159zM0 -36c0 68 73 174 200 174c66 0 114 -39 114 -97c0 -84 -106 -173 -218 -173c-64 0 -96 32 -96 96z" />
      </g>
   </defs>
   <style type="text/css">#oshl09i g.page-margin {font-family:Times,serif;}#oshl09i g.ending, #oshl09i g.fing, #oshl09i g.reh, #oshl09i g.tempo {font-weight:bold;}#oshl09i g.dir, #oshl09i g.dynam, #oshl09i g.mNum {font-style:italic;}#oshl09i g.label {font-weight:normal;}#oshl09i path {stroke:currentColor}</style>
   <svg class="definition-scale" color="black" viewBox="0 0 21000 29700">
      <g class="page-margin" transform="translate(500, 500)">
         <g id="mdiv-0000000552917014" class="mdiv pageMilestone" />
         <g id="score-0000001272574010" class="score pageMilestone" />
         <g id="b49fld0" class="system">
            <g id="section-0000001468343397" class="section systemMilestone" />
            <g id="pb-0000000926028608" class="pb" />
            <g id="measure-0000002144790773" class="measure">
               <g id="staff-0000000034372588" class="staff">
                  <path d="M0 1268 L4450 1268" stroke-width="13" />
                  <path d="M0 1448 L4450 1448" stroke-width="13" />
                  <path d="M0 1628 L4450 1628" stroke-width="13" />
                  <path d="M0 1808 L4450 1808" stroke-width="13" />
                  <path d="M0 1988 L4450 1988" stroke-width="13" />
                  <g id="w15wnktt" class="clef">
                     <use xlink:href="#E050-oshl09i" transform="translate(90, 1808) scale(0.72, 0.72)" />
                  </g>
                  <g id="x1k30avk" class="keySig">
                     <g id="ywo7n7a" class="keyAccid">
                        <use xlink:href="#E260-oshl09i" transform="translate(735, 1628) scale(0.72, 0.72)" />
                     </g>
                  </g>
                  <g id="z1w8wh7m" class="meterSig">
                     <use xlink:href="#E084-oshl09i" transform="translate(1043, 1448) scale(0.72, 0.72)" />
                     <use xlink:href="#E084-oshl09i" transform="translate(1043, 1808) scale(0.72, 0.72)" />
                  </g>
                  <g id="layer-0000002053967542" class="layer">
                     <g id="note-0000001524720202" class="note">
                        <g class="notehead">
                           <use xlink:href="#E0A4-oshl09i" transform="translate(1615, 1628) scale(0.72, 0.72)" />
                        </g>
                        <g id="d1tls4co" class="stem">
                           <path d="M1624 1656 L1624 2228" stroke-width="18" />
                        </g>
                        <g id="u180uxno" class="accid" />
                     </g>
                     <g id="note-0000001883674982" class="note">
                        <g class="notehead">
                           <use xlink:href="#E0A4-oshl09i" transform="translate(2320, 1718) scale(0.72, 0.72)" />
                        </g>
                        <g id="e1ssgnxv" class="stem">
                           <path d="M2537 1690 L2537 1088" stroke-width="18" />
                        </g>
                     </g>
                     <g id="note-0000000236113239" class="note">
                        <g class="notehead">
                           <use xlink:href="#E0A4-oshl09i" transform="translate(3026, 1808) scale(0.72, 0.72)" />
                        </g>
                        <g id="foa99wo" class="stem">
                           <path d="M3243 1780 L3243 1178" stroke-width="18" />
                        </g>
                     </g>
                     <g id="note-0000000311106693" class="note">
                        <g class="notehead">
                           <use xlink:href="#E0A4-oshl09i" transform="translate(3732, 1448) scale(0.72, 0.72)" />
                        </g>
                        <g id="gdwfnht" class="stem">
                           <path d="M3741 1476 L3741 2078" stroke-width="18" />
                        </g>
                     </g>
                  </g>
               </g>
               <g id="q1qhslij" class="barLine">
                  <path d="M4437 1268 L4437 1988" stroke-width="27" />
               </g>
            </g>
            <g id="measure-0000001192163094" class="measure">
               <g id="staff-0000001035608786" class="staff">
                  <path d="M4450 1268 L7689 1268" stroke-width="13" />
                  <path d="M4450 1448 L7689 1448" stroke-width="13" />
                  <path d="M4450 1628 L7689 1628" stroke-width="13" />
                  <path d="M4450 1808 L7689 1808" stroke-width="13" />
                  <path d="M4450 1988 L7689 1988" stroke-width="13" />
                  <g id="layer-0000001784396853" class="layer">
                     <g id="beam-0000001859759379" class="beam">
                        <polygon stroke-opacity="1" fill-opacity="1" points="4640,2168 5117,2213 5117,2123 4640,2078" />
                        <g id="note-0000001913914112" class="note">
                           <g class="notehead">
                              <use xlink:href="#E0A4-oshl09i" transform="translate(4640, 1448) scale(0.72, 0.72)" />
                           </g>
                           <g id="h10w206c" class="stem">
                              <path d="M4649 1476 L4649 2150" stroke-width="18" />
                           </g>
                        </g>
                        <g id="note-0000002099480206" class="note">
                           <g class="notehead">
                              <use xlink:href="#E0A4-oshl09i" transform="translate(5099, 1538) scale(0.72, 0.72)" />
                           </g>
                           <g id="ivswsf5" class="stem">
                              <path d="M5108 1566 L5108 2195" stroke-width="18" />
                           </g>
                        </g>
                     </g>
                     <g id="note-0000001534212258" class="note">
                        <g class="notehead">
                           <use xlink:href="#E0A4-oshl09i" transform="translate(5559, 1628) scale(0.72, 0.72)" />
                        </g>
                        <g id="j1gv9aef" class="stem">
                           <path d="M5568 1656 L5568 2228" stroke-width="18" />
                        </g>
                        <g id="n8y74ib" class="accid" />
                     </g>
                     <g id="note-0000002061952945" class="note">
                        <g class="notehead">
                           <use xlink:href="#E0A4-oshl09i" transform="translate(6264, 1718) scale(0.72, 0.72)" />
                        </g>
                        <g id="k1fq9s7" class="stem">
                           <path d="M6481 1690 L6481 1088" stroke-width="18" />
                        </g>
                     </g>
                     <g id="note-0000001025330648" class="note">
                        <g class="notehead">
                           <use xlink:href="#E0A4-oshl09i" transform="translate(6970, 1538) scale(0.72, 0.72)" />
                        </g>
                        <g id="l1b8ov34" class="stem">
                           <path d="M6979 1566 L6979 2168" stroke-width="18" />
                        </g>
                     </g>
                  </g>
               </g>
               <g id="fermata-0000002013481858" class="fermata">
                  <use xlink:href="#E4C0-oshl09i" transform="translate(5456, 1221) scale(0.72, 0.72)" />
               </g>
               <g id="g1bf6nhz" class="barLine">
                  <path d="M7676 1268 L7676 1988" stroke-width="27" />
               </g>
            </g>
            <g id="measure-0000000667303100" class="measure">
               <g id="staff-0000000873757501" class="staff">
                  <path d="M7689 1268 L10714 1268" stroke-width="13" />
                  <path d="M7689 1448 L10714 1448" stroke-width="13" />
                  <path d="M7689 1628 L10714 1628" stroke-width="13" />
                  <path d="M7689 1808 L10714 1808" stroke-width="13" />
                  <path d="M7689 1988 L10714 1988" stroke-width="13" />
                  <g id="layer-0000001782760727" class="layer">
                     <g id="note-0000000183011132" class="note">
                        <g class="notehead">
                           <use xlink:href="#E0A4-oshl09i" transform="translate(7879, 1628) scale(0.72, 0.72)" />
                        </g>
                        <g id="m1x9szbl" class="stem">
                           <path d="M7888 1656 L7888 2228" stroke-width="18" />
                        </g>
                        <g id="d1h6iu4k" class="accid" />
                     </g>
                     <g id="note-0000001057746298" class="note">
                        <g class="notehead">
                           <use xlink:href="#E0A4-oshl09i" transform="translate(8584, 1718) scale(0.72, 0.72)" />
                        </g>
                        <g id="nbaq4gc" class="stem">
                           <path d="M8801 1690 L8801 1088" stroke-width="18" />
                        </g>
                     </g>
                     <g id="note-0000001134139881" class="note">
                        <g class="notehead">
                           <use xlink:href="#E0A4-oshl09i" transform="translate(9290, 1808) scale(0.72, 0.72)" />
                        </g>
                        <g id="opux4u5" class="stem">
                           <path d="M9507 1780 L9507 1178" stroke-width="18" />
                        </g>
                     </g>
                     <g id="note-0000001358435879" class="note">
                        <g class="notehead">
                           <use xlink:href="#E0A4-oshl09i" transform="translate(9996, 1538) scale(0.72, 0.72)" />
                        </g>
                        <g id="pf9cge" class="stem">
                           <path d="M10005 1566 L10005 2168" stroke-width="18" />
                        </g>
                     </g>
                  </g>
               </g>
               <g id="z1xarhxj" class="barLine">
                  <path d="M10701 1268 L10701 1988" stroke-width="27" />
               </g>
            </g>
            <g id="measure-0000000735210568" class="measure">
               <g id="staff-0000002055122946" class="staff">
                  <path d="M10714 1268 L13739 1268" stroke-width="13" />
                  <path d="M10714 1448 L13739 1448" stroke-width="13" />
                  <path d="M10714 1628 L13739 1628" stroke-width="13" />
                  <path d="M10714 1808 L13739 1808" stroke-width="13" />
                  <path d="M10714 1988 L13739 1988" stroke-width="13" />
                  <g id="layer-0000001726224877" class="layer">
                     <g id="note-0000002109260274" class="note">
                        <g class="notehead">
                           <use xlink:href="#E0A4-oshl09i" transform="translate(10904, 1628) scale(0.72, 0.72)" />
                        </g>
                        <g id="q1ngpbdl" class="stem">
                           <path d="M10913 1656 L10913 2228" stroke-width="18" />
                        </g>
                        <g id="t1gaoqmq" class="accid" />
                     </g>
                     <g id="note-0000000298055390" class="note">
                        <g class="notehead">
                           <use xlink:href="#E0A4-oshl09i" transform="translate(11609, 1718) scale(0.72, 0.72)" />
                        </g>
                        <g id="ron6g0f" class="stem">
                           <path d="M11826 1690 L11826 1088" stroke-width="18" />
                        </g>
                     </g>
                     <g id="note-0000001594214663" class="note">
                        <g class="notehead">
                           <use xlink:href="#E0A4-oshl09i" transform="translate(12315, 1808) scale(0.72, 0.72)" />
                        </g>
                        <g id="s1o29xkx" class="stem">
                           <path d="M12532 1780 L12532 1178" stroke-width="18" />
                        </g>
                     </g>
                     <g id="note-0000001101333840" class="note">
                        <g class="notehead">
                           <use xlink:href="#E0A4-oshl09i" transform="translate(13021, 1718) scale(0.72, 0.72)" />
                        </g>
                        <g id="t1ayn65m" class="stem">
                           <path d="M13238 1690 L13238 1088" stroke-width="18" />
                        </g>
                     </g>
                  </g>
               </g>
               <g id="fermata-0000001345357986" class="fermata">
                  <use xlink:href="#E4C0-oshl09i" transform="translate(12212, 1122) scale(0.72, 0.72)" />
               </g>
               <g id="pkayg2y" class="barLine">
                  <path d="M13726 1268 L13726 1988" stroke-width="27" />
               </g>
            </g>
            <g id="measure-0000000876265127" class="measure">
               <g id="staff-0000000514715738" class="staff">
                  <path d="M13739 1268 L16764 1268" stroke-width="13" />
                  <path d="M13739 1448 L16764 1448" stroke-width="13" />
                  <path d="M13739 1628 L16764 1628" stroke-width="13" />
                  <path d="M13739 1808 L16764 1808" stroke-width="13" />
                  <path d="M13739 1988 L16764 1988" stroke-width="13" />
                  <g id="layer-0000002004493973" class="layer">
                     <g id="note-0000001395574349" class="note">
                        <g class="notehead">
                           <use xlink:href="#E0A4-oshl09i" transform="translate(13929, 1628) scale(0.72, 0.72)" />
                        </g>
                        <g id="uzwabew" class="stem">
                           <path d="M13938 1656 L13938 2228" stroke-width="18" />
                        </g>
                        <g id="k1wkbpso" class="accid" />
                     </g>
                     <g id="note-0000001499471788" class="note">
                        <g class="notehead">
                           <use xlink:href="#E0A4-oshl09i" transform="translate(14634, 1718) scale(0.72, 0.72)" />
                        </g>
                        <g id="v1o1aw17" class="stem">
                           <path d="M14851 1690 L14851 1088" stroke-width="18" />
                        </g>
                     </g>
                     <g id="note-0000002024533610" class="note">
                        <g class="notehead">
                           <use xlink:href="#E0A4-oshl09i" transform="translate(15340, 1808) scale(0.72, 0.72)" />
                        </g>
                        <g id="wb3omup" class="stem">
                           <path d="M15557 1780 L15557 1178" stroke-width="18" />
                        </g>
                     </g>
                     <g id="note-0000002009924944" class="note">
                        <g class="notehead">
                           <use xlink:href="#E0A4-oshl09i" transform="translate(16046, 1448) scale(0.72, 0.72)" />
                        </g>
                        <g id="x16vreiz" class="stem">
                           <path d="M16055 1476 L16055 2078" stroke-width="18" />
                        </g>
                     </g>
                  </g>
               </g>
               <g id="g1j1hgwp" class="barLine">
                  <path d="M16751 1268 L16751 1988" stroke-width="27" />
               </g>
            </g>
            <g id="measure-0000001942273620" class="measure">
               <g id="staff-0000001709958364" class="staff">
                  <path d="M16764 1268 L20003 1268" stroke-width="13" />
                  <path d="M16764 1448 L20003 1448" stroke-width="13" />
                  <path d="M16764 1628 L20003 1628" stroke-width="13" />
                  <path d="M16764 1808 L20003 1808" stroke-width="13" />
                  <path d="M16764 1988 L20003 1988" stroke-width="13" />
                  <g id="layer-0000002065882345" class="layer">
                     <g id="beam-0000001859046736" class="beam">
                        <polygon stroke-opacity="1" fill-opacity="1" points="16954,2168 17431,2213 17431,2123 16954,2078" />
                        <g id="note-0000000008529779" class="note">
                           <g class="notehead">
                              <use xlink:href="#E0A4-oshl09i" transform="translate(16954, 1448) scale(0.72, 0.72)" />
                           </g>
                           <g id="y1q5e5tp" class="stem">
                              <path d="M16963 1476 L16963 2150" stroke-width="18" />
                           </g>
                        </g>
                        <g id="note-0000001676926339" class="note">
                           <g class="notehead">
                              <use xlink:href="#E0A4-oshl09i" transform="translate(17413, 1538) scale(0.72, 0.72)" />
                           </g>
                           <g id="zlxfu0g" class="stem">
                              <path d="M17422 1566 L17422 2195" stroke-width="18" />
                           </g>
                        </g>
                     </g>
                     <g id="note-0000000094020639" class="note">
                        <g class="notehead">
                           <use xlink:href="#E0A4-oshl09i" transform="translate(17873, 1628) scale(0.72, 0.72)" />
                        </g>
                        <g id="a3zxig" class="stem">
                           <path d="M17882 1656 L17882 2228" stroke-width="18" />
                        </g>
                        <g id="d1m7lyc3" class="accid" />
                     </g>
                     <g id="note-0000000685357298" class="note">
                        <g class="notehead">
                           <use xlink:href="#E0A4-oshl09i" transform="translate(18578, 1718) scale(0.72, 0.72)" />
                        </g>
                        <g id="b5r6xa0" class="stem">
                           <path d="M18795 1690 L18795 1088" stroke-width="18" />
                        </g>
                     </g>
                     <g id="note-0000000335427681" class="note">
                        <g class="notehead">
                           <use xlink:href="#E0A4-oshl09i" transform="translate(19284, 1538) scale(0.72, 0.72)" />
                        </g>
                        <g id="c7we01t" class="stem">
                           <path d="M19293 1566 L19293 2168" stroke-width="18" />
                        </g>
                     </g>
                  </g>
               </g>
               <g id="fermata-0000002039510182" class="fermata">
                  <use xlink:href="#E4C0-oshl09i" transform="translate(18475, 1032) scale(0.72, 0.72)" />
               </g>
               <g id="w1sv8cxx" class="barLine">
                  <path d="M19990 1268 L19990 1988" stroke-width="27" />
               </g>
            </g>
         </g>
         <g id="e5dkn24" class="system">
            <g id="measure-0000001286326890" class="measure">
               <g id="ksos0r2" class="mNum autogenerated">
                  <text y="3185" text-anchor="middle" font-size="0px">
                     <tspan id="l4jykvs" class="text">
                        <tspan font-size="324px">7</tspan>
                     </tspan>
                  </text>
               </g>
               <g id="staff-0000000052221504" class="staff">
                  <path d="M0 3428 L4066 3428" stroke-width="13" />
                  <path d="M0 3608 L4066 3608" stroke-width="13" />
                  <path d="M0 3788 L4066 3788" stroke-width="13" />
                  <path d="M0 3968 L4066 3968" stroke-width="13" />
                  <path d="M0 4148 L4066 4148" stroke-width="13" />
                  <g id="gw1fyav" class="clef">
                     <use xlink:href="#E050-oshl09i" transform="translate(90, 3968) scale(0.72, 0.72)" />
                  </g>
                  <g id="h82j5xc" class="keySig">
                     <g id="i1q2vhix" class="keyAccid">
                        <use xlink:href="#E260-oshl09i" transform="translate(735, 3788) scale(0.72, 0.72)" />
                     </g>
                  </g>
                  <g id="layer-0000000769516092" class="layer">
                     <g id="note-0000001084256649" class="note">
                        <g class="notehead">
                           <use xlink:href="#E0A4-oshl09i" transform="translate(1148, 3788) scale(0.72, 0.72)" />
                        </g>
                        <g id="d17wwo1n" class="stem">
                           <path d="M1157 3816 L1157 4388" stroke-width="18" />
                        </g>
                        <g id="talh62p" class="accid" />
                     </g>
                     <g id="note-0000001639882837" class="note">
                        <g class="notehead">
                           <use xlink:href="#E0A4-oshl09i" transform="translate(1875, 3878) scale(0.72, 0.72)" />
                        </g>
                        <g id="e1ksit0e" class="stem">
                           <path d="M2092 3850 L2092 3248" stroke-width="18" />
                        </g>
                     </g>
                     <g id="note-0000001550044066" class="note">
                        <g class="notehead">
                           <use xlink:href="#E0A4-oshl09i" transform="translate(2601, 3968) scale(0.72, 0.72)" />
                        </g>
                        <g id="f3fkh3q" class="stem">
                           <path d="M2818 3940 L2818 3338" stroke-width="18" />
                        </g>
                     </g>
                     <g id="note-0000000672298658" class="note">
                        <g class="notehead">
                           <use xlink:href="#E0A4-oshl09i" transform="translate(3327, 3698) scale(0.72, 0.72)" />
                        </g>
                        <g id="g5litqz" class="stem">
                           <path d="M3336 3726 L3336 4328" stroke-width="18" />
                        </g>
                     </g>
                  </g>
               </g>
               <g id="pp4ryo3" class="barLine">
                  <path d="M4053 3428 L4053 4148" stroke-width="27" />
               </g>
            </g>
            <g id="measure-0000002056195375" class="measure">
               <g id="staff-0000001510852901" class="staff">
                  <path d="M4066 3428 L7165 3428" stroke-width="13" />
                  <path d="M4066 3608 L7165 3608" stroke-width="13" />
                  <path d="M4066 3788 L7165 3788" stroke-width="13" />
                  <path d="M4066 3968 L7165 3968" stroke-width="13" />
                  <path d="M4066 4148 L7165 4148" stroke-width="13" />
                  <g id="layer-0000000852178025" class="layer">
                     <g id="note-0000001894695606" class="note">
                        <g class="notehead">
                           <use xlink:href="#E0A4-oshl09i" transform="translate(4247, 3788) scale(0.72, 0.72)" />
                        </g>
                        <g id="h59ljwu" class="stem">
                           <path d="M4256 3816 L4256 4388" stroke-width="18" />
                        </g>
                        <g id="jfvuuhv" class="accid" />
                     </g>
                     <g id="note-0000001916981941" class="note">
                        <g class="notehead">
                           <use xlink:href="#E0A4-oshl09i" transform="translate(4974, 3878) scale(0.72, 0.72)" />
                        </g>
                        <g id="iylqubu" class="stem">
                           <path d="M5191 3850 L5191 3248" stroke-width="18" />
                        </g>
                     </g>
                     <g id="note-0000000864327149" class="note">
                        <g class="notehead">
                           <use xlink:href="#E0A4-oshl09i" transform="translate(5700, 3968) scale(0.72, 0.72)" />
                        </g>
                        <g id="jj9kiu8" class="stem">
                           <path d="M5917 3940 L5917 3338" stroke-width="18" />
                        </g>
                     </g>
                     <g id="note-0000000856987919" class="note">
                        <g class="notehead">
                           <use xlink:href="#E0A4-oshl09i" transform="translate(6426, 3968) scale(0.72, 0.72)" />
                        </g>
                        <g id="k1yxeips" class="stem">
                           <path d="M6643 3940 L6643 3338" stroke-width="18" />
                        </g>
                     </g>
                  </g>
               </g>
               <g id="fei20ia" class="barLine">
                  <path d="M7152 3428 L7152 4148" stroke-width="27" />
               </g>
            </g>
            <g id="measure-0000000135194777" class="measure">
               <g id="staff-0000001098882360" class="staff">
                  <path d="M7165 3428 L10484 3428" stroke-width="13" />
                  <path d="M7165 3608 L10484 3608" stroke-width="13" />
                  <path d="M7165 3788 L10484 3788" stroke-width="13" />
                  <path d="M7165 3968 L10484 3968" stroke-width="13" />
                  <path d="M7165 4148 L10484 4148" stroke-width="13" />
                  <g id="layer-0000000996848071" class="layer">
                     <g id="note-0000001220854261" class="note">
                        <g class="notehead">
                           <use xlink:href="#E0A4-oshl09i" transform="translate(7346, 3878) scale(0.72, 0.72)" />
                        </g>
                        <g id="lrvaw89" class="stem">
                           <path d="M7563 3850 L7563 3248" stroke-width="18" />
                        </g>
                     </g>
                     <g id="note-0000001324465406" class="note">
                        <g class="notehead">
                           <use xlink:href="#E0A4-oshl09i" transform="translate(8073, 4058) scale(0.72, 0.72)" />
                        </g>
                        <g id="m1w9h8qp" class="stem">
                           <path d="M8290 4030 L8290 3428" stroke-width="18" />
                        </g>
                     </g>
                     <g id="note-0000000762545082" class="note">
                        <g class="notehead">
                           <use xlink:href="#E0A4-oshl09i" transform="translate(8799, 4148) scale(0.72, 0.72)" />
                        </g>
                        <g id="nj2wwdh" class="stem">
                           <path d="M9016 4120 L9016 3518" stroke-width="18" />
                        </g>
                     </g>
                     <g id="beam-0000000378627189" class="beam">
                        <polygon stroke-opacity="1" fill-opacity="1" points="9733,3563 10224,3518 10224,3608 9733,3653" />
                        <g id="note-0000000797188936" class="note">
                           <g class="notehead">
                              <use xlink:href="#E0A4-oshl09i" transform="translate(9525, 4238) scale(0.72, 0.72)" />
                           </g>
                           <g id="o5gupgb" class="stem">
                              <path d="M9742 4210 L9742 3581" stroke-width="18" />
                           </g>
                        </g>
                        <g id="note-0000000006275340" class="note">
                           <g class="notehead">
                              <use xlink:href="#E0A4-oshl09i" transform="translate(9998, 4148) scale(0.72, 0.72)" />
                           </g>
                           <g id="p1n0i3va" class="stem">
                              <path d="M10215 4120 L10215 3536" stroke-width="18" />
                           </g>
                        </g>
                     </g>
                  </g>
               </g>
               <g id="vrkyh7v" class="barLine">
                  <path d="M10471 3428 L10471 4148" stroke-width="27" />
               </g>
            </g>
            <g id="sb-0000002037002837" class="sb" />
            <g id="measure-0000000612275368" class="measure">
               <g id="staff-0000000418510441" class="staff">
                  <path d="M10484 3428 L13583 3428" stroke-width="13" />
                  <path d="M10484 3608 L13583 3608" stroke-width="13" />
                  <path d="M10484 3788 L13583 3788" stroke-width="13" />
                  <path d="M10484 3968 L13583 3968" stroke-width="13" />
                  <path d="M10484 4148 L13583 4148" stroke-width="13" />
                  <g id="layer-0000002087954068" class="layer">
                     <g id="note-0000000075800497" class="note">
                        <g class="notehead">
                           <use xlink:href="#E0A4-oshl09i" transform="translate(10665, 4058) scale(0.72, 0.72)" />
                        </g>
                        <g id="q1r6312y" class="stem">
                           <path d="M10882 4030 L10882 3428" stroke-width="18" />
                        </g>
                     </g>
                     <g id="note-0000000119073495" class="note">
                        <g class="notehead">
                           <use xlink:href="#E0A4-oshl09i" transform="translate(11392, 3968) scale(0.72, 0.72)" />
                        </g>
                        <g id="rmbwu37" class="stem">
                           <path d="M11609 3940 L11609 3338" stroke-width="18" />
                        </g>
                     </g>
                     <g id="note-0000000372964887" class="note">
                        <g class="notehead">
                           <use xlink:href="#E0A4-oshl09i" transform="translate(12118, 3878) scale(0.72, 0.72)" />
                        </g>
                        <g id="s17ne60e" class="stem">
                           <path d="M12335 3850 L12335 3248" stroke-width="18" />
                        </g>
                     </g>
                     <g id="note-0000001211922469" class="note">
                        <g class="notehead">
                           <use xlink:href="#E0A4-oshl09i" transform="translate(12844, 4058) scale(0.72, 0.72)" />
                        </g>
                        <g id="tzzeloy" class="stem">
                           <path d="M13061 4030 L13061 3428" stroke-width="18" />
                        </g>
                     </g>
                  </g>
               </g>
               <g id="fermata-0000001351329884" class="fermata">
                  <use xlink:href="#E4C0-oshl09i" transform="translate(12015, 3192) scale(0.72, 0.72)" />
               </g>
               <g id="n1xvdaxc" class="barLine">
                  <path d="M13570 3428 L13570 4148" stroke-width="27" />
               </g>
            </g>
            <g id="measure-0000001750754146" class="measure">
               <g id="staff-0000000735234557" class="staff">
                  <path d="M13583 3428 L16902 3428" stroke-width="13" />
                  <path d="M13583 3608 L16902 3608" stroke-width="13" />
                  <path d="M13583 3788 L16902 3788" stroke-width="13" />
                  <path d="M13583 3968 L16902 3968" stroke-width="13" />
                  <path d="M13583 4148 L16902 4148" stroke-width="13" />
                  <g id="layer-0000000474586810" class="layer">
                     <g id="beam-0000000092009561" class="beam">
                        <polygon stroke-opacity="1" fill-opacity="1" points="13972,3248 14463,3203 14463,3293 13972,3338" />
                        <g id="note-0000001855263079" class="note">
                           <g class="notehead">
                              <use xlink:href="#E0A4-oshl09i" transform="translate(13764, 3968) scale(0.72, 0.72)" />
                           </g>
                           <g id="u1van0pv" class="stem">
                              <path d="M13981 3940 L13981 3266" stroke-width="18" />
                           </g>
                        </g>
                        <g id="note-0000001546796796" class="note">
                           <g class="notehead">
                              <use xlink:href="#E0A4-oshl09i" transform="translate(14237, 3878) scale(0.72, 0.72)" />
                           </g>
                           <g id="v16nzrrb" class="stem">
                              <path d="M14454 3850 L14454 3221" stroke-width="18" />
                           </g>
                        </g>
                     </g>
                     <g id="note-0000001717484517" class="note">
                        <g class="notehead">
                           <use xlink:href="#E0A4-oshl09i" transform="translate(14711, 3788) scale(0.72, 0.72)" />
                        </g>
                        <g id="w3f9tcy" class="stem">
                           <path d="M14720 3816 L14720 4388" stroke-width="18" />
                        </g>
                        <g id="k1ghdh6x" class="accid" />
                     </g>
                     <g id="note-0000000965601466" class="note">
                        <g class="notehead">
                           <use xlink:href="#E0A4-oshl09i" transform="translate(15437, 3878) scale(0.72, 0.72)" />
                        </g>
                        <g id="x14huvsg" class="stem">
                           <path d="M15654 3850 L15654 3248" stroke-width="18" />
                        </g>
                     </g>
                     <g id="note-0000001074222334" class="note">
                        <g class="notehead">
                           <use xlink:href="#E0A4-oshl09i" transform="translate(16163, 3788) scale(0.72, 0.72)" />
                        </g>
                        <g id="y582pwb" class="stem">
                           <path d="M16172 3816 L16172 4388" stroke-width="18" />
                        </g>
                        <g id="n1u7jhoo" class="accid" />
                     </g>
                  </g>
               </g>
               <g id="dw9nrlo" class="barLine">
                  <path d="M16889 3428 L16889 4148" stroke-width="27" />
               </g>
            </g>
            <g id="measure-0000000129837174" class="measure">
               <g id="staff-0000000468077436" class="staff">
                  <path d="M16902 3428 L20001 3428" stroke-width="13" />
                  <path d="M16902 3608 L20001 3608" stroke-width="13" />
                  <path d="M16902 3788 L20001 3788" stroke-width="13" />
                  <path d="M16902 3968 L20001 3968" stroke-width="13" />
                  <path d="M16902 4148 L20001 4148" stroke-width="13" />
                  <g id="layer-0000000007318022" class="layer">
                     <g id="note-0000001917776991" class="note">
                        <g class="notehead">
                           <use xlink:href="#E0A4-oshl09i" transform="translate(17083, 3968) scale(0.72, 0.72)" />
                        </g>
                        <g id="z1ib5mbk" class="stem">
                           <path d="M17300 3940 L17300 3338" stroke-width="18" />
                        </g>
                     </g>
                     <g id="note-0000000087857274" class="note">
                        <g class="notehead">
                           <use xlink:href="#E0A4-oshl09i" transform="translate(17810, 4058) scale(0.72, 0.72)" />
                        </g>
                        <g id="a8z7umt" class="stem">
                           <path d="M18027 4030 L18027 3428" stroke-width="18" />
                        </g>
                        <g id="accid-0000001634950074" class="accid">
                           <use xlink:href="#E262-oshl09i" transform="translate(17624, 4058) scale(0.72, 0.72)" />
                        </g>
                     </g>
                     <g id="note-0000000443643298" class="note">
                        <g class="notehead">
                           <use xlink:href="#E0A4-oshl09i" transform="translate(18536, 3968) scale(0.72, 0.72)" />
                        </g>
                        <g id="b1jloq77" class="stem">
                           <path d="M18753 3940 L18753 3338" stroke-width="18" />
                        </g>
                     </g>
                     <g id="note-0000000812967169" class="note">
                        <g class="notehead">
                           <use xlink:href="#E0A4-oshl09i" transform="translate(19262, 3968) scale(0.72, 0.72)" />
                        </g>
                        <g id="cj95m2t" class="stem">
                           <path d="M19479 3940 L19479 3338" stroke-width="18" />
                        </g>
                     </g>
                  </g>
               </g>
               <g id="fermata-0000002013823353" class="fermata">
                  <use xlink:href="#E4C0-oshl09i" transform="translate(18433, 3282) scale(0.72, 0.72)" />
               </g>
               <g id="w1c03yh2" class="barLine">
                  <path d="M19988 3428 L19988 4148" stroke-width="27" />
               </g>
            </g>
         </g>
         <g id="h275ls4" class="system">
            <g id="measure-0000000794179580" class="measure">
               <g id="wy8k6l3" class="mNum autogenerated">
                  <text y="5345" text-anchor="middle" font-size="0px">
                     <tspan id="xout77k" class="text">
                        <tspan font-size="324px">13</tspan>
                     </tspan>
                  </text>
               </g>
               <g id="staff-0000000737961334" class="staff">
                  <path d="M0 5588 L4052 5588" stroke-width="13" />
                  <path d="M0 5768 L4052 5768" stroke-width="13" />
                  <path d="M0 5948 L4052 5948" stroke-width="13" />
                  <path d="M0 6128 L4052 6128" stroke-width="13" />
                  <path d="M0 6308 L4052 6308" stroke-width="13" />
                  <g id="p16wqc8m" class="clef">
                     <use xlink:href="#E050-oshl09i" transform="translate(90, 6128) scale(0.72, 0.72)" />
                  </g>
                  <g id="q17c7xd9" class="keySig">
                     <g id="r4fzid1" class="keyAccid">
                        <use xlink:href="#E260-oshl09i" transform="translate(735, 5948) scale(0.72, 0.72)" />
                     </g>
                  </g>
                  <g id="layer-0000000161278180" class="layer">
                     <g id="note-0000001066464016" class="note">
                        <g class="notehead">
                           <use xlink:href="#E0A4-oshl09i" transform="translate(1147, 5768) scale(0.72, 0.72)" />
                        </g>
                        <g id="dw3logz" class="stem">
                           <path d="M1156 5796 L1156 6398" stroke-width="18" />
                        </g>
                     </g>
                     <g id="note-0000000228362448" class="note">
                        <g class="notehead">
                           <use xlink:href="#E0A4-oshl09i" transform="translate(1870, 5948) scale(0.72, 0.72)" />
                        </g>
                        <g id="e1l5ud7c" class="stem">
                           <path d="M1879 5976 L1879 6548" stroke-width="18" />
                        </g>
                        <g id="sj7jnx1" class="accid" />
                     </g>
                     <g id="note-0000001501222754" class="note">
                        <g class="notehead">
                           <use xlink:href="#E0A4-oshl09i" transform="translate(2593, 5858) scale(0.72, 0.72)" />
                        </g>
                        <g id="ftbm1zu" class="stem">
                           <path d="M2602 5886 L2602 6488" stroke-width="18" />
                        </g>
                     </g>
                     <g id="note-0000000213968593" class="note">
                        <g class="notehead">
                           <use xlink:href="#E0A4-oshl09i" transform="translate(3316, 5768) scale(0.72, 0.72)" />
                        </g>
                        <g id="g1seyicq" class="stem">
                           <path d="M3325 5796 L3325 6398" stroke-width="18" />
                        </g>
                     </g>
                  </g>
               </g>
               <g id="n1v2wtwh" class="barLine">
                  <path d="M4039 5588 L4039 6308" stroke-width="27" />
               </g>
            </g>
            <g id="measure-0000000502580664" class="measure">
               <g id="staff-0000002039756465" class="staff">
                  <path d="M4052 5588 L6791 5588" stroke-width="13" />
                  <path d="M4052 5768 L6791 5768" stroke-width="13" />
                  <path d="M4052 5948 L6791 5948" stroke-width="13" />
                  <path d="M4052 6128 L6791 6128" stroke-width="13" />
                  <path d="M4052 6308 L6791 6308" stroke-width="13" />
                  <g id="layer-0000001651009201" class="layer">
                     <g id="note-0000001667829401" class="note">
                        <g class="notehead">
                           <use xlink:href="#E0A4-oshl09i" transform="translate(4232, 5858) scale(0.72, 0.72)" />
                        </g>
                        <g id="h37aw3i" class="stem">
                           <path d="M4241 5886 L4241 6488" stroke-width="18" />
                        </g>
                     </g>
                     <g id="note-0000001505009316" class="note">
                        <g class="notehead">
                           <use xlink:href="#E0A4-oshl09i" transform="translate(4955, 5948) scale(0.72, 0.72)" />
                        </g>
                        <g id="i1m3ozmi" class="stem">
                           <path d="M4964 5976 L4964 6548" stroke-width="18" />
                        </g>
                        <g id="if34plb" class="accid" />
                     </g>
                     <g id="note-0000000376057527" class="note">
                        <g class="notehead">
                           <use xlink:href="#E0A3-oshl09i" transform="translate(5678, 6038) scale(0.72, 0.72)" />
                        </g>
                        <g id="jvul65m" class="stem">
                           <path d="M5895 6010 L5895 5408" stroke-width="18" />
                        </g>
                     </g>
                  </g>
               </g>
               <g id="d81mton" class="barLine">
                  <path d="M6778 5588 L6778 6308" stroke-width="27" />
               </g>
            </g>
            <g id="measure-0000000181740878" class="measure">
               <g id="staff-0000000489342864" class="staff">
                  <path d="M6791 5588 L8550 5588" stroke-width="13" />
                  <path d="M6791 5768 L8550 5768" stroke-width="13" />
                  <path d="M6791 5948 L8550 5948" stroke-width="13" />
                  <path d="M6791 6128 L8550 6128" stroke-width="13" />
                  <path d="M6791 6308 L8550 6308" stroke-width="13" />
                  <g id="layer-0000001283686403" class="layer">
                     <g id="note-0000001284054805" class="note">
                        <g class="notehead">
                           <use xlink:href="#E0A3-oshl09i" transform="translate(6971, 6038) scale(0.72, 0.72)" />
                        </g>
                        <g id="l178swin" class="dots">
                           <ellipse cx="7287" cy="6038" rx="36" ry="36" fill-opacity="1" stroke-opacity="1" />
                        </g>
                        <g id="k1208ofq" class="stem">
                           <path d="M7188 6010 L7188 5408" stroke-width="18" />
                        </g>
                     </g>
                  </g>
               </g>
               <g id="fermata-0000001940304078" class="fermata">
                  <use xlink:href="#E4C0-oshl09i" transform="translate(6868, 5352) scale(0.72, 0.72)" />
               </g>
               <g id="s1f8630u" class="barLine">
                  <path d="M8375 5588 L8375 6308" stroke-width="27" />
                  <path d="M8505 5588 L8505 6308" stroke-width="90" />
               </g>
            </g>
            <g id="e1uswscd" class="systemMilestoneEnd section-0000001468343397" />
         </g>
         <g id="fpox5ry" class="pageMilestoneEnd score-0000001272574010" />
         <g id="g15812vn" class="pageMilestoneEnd mdiv-0000000552917014" />
         <g id="n806pwa" class="pgHead autogenerated">
            <text font-size="0px">
               <tspan id="o1jmhctp" class="rend" x="10000" y="416" text-anchor="middle">
                  <title class="labelAttr">title</title>
                  <tspan id="p1ag3809" class="rend">
                     <tspan id="qwcbapq" class="text">
                        <tspan font-size="607px">Bach - Cantata BWV 2, Movement 6, Soprano</tspan>
                     </tspan>
                  </tspan>
               </tspan>
            </text>
         </g>
         <g id="h3l41dq" class="pgFoot autogenerated">
            <g id="iqq7iv4" class="fig">
               <g class="svg" transform="translate(7750, 28099) scale(10.000000, 10.000000)">
                  <g>
                     <path fill="#00000" d="M 17.11278,49.26451 V 10.367554 h 12.696511 c 3.288815,7.336676 6.71267,14.610456 10.127281,21.888976 3.419998,-7.484684 6.255515,-14.204887 9.58887,-21.909915 2.436207,0.103726 4.316952,0.08453 6.484294,-0.05808 V 49.264423 H 50.274275 C 50.145222,38.35639 50.016136,27.448368 49.887066,16.540329 45.003488,27.315459 39.967448,38.433564 35.083854,49.208695 34.678996,49.343717 34.426583,49.135619 34.021726,49.270644 29.46588,39.330716 24.910049,29.390805 20.354201,19.450876 20.224341,29.388756 20.09461,39.326619 19.964815,49.264497 H 17.11278 Z M 36.754144,39.324695 C 32.721221,30.512695 28.6883,21.700679 24.655394,12.888662 22.530527,12.750737 22.656775,12.71031 20.714356,12.813974 v 0.966497 c 4.612938,9.99784 9.609439,20.748709 13.87298,30.081745 0.722248,-1.512523 1.444528,-3.025014 2.166808,-4.537521 z m 25.738417,9.939815 c 0,-12.965651 0,-25.931305 0,-38.896956 10.084388,0 20.168791,0 30.253178,0 0,0.960416 0,1.920849 0,2.881265 -6.482825,0 -12.965652,0 -19.448478,0 0,4.802097 0,9.604178 0,14.406277 5.52241,0 11.044819,0 16.567229,0 0,0.960415 0,1.920832 0,2.881248 -5.52241,0 -11.044819,0 -16.567229,0 0,5.282306 0,10.564611 0,15.846917 6.963035,0 13.926068,0 20.889103,0 0,0.960416 0,1.920832 0,2.881249 -10.564597,0 -21.129207,0 -31.693803,0 z m 4.321874,-2.160937 c 0,-11.765131 0,-23.530263 0,-35.295394 -0.720312,0 -1.440625,0 -2.160937,0 0,11.765131 0,23.530263 0,35.295394 0.720312,0 1.440625,0 2.160937,0 z m 32.41413,2.160937 c 0,-12.965651 0,-25.931305 0,-38.896956 2.401045,0 4.802095,0 7.203135,0 0,12.965651 0,25.931305 0,38.896956 -2.40104,0 -4.80209,0 -7.203135,0 z m 2.881265,-2.160937 c 0,-11.765131 0,-23.530263 0,-35.295394 -0.72031,0 -1.44064,0 -2.160953,0 0,11.765131 0,23.530263 0,35.295394 0.720313,0 1.440643,0 2.160953,0 z" />
                     <path fill="#00000" d="m 346.3,6.7 c -3.1,0.5 -4.9,4.4 -2.7,6.8 1.2,1.4 2.7,2.4 4.1,3.5 -2.4,5.3 -7.7,8.3 -11.9,12.1 -3.7,2.8 -7,6.2 -9.7,9.9 -2.2,-0.8 -0.91472,-7.718806 -0.62677,-9.5 0.28796,-1.781194 0.72677,-6.4 2.92677,-8.7 1.3,-1.9 3,-3.5 4.5,-5.2 1.2,-3.4 -3.2,-4.9 -5.8,-4.6 -7.3,-0.5 -14.6,2 -20,6.8 -5,4.6 -10,10.1 -11.5,17 -0.9,3.5 -0.2,7.5 2.8,9.9 2.5,2.8 7.4,2.9 9.8,-0.2 1.7,-2.3 3.2,-4.8 3.8,-7.6 -0.1,-2.6 -4.4,-2.3 -4.3,0.2 1.2,2.4 -0.9,4.7 -2.7,6.2 -1.7,0.9 -4.7,0.7 -4.8,-1.7 -1,-5.8 2.1,-11.3 5.2,-16.1 4,-5.8 9.8,-11.2 17.2,-11.8 1.6,0 8.1,-1.2 6.8,1.4 -2.8,2.8 -5.6,6.1 -6,10.3 -1.6,7.7 0.1,15.7 -2.3,23.2 -1.1,3.9 2,2.6 2.5,0.2 3.3,-7.4 8.9,-13.4 15.1,-18.5 4.2,-3.9 9.5,-7.1 11.9,-12.6 1.3,-3.6 1.2,-9 -2.7,-10.9 -0.50431,-0.1767056 -1.06965,-0.1654404 -1.6,-0.1 z m 66,14.5 c -2,0.8 -1.8,4.9 0.8,4.4 3.4,0.4 2.9,-6.2 -0.8,-4.4 z m 0.6,7.3 c -1.3,0.5 -7.6,0.5 -5.4,2.2 4,-0.3 0.7,4.5 0.6,6.7 -0.4,2.9 -2.4,5.9 -1.2,8.8 2.7,1.7 5.6,-0.8 6.8,-3.2 1.6,-1.4 -0.5,-3 -1.2,-0.9 -0.4,0.8 -2.4,3.5 -2.6,1.8 1.1,-5 2.7,-9.9 3.9,-14.9 l -0.1,-0.5 h -0.9 z m -65.1,0.2 c -6.5,1.6 -10.5,9.5 -8.2,15.7 2.1,3.4 7.4,2.9 10.1,0.4 2,-0.2 3.6,-5.3 1,-3.4 -1.4,2 -4,4.2 -6.5,2.8 -2.2,-1.9 -1.9,-5.7 1.7,-5.3 3.1,-0.9 6.9,-2.1 8.1,-5.5 0.9,-2.7 -1.6,-5.2 -4.3,-4.8 h -1.1 -0.7 z m 13.6,0 c -2.2,0 -8.5,1.8 -2.9,2.3 0.9,1.9 -1,4.9 -1.1,7.2 -0.5,2.9 -1.4,5.7 -1.7,8.7 3.7,0.7 3.8,-2.6 4.4,-5.3 0.9,-3.3 1.6,-7 4.1,-9.5 2.4,1.6 6.8,-0.7 3.7,-3.4 -2.9,-0.5 -4.8,2.4 -6.2,4.3 0,-1.2 2.4,-5 -0.2,-4.3 z m 15.8,0 c -6.4,1.3 -9.6,9.1 -7.7,14.9 1.9,4 7.7,3.9 11,1.7 4.1,-3 6,-8.9 4.4,-13.7 -1.3,-3 -4.8,-3.2 -7.6,-3 z m 17,0 c -2.3,0 -8.8,1.9 -3,2.4 0.4,2.5 -1,5.7 -1.4,8.4 -0.7,2.4 -1.8,7.5 2.1,7.2 3.8,-0.1 6.5,-3.5 8.5,-6.3 2,-3.2 4.5,-7 3.3,-10.9 -3.7,-3 -3.6,2.6 -3.1,5.1 -0.7,3.8 -2.7,7.9 -6.2,9.8 -3.6,0.6 -1,-4.3 -0.8,-6.1 0.6,-3.2 1.6,-6.3 1.9,-9.5 h -1.1 z m 30.6,0 c -6.3,1.2 -9.5,8.9 -7.8,14.7 1.5,4 7.2,4.2 10.5,2.4 4.6,-2.8 6.6,-9.3 4.8,-14.3 -1.4,-2.8 -4.8,-3 -7.5,-2.8 z m -75.4,1.7 c 2.1,1.5 0.2,4.7 -1.6,5.7 -1.1,0.4 -5.5,3.4 -4.6,0.7 0.8,-2.7 2.2,-6.2 5.3,-6.6 l 0.9,0.1 z m 30.8,0 c 2.6,1.5 1.3,5.2 0.8,7.6 -0.8,2.7 -1.9,5.9 -4.7,7.1 -5.1,0.8 -4,-5.8 -2.8,-8.8 1,-2.8 3,-6.8 6.7,-5.8 z m 47.1,-0.1 c 2.9,0.7 2,4.7 1.5,6.8 -0.7,3 -1.8,6.7 -5,8 -4.7,0.8 -4,-5.1 -3,-7.9 0.9,-3 2.7,-7.3 6.5,-6.8 z" />
                     <g>
                        <path d="m 116.56641,37.118164 q 0,-3.251953 2.92968,-6.298828 2.90039,-3.046875 5.99121,-3.046875 1.14258,0 1.81641,0.527344 0.67383,0.527343 0.67383,1.567382 0,2.109375 -2.47559,3.618165 -2.46093,1.49414 -5.18554,1.831054 l -0.83496,0.102539 q -0.19043,0.600586 -0.26368,0.966797 -0.0732,0.351563 -0.0732,0.893555 0,1.289062 0.83496,2.006836 0.84961,0.717773 2.00684,0.717773 1.09863,0 2.3291,-0.732422 0.70312,-0.424804 2.03613,-1.523437 l 0.38086,0.336914 q -0.65918,0.834961 -1.88965,1.713867 -2.18261,1.567383 -4.37988,1.567383 -1.55273,0 -2.72461,-1.098633 -1.17187,-1.098633 -1.17187,-3.149414 z m 3.12011,-2.358398 q 2.79786,-0.410157 4.55567,-1.962891 Q 126,31.229492 126,29.691406 q 0,-0.55664 -0.26367,-0.878906 -0.26367,-0.336914 -0.77637,-0.336914 -0.95215,0 -1.875,0.820312 -0.9082,0.805664 -1.64062,1.831055 -0.77637,1.201172 -1.23047,2.299805 -0.24903,0.585937 -0.52735,1.333008 z" />
                        <path d="m 129.47168,41 2.53418,-9.052734 q 0.32226,-1.142579 0.36621,-1.376954 0.0586,-0.249023 0.0586,-0.527343 0,-0.424805 -0.24902,-0.65918 -0.23437,-0.249023 -0.9375,-0.249023 -0.17578,0 -0.35156,0.0293 -0.16113,0.01465 -0.36621,0.04395 v -0.498047 q 0.95215,-0.146484 1.34765,-0.219727 0.41016,-0.07324 0.87891,-0.175781 l 2.62207,-0.571289 q 0.0879,0.05859 0.11719,0.131836 l -1.94824,6.298828 q 1.7871,-2.739258 2.98828,-4.072266 2.10937,-2.358398 3.77929,-2.358398 0.64453,0 1.11328,0.249023 0.89356,0.483399 0.89356,1.743165 0,0.351562 -0.0732,0.732421 -0.0732,0.38086 -0.19043,0.820313 l -1.91895,7.016601 q -0.0586,0.219727 -0.13183,0.541993 -0.0733,0.307617 -0.0733,0.439453 0,0.219726 0.10254,0.395508 0.10254,0.175781 0.33692,0.175781 0.38086,0 0.8789,-0.439453 0.49805,-0.454102 1.62598,-1.918946 l 0.4248,0.38086 q -1.20117,1.625976 -1.90429,2.285156 -1.20117,1.157227 -2.29981,1.157227 -0.49804,0 -0.96679,-0.322266 -0.45411,-0.336914 -0.45411,-1.201172 0,-0.249023 0.0293,-0.527344 0.0439,-0.27832 0.10254,-0.483398 l 1.8457,-7.119141 q 0.14649,-0.585937 0.19043,-0.952148 0.0586,-0.38086 0.0586,-0.541992 0,-0.351563 -0.17578,-0.600586 -0.16114,-0.263672 -0.58594,-0.263672 -1.09863,0 -2.76856,1.992187 -0.98144,1.186524 -1.99218,2.827149 -0.77637,1.274414 -1.23047,2.490234 Q 132.70898,37.821289 131.74219,41 Z" />
                        <path d="m 149.12988,33.5 q 0,0.908203 0.27832,1.450195 0.46875,0.893555 1.68457,0.893555 1.31836,0 2.34375,-1.669922 1.04004,-1.68457 1.04004,-3.706055 0,-0.966796 -0.4248,-1.508789 -0.42481,-0.55664 -1.27442,-0.55664 -1.64062,0 -2.65136,1.743164 -0.9961,1.743164 -0.9961,3.354492 z m 0.5127,13.066406 q 1.74316,0 2.88574,-0.834961 1.15723,-0.834961 1.15723,-1.992187 0,-0.878906 -0.60059,-1.479492 -0.32226,-0.322266 -1.04004,-0.688477 -0.60058,-0.292969 -2.03613,-0.834961 -1.4209,-0.556641 -1.64063,-0.556641 -0.38086,0 -1.47949,1.010743 -1.09863,1.02539 -1.09863,2.314453 0,1.948242 1.68457,2.680664 0.87891,0.380859 2.16797,0.380859 z m -5.47852,-2.680664 q 0,-1.098633 0.83496,-2.094726 0.84961,-0.981446 2.68067,-1.962891 -0.36621,-0.234375 -0.60059,-0.483398 -0.23437,-0.263672 -0.23437,-0.688477 0,-0.600586 0.83496,-1.376953 0.46875,-0.439453 1.52343,-1.157227 -0.9375,-0.351562 -1.61132,-0.996093 -0.82032,-0.864258 -0.82032,-2.241211 0,-2.211914 1.72852,-3.676758 1.72852,-1.464844 4.27734,-1.464844 1.33301,0 2.25586,0.424805 0.92285,0.410156 1.08399,0.688476 h 1.97754 v 1.171875 h -1.49414 q 0.0879,0.322266 0.13183,0.585938 0.0439,0.263672 0.0439,0.74707 0,2.373047 -1.84571,3.735352 -1.83105,1.362304 -3.95507,1.362304 -0.21973,0 -0.41016,-0.01465 -0.19043,-0.0293 -0.46875,-0.08789 -0.21973,0 -0.60059,0.424805 -0.3955,0.424805 -0.3955,0.761719 0,0.498047 3.22265,1.699218 3.20801,1.215821 3.20801,3.559571 0,1.757812 -1.61133,3.076172 -1.61133,1.333007 -4.86328,1.333007 -2.25586,0 -3.57422,-0.966796 -1.31836,-0.966797 -1.31836,-2.358399 z" />
                        <path d="m 165.03809,27.669922 q 0.13183,0 0.17578,0.08789 0.0586,0.07324 0.0586,0.175782 -0.0146,0.146484 -0.0293,0.219726 l -1.46484,5.668946 0.32227,-0.629883 q 1.05468,-2.06543 2.46093,-3.764649 1.4209,-1.713867 2.69532,-1.713867 0.68847,0 1.05468,0.454102 0.38086,0.454101 0.38086,1.040039 0,0.659179 -0.38086,1.098633 -0.36621,0.424804 -1.02539,0.424804 -0.4541,0 -0.68847,-0.175781 -0.23438,-0.175781 -0.36621,-0.410156 l -0.17579,-0.322266 q -0.0586,-0.08789 -0.14648,-0.131836 -0.0732,-0.05859 -0.19043,-0.05859 -0.57129,0 -1.65527,1.59668 -1.06934,1.59668 -1.91895,3.457031 -0.51269,1.12793 -1.14258,2.988282 Q 162.60645,38.84668 161.94727,41 h -2.25586 l 2.43164,-8.818359 q 0.20507,-0.761719 0.32226,-1.362305 0.13184,-0.600586 0.13184,-0.981445 0,-0.439454 -0.21973,-0.673829 -0.21972,-0.234375 -0.76172,-0.234375 -0.17578,0 -0.43945,0.0293 -0.26367,0.0293 -0.62988,0.07324 v -0.483399 l 0.58593,-0.117187 q 1.14258,-0.234375 2.49024,-0.498047 1.3623,-0.263672 1.43555,-0.263672 z" />
                        <path d="m 181.51758,30.423828 q 0,-1.054687 -0.4834,-1.552734 -0.4834,-0.498047 -1.17188,-0.498047 -2.38769,0 -4.43847,3.662109 -1.80176,3.222656 -1.80176,5.551758 0,1.171875 0.49805,1.713867 0.51269,0.527344 1.25976,0.527344 2.21192,0 4.2627,-3.55957 1.875,-3.237305 1.875,-5.844727 z m -1.83106,-2.709961 q 1.15723,0 1.78711,0.600586 0.33692,0.322266 0.52735,0.849609 l 0.0732,0.205079 0.32226,-1.113282 q 0.0586,-0.190429 0.10254,-0.249023 0.0439,-0.07324 0.20508,-0.08789 l 1.65527,-0.190429 q 0.13184,0 0.14649,0.05859 0.0293,0.04395 0,0.175782 -0.0586,0.190429 -0.0879,0.307617 -0.0293,0.102539 -0.0879,0.307617 l -1.34766,5.244141 q -0.43945,1.713867 -0.74707,2.958984 -0.54199,2.255859 -0.54199,2.578125 0,0.205078 0.10254,0.307617 0.11719,0.08789 0.27832,0.08789 0.13183,0 0.27832,-0.08789 0.16113,-0.08789 0.38086,-0.263672 l 0.24902,-0.205078 q 0.11719,-0.102539 0.26367,-0.234375 0.14649,-0.146484 0.35157,-0.351562 l 0.9082,-0.9375 0.35156,0.307617 q -1.52344,1.948242 -2.44629,2.651367 -0.92285,0.688477 -1.75781,0.688477 -0.54199,0 -0.84961,-0.38086 -0.29297,-0.380859 -0.29297,-0.952148 0,-0.527344 0.19043,-1.508789 0.20508,-0.996094 0.39551,-1.669922 -0.26367,0.439453 -0.89356,1.289062 -0.61523,0.834961 -1.52343,1.625977 -1.06934,0.952148 -2.05078,1.347656 -0.76172,0.263672 -1.46485,0.263672 -1.18652,0 -2.15332,-0.966797 -0.96679,-0.981445 -0.96679,-2.768555 0,-3.076171 2.7539,-6.416015 2.8418,-3.47168 5.88867,-3.47168 z" />
                        <path d="m 196.66406,27.772461 q 0.82031,0 1.25977,0.585937 0.43945,0.585938 0.43945,1.333008 0,1.977539 -3.91113,6.928711 -3.70606,4.702149 -4.43848,4.702149 -0.21972,0 -0.29297,-0.600586 -0.0439,-0.336914 -0.0439,-1.142578 0,-0.981446 -0.19043,-3.325196 -0.19043,-2.34375 -0.36621,-3.471679 -0.36621,-2.475586 -0.71778,-3.19336 -0.35156,-0.717773 -1.333,-0.717773 -0.16114,0 -0.38086,0.01465 -0.20508,0.01465 -0.4834,0.04395 v -0.380859 q 0.43945,-0.08789 1.8457,-0.395508 1.40625,-0.307617 1.49414,-0.336914 l 0.4834,-0.146484 q 0.20508,-0.05859 0.32227,0.234375 0.11718,0.27832 0.29296,1.054687 0.55665,2.548828 0.83497,5.024414 0.17578,1.538086 0.35156,4.555664 l 0.4834,-0.512695 q 1.50879,-1.59668 3.01757,-3.793945 1.50879,-2.197266 1.50879,-3.105469 0,-0.454101 -0.65918,-1.083984 -0.65918,-0.644532 -0.65918,-1.171875 0,-0.483399 0.32227,-0.791016 0.33691,-0.307617 0.82031,-0.307617 z" />
                        <path d="m 199.82812,37.118164 q 0,-3.251953 2.92969,-6.298828 2.90039,-3.046875 5.99121,-3.046875 1.14258,0 1.81641,0.527344 0.67383,0.527343 0.67383,1.567382 0,2.109375 -2.47559,3.618165 -2.46094,1.49414 -5.18555,1.831054 l -0.83496,0.102539 q -0.19043,0.600586 -0.26367,0.966797 -0.0732,0.351563 -0.0732,0.893555 0,1.289062 0.83496,2.006836 0.84961,0.717773 2.00684,0.717773 1.09863,0 2.3291,-0.732422 0.70312,-0.424804 2.03613,-1.523437 l 0.38086,0.336914 q -0.65918,0.834961 -1.88965,1.713867 -2.18262,1.567383 -4.37988,1.567383 -1.55274,0 -2.72461,-1.098633 -1.17188,-1.098633 -1.17188,-3.149414 z m 3.12012,-2.358398 q 2.79785,-0.410157 4.55567,-1.962891 1.75781,-1.567383 1.75781,-3.105469 0,-0.55664 -0.26367,-0.878906 -0.26368,-0.336914 -0.77637,-0.336914 -0.95215,0 -1.875,0.820312 -0.9082,0.805664 -1.64063,1.831055 -0.77636,1.201172 -1.23046,2.299805 -0.24903,0.585937 -0.52735,1.333008 z" />
                        <path d="m 215.23828,37.601562 q 0,0.893555 0.41016,1.567383 0.41015,0.65918 1.3916,0.65918 2.09473,0 4.02832,-3.369141 1.81641,-3.164062 1.81641,-5.991211 0,-0.893554 -0.29297,-1.479492 -0.29297,-0.585937 -1.18653,-0.585937 -2.22656,0 -4.30664,3.603515 -1.86035,3.222657 -1.86035,5.595703 z m 6.00586,-9.887695 q 1.15723,0 1.64063,0.556641 0.27832,0.322265 0.43945,1.098633 l 1.66992,-6.00586 q 0.0732,-0.249023 0.0879,-0.439453 0.0293,-0.205078 0.0293,-0.351562 0,-0.571289 -0.21973,-0.717774 -0.20508,-0.146484 -0.60058,-0.146484 -0.24903,0 -0.46875,0.01465 -0.20508,0.01465 -0.55665,0.04395 v -0.483399 q 1.65528,-0.219726 4.58497,-0.761719 l 0.13183,0.146485 -0.0293,0.161133 -2.8125,10.532226 -1.91894,6.972656 q -0.0586,0.234375 -0.10254,0.439453 -0.0293,0.19043 -0.0293,0.351563 0,0.395508 0.19043,0.512695 0.20508,0.117188 0.35157,0.117188 0.4248,0 1.20117,-0.747071 0.4541,-0.454101 1.24511,-1.40625 l 0.33692,0.322266 -0.20508,0.307617 q -0.54199,0.805664 -1.3916,1.640625 -1.50879,1.479492 -2.70996,1.479492 -0.39551,0 -0.71778,-0.175781 -0.60058,-0.351562 -0.60058,-1.259765 0,-0.307618 0.0879,-0.981446 0.0879,-0.673828 0.26367,-1.464843 -1.11328,1.699218 -2.44629,2.783203 -1.31836,1.083984 -2.88574,1.083984 -1.27441,0 -2.22656,-0.908203 -0.95215,-0.908203 -0.95215,-2.797852 0,-3.193359 2.92969,-6.5625 2.91504,-3.354492 5.68359,-3.354492 z" />
                        <path d="m 254.12988,29.530273 q 0,1.230469 -1.18652,3.251954 -0.65918,1.127929 -1.86035,2.739257 -1.23047,1.655274 -2.53418,3.266602 -2.06543,2.548828 -2.43164,2.548828 -0.16114,0 -0.20508,-0.131836 -0.044,-0.131836 -0.11719,-0.893555 l -0.86426,-9.125976 -6.0791,9.960937 q -0.0439,0.08789 -0.11719,0.117188 -0.0586,0.0293 -0.13183,0.0293 l -0.20508,-0.04395 -0.0293,-0.131836 -0.17578,-3.618164 q -0.0586,-1.21582 -0.17578,-2.504882 -0.10254,-1.303711 -0.20508,-2.25586 -0.30761,-2.651367 -0.65918,-3.251953 -0.33691,-0.600586 -1.25976,-0.600586 -0.17578,0 -0.35156,0.01465 -0.17579,0 -0.36622,0.0293 v -0.424804 q 0.60059,-0.102539 1.14258,-0.219727 0.55664,-0.117187 1.21582,-0.263672 l 1.37696,-0.351562 q 0.49804,0 1.01074,4.174805 0.27832,2.285156 0.49805,5.200195 l 5.75683,-9.09668 q 0.0586,-0.117187 0.14649,-0.19043 0.0879,-0.08789 0.20507,-0.08789 0.13184,0 0.17578,0.08789 0.0439,0.08789 0.0586,0.263672 l 0.98144,10.590821 q 0.10254,-0.131836 1.62598,-2.06543 1.52344,-1.948242 1.59668,-2.06543 1.09863,-1.582031 1.46484,-2.446289 0.23438,-0.55664 0.23438,-1.083984 0,-0.205078 -0.0586,-0.38086 -0.0586,-0.190429 -0.27833,-0.395507 L 251.87402,29.75 q -0.19043,-0.19043 -0.33691,-0.410156 -0.13184,-0.234375 -0.13184,-0.541992 0,-0.366211 0.24903,-0.747071 0.26367,-0.380859 0.9375,-0.380859 0.54199,0 1.04004,0.439453 0.49804,0.424805 0.49804,1.420898 z" />
                        <path d="m 261.17578,24.520508 q -0.60058,0 -1.02539,-0.46875 -0.4248,-0.46875 -0.4248,-1.12793 0,-0.673828 0.4248,-1.142578 0.42481,-0.46875 1.02539,-0.46875 0.60059,0 1.02539,0.46875 0.43945,0.46875 0.43945,1.142578 0,0.673828 -0.43945,1.142578 -0.4248,0.454102 -1.02539,0.454102 z m 0.35156,3.208008 q 0.0879,0.04395 0.0733,0.117187 l -2.95899,10.458984 q -0.20508,0.834961 -0.20508,0.996094 0,0.219727 0.0879,0.38086 0.0733,0.175781 0.36621,0.175781 0.49805,0 1.31836,-0.864258 0.4834,-0.512695 1.18653,-1.464844 l 0.38086,0.322266 -0.14649,0.205078 q -1.09863,1.538086 -1.8164,2.211914 -1.12793,1.054688 -2.19727,1.054688 -0.62988,0 -1.05469,-0.527344 -0.41015,-0.527344 -0.41015,-1.245117 0,-0.424805 0.0586,-0.732422 0.0586,-0.322266 0.21973,-0.9375 l 2.05078,-7.529297 q 0.0439,-0.175781 0.0732,-0.322266 0.0293,-0.146484 0.0293,-0.292968 0,-0.527344 -0.39551,-0.644532 -0.38086,-0.131836 -1.52344,-0.131836 v -0.483398 q 1.21582,-0.146484 1.74317,-0.219727 0.54199,-0.08789 1.08398,-0.175781 0.70313,-0.117187 1.33301,-0.263672 0.62988,-0.146484 0.70312,-0.08789 z" />
                        <path d="m 264.17871,40.033203 q 0,-0.117187 0.0146,-0.263672 0.0147,-0.161133 0.0586,-0.322265 l 2.75391,-10.239258 h -2.22656 q 0,-0.395508 0.0586,-0.498047 0.0586,-0.102539 0.29297,-0.205078 1.47949,-0.629883 2.28516,-1.215821 0.82031,-0.585937 2.22656,-2.255859 l 0.23437,-0.27832 q 0.0439,-0.05859 0.10254,-0.08789 0.0732,-0.04395 0.14649,-0.04395 0.14648,0.0293 0.20507,0.05859 0.0439,0.102539 0.0439,0.190429 0.0147,0.07324 0,0.161133 l -0.83496,3.193359 h 2.38769 l -0.17578,0.981446 h -2.49023 l -2.63672,9.858398 q -0.0732,0.263672 0.0439,0.512696 0.11718,0.234375 0.3955,0.234375 0.38086,0 1.06934,-0.761719 0.39551,-0.410156 1.33301,-1.625977 l 0.38086,0.219727 -0.20508,0.307617 q -1.25977,1.889648 -2.22656,2.636719 -0.95215,0.732422 -1.81641,0.732422 -0.74707,0 -1.08399,-0.395508 -0.33691,-0.395508 -0.33691,-0.893555 z" />
                        <path d="m 274.69629,21.356445 q 0.9375,-0.131836 1.50879,-0.205078 0.58594,-0.08789 1.01074,-0.161133 1.72852,-0.336914 1.86035,-0.366211 0.13184,-0.0293 0.20508,-0.0293 0.17578,0.08789 0.17578,0.219726 l -3.44238,13.081055 q 1.8457,-2.72461 3.01758,-3.984375 2.05078,-2.167969 3.76464,-2.167969 0.70313,0 1.34766,0.454102 0.65918,0.439453 0.65918,1.596679 0,0.278321 -0.0732,0.717774 -0.0732,0.439453 -0.17578,0.776367 l -1.97754,7.016601 q -0.0879,0.292969 -0.14649,0.57129 -0.0586,0.263671 -0.0586,0.483398 0,0.249023 0.11719,0.380859 0.11719,0.117188 0.33691,0.117188 0.4541,0 1.06934,-0.629883 0.38086,-0.395508 1.4209,-1.728516 l 0.38086,0.351563 q -1.0254,1.523437 -1.74317,2.226562 -1.27441,1.245118 -2.56348,1.245118 -0.58593,0 -0.98144,-0.366211 -0.39551,-0.366211 -0.39551,-1.054688 0,-0.19043 0.0147,-0.351562 0.0293,-0.175782 0.0879,-0.38086 l 2.25586,-8.583984 q 0.0293,-0.117188 0.0439,-0.234375 0.0293,-0.131836 0.0293,-0.263672 0,-0.366211 -0.21972,-0.571289 -0.23438,-0.205078 -0.60059,-0.205078 -0.98145,0 -2.47559,1.582031 -1.49414,1.567383 -2.51953,3.208008 -0.70312,1.157226 -1.06933,2.182617 Q 275.20898,37.308594 274.18359,41 h -2.2705 l 4.6875,-17.768555 q 0.0439,-0.190429 0.0586,-0.322265 0.0147,-0.131836 0.0147,-0.249024 0,-0.629883 -0.41016,-0.74707 -0.41015,-0.131836 -1.56738,-0.07324 z" />
                     </g>
                  </g>
               </g>
            </g>
         </g>
      </g>
   </svg>
</svg>
