<svg width="2100px" height="2970px" version="1.1" xmlns="http://www.w3.org/2000/svg" xmlns:xlink="http://www.w3.org/1999/xlink" overflow="visible" id="y5gx1mg">
   <desc>Engraved by Verovio 5.6.0-85e7620</desc>
   <defs>
      <g id="E050-y5gx1mg">
         <path transform="scale(1,-1)" d="M441 -245c-23 -4 -48 -6 -76 -6c-59 0 -102 7 -130 20c-88 42 -150 93 -187 154c-26 44 -43 103 -48 176c0 6 -1 13 -1 19c0 54 15 111 45 170c29 57 65 106 110 148s96 85 153 127c-3 16 -8 46 -13 92c-4 43 -5 73 -5 89c0 117 16 172 69 257c34 54 64 82 89 82 c21 0 43 -30 69 -92s39 -115 41 -159v-15c0 -109 -21 -162 -67 -241c-13 -20 -63 -90 -98 -118c-13 -9 -25 -19 -37 -29l31 -181c8 1 18 2 28 2c58 0 102 -12 133 -35c59 -43 92 -104 98 -184c1 -7 1 -15 1 -22c0 -123 -87 -209 -181 -248c8 -57 17 -110 25 -162 c5 -31 6 -58 6 -80c0 -30 -5 -53 -14 -70c-35 -64 -88 -99 -158 -103c-5 0 -11 -1 -16 -1c-37 0 -72 10 -108 27c-50 24 -77 59 -80 105v11c0 29 7 55 20 76c18 28 45 42 79 44h6c49 0 93 -42 97 -87v-9c0 -51 -34 -86 -105 -106c17 -24 51 -36 102 -36c62 0 116 43 140 85 c9 16 13 41 13 74c0 20 -1 42 -5 67c-8 53 -18 106 -26 159zM461 939c-95 0 -135 -175 -135 -286c0 -24 2 -48 5 -71c50 39 92 82 127 128c40 53 60 100 60 140v8c-4 53 -22 81 -55 81h-2zM406 119l54 -326c73 25 110 78 110 161c0 7 0 15 -1 23c-7 95 -57 142 -151 142h-12 zM382 117c-72 -2 -128 -47 -128 -120v-7c2 -46 43 -99 75 -115c-3 -2 -7 -5 -10 -10c-70 33 -116 88 -123 172v11c0 68 44 126 88 159c23 17 49 29 78 36l-29 170c-21 -13 -52 -37 -92 -73c-50 -44 -86 -84 -109 -119c-45 -69 -67 -130 -67 -182v-13c5 -68 35 -127 93 -176 s125 -73 203 -73c25 0 50 3 75 9c-19 111 -36 221 -54 331z" />
      </g>
      <g id="E260-y5gx1mg">
         <path transform="scale(1,-1)" d="M20 110c32 16 54 27 93 27c26 0 35 -3 54 -13c13 -7 24 -20 27 -38l4 -25c0 -28 -16 -57 -45 -89c-23 -25 -39 -44 -65 -68l-88 -79v644h20v-359zM90 106c-32 0 -48 -10 -70 -29v-194c31 31 54 59 71 84c21 32 32 59 32 84c0 9 1 16 1 20c0 14 -3 21 -11 30l-8 3z" />
      </g>
      <g id="E0A4-y5gx1mg">
         <path transform="scale(1,-1)" d="M0 -39c0 68 73 172 200 172c66 0 114 -37 114 -95c0 -84 -106 -171 -218 -171c-64 0 -96 30 -96 94z" />
      </g>
      <g id="E0A3-y5gx1mg">
         <path transform="scale(1,-1)" d="M278 64c0 22 -17 39 -43 39c-12 0 -26 -3 -41 -10c-85 -43 -165 -94 -165 -156c5 -25 15 -32 49 -32c67 11 200 95 200 159zM0 -36c0 68 73 174 200 174c66 0 114 -39 114 -97c0 -84 -106 -173 -218 -173c-64 0 -96 32 -96 96z" />
      </g>
      <g id="E4E5-y5gx1mg">
         <path transform="scale(1,-1)" d="M107 292c-13 24 -30 49 -52 71c-1 1 0 2 0 3l-2 2c3 3 4 4 6 4c12 0 26 -7 40 -20s44 -40 89 -81c26 -24 28 -29 46 -47c4 -4 8 -9 10 -14c6 -8 8 -16 8 -27c0 -19 -12 -40 -36 -61c-28 -23 -49 -38 -61 -73c-4 -11 -7 -27 -10 -50c13 -43 34 -83 59 -121 c31 -47 59 -79 101 -129c-8 0 -26 7 -54 20l-62 29l-21 6l-23 1c-25 0 -45 -10 -60 -30l-4 -14l-1 -12c0 -33 20 -56 39 -78c8 -9 17 -18 26 -26c17 -15 27 -24 28 -30l-3 -3c-11 5 -19 10 -25 15c-9 3 -37 21 -45 26c-24 14 -45 32 -63 51c-19 21 -37 44 -37 71 c0 63 27 95 80 95c41 0 86 -18 136 -52c-19 26 -37 48 -55 66c-23 23 -48 44 -73 65c-28 23 -47 40 -58 53s-17 26 -18 39c75 64 113 125 113 183c0 27 -7 48 -18 68z" />
      </g>
      <g id="E07C-y5gx1mg">
         <path transform="scale(1,-1)" d="M509 -105c0 28 22 51 50 51s51 -23 51 -51s-23 -51 -51 -51s-50 23 -50 51zM509 105c0 28 22 51 50 51s51 -23 51 -51s-23 -51 -51 -51s-50 23 -50 51zM138 84c43 0 63 -11 77 -43l14 -34c0 -16 -2 -27 -6 -35c-2 -9 -8 -17 -17 -27c-22 -24 -49 -38 -73 -38 c-43 0 -63 8 -98 39c-20 18 -31 47 -31 87c0 34 9 65 28 98c26 45 62 69 120 81l32 6l22 1c125 0 203 -51 240 -159c10 -30 15 -61 15 -93c0 -83 -19 -154 -59 -219c-70 -115 -185 -194 -360 -251l-26 -5c-8 0 -13 3 -13 7c2 7 3 8 9 14c47 20 66 30 84 39l68 37 c89 53 143 125 172 226c13 48 17 60 20 87c3 19 4 31 5 34c-5 51 -12 95 -20 123c-8 30 -5 22 -14 35c-6 9 -14 17 -27 29c-29 26 -64 39 -103 39c-44 0 -75 -8 -99 -25c-24 -16 -37 -38 -37 -64v-14c2 -4 3 -7 4 -9c25 23 49 34 73 34z" />
      </g>
      <g id="E062-y5gx1mg">
         <path transform="scale(1,-1)" d="M582 -120c0 32 26 58 58 58s58 -26 58 -58s-26 -58 -58 -58s-58 26 -58 58zM582 120c0 32 26 58 58 58s58 -26 58 -58s-26 -58 -58 -58s-58 26 -58 58zM158 96c51 0 73 -14 88 -49l16 -39c0 -17 -2 -30 -7 -40c-3 -11 -10 -21 -19 -31c-17 -18 -49 -43 -84 -43 c-55 0 -77 13 -112 44c-24 21 -35 55 -35 100c0 46 14 81 32 112c30 52 71 79 137 93l36 6l26 2c154 0 235 -68 274 -182c11 -32 18 -68 18 -107c0 -103 -26 -182 -68 -250c-89 -145 -234 -230 -412 -288l-30 -5c-9 0 -14 3 -14 8c3 10 5 11 10 16c35 15 70 30 96 44l78 43 c96 57 162 136 197 258c9 33 17 60 22 100c3 22 5 35 6 39c-7 69 -16 115 -23 140s-4 22 -16 40c-8 12 -19 23 -31 34c-24 21 -62 44 -118 44c-48 0 -84 -8 -113 -28c-28 -19 -42 -44 -42 -73v-16c2 -5 3 -9 4 -11c24 22 52 39 84 39z" />
      </g>
   </defs>
   <style type="text/css">#y5gx1mg g.page-margin {font-family:Times,serif;}#y5gx1mg g.ending, #y5gx1mg g.fing, #y5gx1mg g.reh, #y5gx1mg g.tempo {font-weight:bold;}#y5gx1mg g.dir, #y5gx1mg g.dynam, #y5gx1mg g.mNum {font-style:italic;}#y5gx1mg g.label {font-weight:normal;}#y5gx1mg path {stroke:currentColor}</style>
   <svg class="definition-scale" color="black" viewBox="0 0 21000 29700">
      <g class="page-margin" transform="translate(500, 500)">
         <g id="vnkxn2u" class="system">
            <g id="m352ecs" class="measure">
               <g id="eejo5k2" class="mNum autogenerated">
                  <text y="767" text-anchor="middle" font-size="0px">
                     <tspan id="f1rbu5q2" class="text">
                        <tspan font-size="324px">181</tspan>
                     </tspan>
                  </text>
               </g>
               <g id="s19csu9" class="staff">
                  <path d="M0 1010 L3864 1010" stroke-width="13" />
                  <path d="M0 1190 L3864 1190" stroke-width="13" />
                  <path d="M0 1370 L3864 1370" stroke-width="13" />
                  <path d="M0 1550 L3864 1550" stroke-width="13" />
                  <path d="M0 1730 L3864 1730" stroke-width="13" />
                  <g id="g18fgtay" class="clef">
                     <use xlink:href="#E050-y5gx1mg" transform="translate(90, 1550) scale(0.72, 0.72)" />
                  </g>
                  <g id="h1beyi" class="keySig">
                     <g id="i1ke01w5" class="keyAccid">
                        <use xlink:href="#E260-y5gx1mg" transform="translate(735, 1370) scale(0.72, 0.72)" />
                     </g>
                     <g id="j6vzh3s" class="keyAccid">
                        <use xlink:href="#E260-y5gx1mg" transform="translate(915, 1100) scale(0.72, 0.72)" />
                     </g>
                     <g id="kcnvk7w" class="keyAccid">
                        <use xlink:href="#E260-y5gx1mg" transform="translate(1095, 1460) scale(0.72, 0.72)" />
                     </g>
                     <g id="l4vaf32" class="keyAccid">
                        <use xlink:href="#E260-y5gx1mg" transform="translate(1275, 1190) scale(0.72, 0.72)" />
                     </g>
                  </g>
                  <g class="ledgerLines above">
                     <path d="M1636 830 L1958 830" stroke-width="22" />
                     <path d="M2358 830 L2680 830" stroke-width="22" />
                     <path d="M3081 830 L3403 830" stroke-width="22" />
                     <path d="M1636 650 L1958 650" stroke-width="22" />
                  </g>
                  <g id="loqaf92" class="layer">
                     <g id="nm8z8ft" class="note">
                        <g class="notehead">
                           <use xlink:href="#E0A4-y5gx1mg" transform="translate(1684, 650) scale(0.72, 0.72)" />
                        </g>
                        <g id="ve96hmp" class="stem">
                           <path d="M1693 678 L1693 1370" stroke-width="18" />
                        </g>
                     </g>
                     <g id="nr18cez" class="note">
                        <g class="notehead">
                           <use xlink:href="#E0A4-y5gx1mg" transform="translate(2406, 830) scale(0.72, 0.72)" />
                        </g>
                        <g id="wovia1z" class="stem">
                           <path d="M2415 858 L2415 1460" stroke-width="18" />
                        </g>
                        <g id="o7wq83z" class="accid" />
                     </g>
                     <g id="nmbwu61" class="note">
                        <g class="notehead">
                           <use xlink:href="#E0A4-y5gx1mg" transform="translate(3129, 830) scale(0.72, 0.72)" />
                        </g>
                        <g id="xz5l22v" class="stem">
                           <path d="M3138 858 L3138 1460" stroke-width="18" />
                        </g>
                        <g id="q8qm1fg" class="accid" />
                     </g>
                  </g>
               </g>
               <g id="jj7vc4x" class="barLine">
                  <path d="M3851 1010 L3851 1730" stroke-width="27" />
               </g>
            </g>
            <g id="sckvc7x" class="sb" />
            <g id="mj2ir23" class="measure">
               <g id="st2wbfw" class="staff">
                  <path d="M3864 1010 L6221 1010" stroke-width="13" />
                  <path d="M3864 1190 L6221 1190" stroke-width="13" />
                  <path d="M3864 1370 L6221 1370" stroke-width="13" />
                  <path d="M3864 1550 L6221 1550" stroke-width="13" />
                  <path d="M3864 1730 L6221 1730" stroke-width="13" />
                  <g class="ledgerLines above">
                     <path d="M3993 830 L4315 830" stroke-width="22" />
                  </g>
                  <g id="laq05m5" class="layer">
                     <g id="ngspgao" class="note">
                        <g class="notehead">
                           <use xlink:href="#E0A4-y5gx1mg" transform="translate(4041, 740) scale(0.72, 0.72)" />
                        </g>
                        <g id="y11z0sph" class="stem">
                           <path d="M4050 768 L4050 1370" stroke-width="18" />
                        </g>
                        <g id="e1g0q8wf" class="accid" />
                     </g>
                     <g id="nvz83jb" class="note">
                        <g class="notehead">
                           <use xlink:href="#E0A4-y5gx1mg" transform="translate(4763, 920) scale(0.72, 0.72)" />
                        </g>
                        <g id="z14kjz10" class="stem">
                           <path d="M4772 948 L4772 1550" stroke-width="18" />
                        </g>
                     </g>
                     <g id="nxzga9q" class="note">
                        <g class="notehead">
                           <use xlink:href="#E0A4-y5gx1mg" transform="translate(5486, 920) scale(0.72, 0.72)" />
                        </g>
                        <g id="a12dz40p" class="stem">
                           <path d="M5495 948 L5495 1550" stroke-width="18" />
                        </g>
                     </g>
                  </g>
               </g>
               <g id="a1bykm49" class="barLine">
                  <path d="M6208 1010 L6208 1730" stroke-width="27" />
               </g>
            </g>
            <g id="midfuun" class="measure">
               <g id="s8qkmkz" class="staff">
                  <path d="M6221 1010 L8578 1010" stroke-width="13" />
                  <path d="M6221 1190 L8578 1190" stroke-width="13" />
                  <path d="M6221 1370 L8578 1370" stroke-width="13" />
                  <path d="M6221 1550 L8578 1550" stroke-width="13" />
                  <path d="M6221 1730 L8578 1730" stroke-width="13" />
                  <g class="ledgerLines above">
                     <path d="M6350 830 L6672 830" stroke-width="22" />
                  </g>
                  <g id="lg78uwy" class="layer">
                     <g id="nj75uyh" class="note">
                        <g class="notehead">
                           <use xlink:href="#E0A4-y5gx1mg" transform="translate(6398, 830) scale(0.72, 0.72)" />
                        </g>
                        <g id="b1t9b1ht" class="stem">
                           <path d="M6407 858 L6407 1460" stroke-width="18" />
                        </g>
                        <g id="t237o5z" class="accid" />
                     </g>
                     <g id="nm4z1ut" class="note">
                        <g class="notehead">
                           <use xlink:href="#E0A4-y5gx1mg" transform="translate(7120, 1010) scale(0.72, 0.72)" />
                        </g>
                        <g id="cdcxubl" class="stem">
                           <path d="M7129 1038 L7129 1640" stroke-width="18" />
                        </g>
                     </g>
                     <g id="nc2mj0j" class="note">
                        <g class="notehead">
                           <use xlink:href="#E0A4-y5gx1mg" transform="translate(7843, 1010) scale(0.72, 0.72)" />
                        </g>
                        <g id="d1uiilcq" class="stem">
                           <path d="M7852 1038 L7852 1640" stroke-width="18" />
                        </g>
                     </g>
                  </g>
               </g>
               <g id="p1p6g7y8" class="barLine">
                  <path d="M8565 1010 L8565 1730" stroke-width="27" />
               </g>
            </g>
            <g id="mhucl0g" class="measure">
               <g id="sg43g3k" class="staff">
                  <path d="M8578 1010 L10590 1010" stroke-width="13" />
                  <path d="M8578 1190 L10590 1190" stroke-width="13" />
                  <path d="M8578 1370 L10590 1370" stroke-width="13" />
                  <path d="M8578 1550 L10590 1550" stroke-width="13" />
                  <path d="M8578 1730 L10590 1730" stroke-width="13" />
                  <g id="ljal61h" class="layer">
                     <g id="nseyauy" class="note">
                        <g class="notehead">
                           <use xlink:href="#E0A3-y5gx1mg" transform="translate(8755, 1010) scale(0.72, 0.72)" />
                        </g>
                        <g id="exyujjs" class="stem">
                           <path d="M8764 1035 L8764 1640" stroke-width="18" />
                        </g>
                     </g>
                     <g id="nvtavlv" class="note">
                        <g class="notehead">
                           <use xlink:href="#E0A4-y5gx1mg" transform="translate(9854, 920) scale(0.72, 0.72)" />
                        </g>
                        <g id="fpqynv4" class="stem">
                           <path d="M9863 948 L9863 1550" stroke-width="18" />
                        </g>
                     </g>
                  </g>
               </g>
               <g id="e1mlnxku" class="barLine">
                  <path d="M10577 1010 L10577 1730" stroke-width="27" />
               </g>
            </g>
            <g id="mr4q2ob" class="measure">
               <g id="s1ai5ps" class="staff">
                  <path d="M10590 1010 L13167 1010" stroke-width="13" />
                  <path d="M10590 1190 L13167 1190" stroke-width="13" />
                  <path d="M10590 1370 L13167 1370" stroke-width="13" />
                  <path d="M10590 1550 L13167 1550" stroke-width="13" />
                  <path d="M10590 1730 L13167 1730" stroke-width="13" />
                  <g id="lsgmr78" class="layer">
                     <g id="nw048s1" class="note">
                        <g class="notehead">
                           <use xlink:href="#E0A4-y5gx1mg" transform="translate(10767, 1010) scale(0.72, 0.72)" />
                        </g>
                        <g id="gv4g4hd" class="stem">
                           <path d="M10776 1038 L10776 1640" stroke-width="18" />
                        </g>
                     </g>
                     <g id="rebc9sl" class="rest">
                        <use xlink:href="#E4E5-y5gx1mg" transform="translate(11489, 1370) scale(0.72, 0.72)" />
                     </g>
                     <g id="bsfngxk" class="beam">
                        <polygon stroke-opacity="1" fill-opacity="1" points="12212,1820 12701,1865 12701,1775 12212,1730" />
                        <g id="nj9ugsj" class="note">
                           <g class="notehead">
                              <use xlink:href="#E0A4-y5gx1mg" transform="translate(12212, 1100) scale(0.72, 0.72)" />
                           </g>
                           <g id="h1cm3wac" class="stem">
                              <path d="M12221 1128 L12221 1802" stroke-width="18" />
                           </g>
                           <g id="y9z9c6" class="accid" />
                        </g>
                        <g id="n6w0fiz" class="note">
                           <g class="notehead">
                              <use xlink:href="#E0A4-y5gx1mg" transform="translate(12683, 1190) scale(0.72, 0.72)" />
                           </g>
                           <g id="i1priem4" class="stem">
                              <path d="M12692 1218 L12692 1847" stroke-width="18" />
                           </g>
                           <g id="ab6eodr" class="accid" />
                        </g>
                     </g>
                  </g>
               </g>
               <g id="r1dciuoh" class="barLine">
                  <path d="M13154 1010 L13154 1730" stroke-width="27" />
               </g>
            </g>
            <g id="mmndc0p" class="measure">
               <g id="s9wm4f9" class="staff">
                  <path d="M13167 1010 L15524 1010" stroke-width="13" />
                  <path d="M13167 1190 L15524 1190" stroke-width="13" />
                  <path d="M13167 1370 L15524 1370" stroke-width="13" />
                  <path d="M13167 1550 L15524 1550" stroke-width="13" />
                  <path d="M13167 1730 L15524 1730" stroke-width="13" />
                  <g id="l1t7nnv" class="layer">
                     <g id="n4hrh5s" class="note">
                        <g class="notehead">
                           <use xlink:href="#E0A4-y5gx1mg" transform="translate(13344, 1640) scale(0.72, 0.72)" />
                        </g>
                        <g id="jtr58w0" class="stem">
                           <path d="M13561 1612 L13561 1010" stroke-width="18" />
                        </g>
                     </g>
                     <g id="n2cv7is" class="note">
                        <g class="notehead">
                           <use xlink:href="#E0A4-y5gx1mg" transform="translate(14066, 1640) scale(0.72, 0.72)" />
                        </g>
                        <g id="k11hjco8" class="stem">
                           <path d="M14283 1612 L14283 1010" stroke-width="18" />
                        </g>
                     </g>
                     <g id="nx9issx" class="note">
                        <g class="notehead">
                           <use xlink:href="#E0A4-y5gx1mg" transform="translate(14789, 1550) scale(0.72, 0.72)" />
                        </g>
                        <g id="li9dy9r" class="stem">
                           <path d="M15006 1522 L15006 920" stroke-width="18" />
                        </g>
                     </g>
                  </g>
               </g>
               <g id="tabvpzn" class="tie">
                  <path d="M13615,1685 C13727,1791 13906,1791 14021,1685 C13929,1840 13704,1840 13615,1685" stroke-linecap="round" stroke-linejoin="round" stroke-width="9" />
               </g>
               <g id="j5djhll" class="barLine">
                  <path d="M15511 1010 L15511 1730" stroke-width="27" />
               </g>
            </g>
            <g id="machalp" class="measure">
               <g id="s1iez4v" class="staff">
                  <path d="M15524 1010 L17993 1010" stroke-width="13" />
                  <path d="M15524 1190 L17993 1190" stroke-width="13" />
                  <path d="M15524 1370 L17993 1370" stroke-width="13" />
                  <path d="M15524 1550 L17993 1550" stroke-width="13" />
                  <path d="M15524 1730 L17993 1730" stroke-width="13" />
                  <g id="l3vab7t" class="layer">
                     <g id="nmyiwwu" class="note">
                        <g class="notehead">
                           <use xlink:href="#E0A4-y5gx1mg" transform="translate(15701, 1640) scale(0.72, 0.72)" />
                        </g>
                        <g id="mfhtdkr" class="stem">
                           <path d="M15918 1612 L15918 1010" stroke-width="18" />
                        </g>
                     </g>
                     <g id="rfwzbnb" class="rest">
                        <use xlink:href="#E4E5-y5gx1mg" transform="translate(16423, 1370) scale(0.72, 0.72)" />
                     </g>
                     <g id="rfvro2" class="rest">
                        <use xlink:href="#E4E5-y5gx1mg" transform="translate(17146, 1370) scale(0.72, 0.72)" />
                     </g>
                     <g id="cjk8i47" class="clef">
                        <use xlink:href="#E07C-y5gx1mg" transform="translate(17437, 1190) scale(0.72, 0.72)" />
                     </g>
                  </g>
               </g>
               <g id="y1ph4ero" class="barLine">
                  <path d="M17980 1010 L17980 1730" stroke-width="27" />
               </g>
            </g>
            <g id="mo3edh1" class="measure">
               <g id="sounccq" class="staff">
                  <path d="M17993 1010 L20005 1010" stroke-width="13" />
                  <path d="M17993 1190 L20005 1190" stroke-width="13" />
                  <path d="M17993 1370 L20005 1370" stroke-width="13" />
                  <path d="M17993 1550 L20005 1550" stroke-width="13" />
                  <path d="M17993 1730 L20005 1730" stroke-width="13" />
                  <g class="ledgerLines above">
                     <path d="M18122 830 L18444 830" stroke-width="22" />
                     <path d="M19221 830 L19543 830" stroke-width="22" />
                  </g>
                  <g id="l310aoe" class="layer">
                     <g id="n5hrm7c" class="note">
                        <g class="notehead">
                           <use xlink:href="#E0A3-y5gx1mg" transform="translate(18170, 830) scale(0.72, 0.72)" />
                        </g>
                        <g id="n1ls8elo" class="stem">
                           <path d="M18179 855 L18179 1460" stroke-width="18" />
                        </g>
                     </g>
                     <g id="nd1pc6y" class="note">
                        <g class="notehead">
                           <use xlink:href="#E0A4-y5gx1mg" transform="translate(19269, 830) scale(0.72, 0.72)" />
                        </g>
                        <g id="op08dxa" class="stem">
                           <path d="M19278 858 L19278 1460" stroke-width="18" />
                        </g>
                     </g>
                  </g>
               </g>
               <g id="tvp5dwl" class="tie">
                  <path d="M18441,785 C18629,633 19032,633 19224,785 C19018,679 18643,679 18441,785" stroke-linecap="round" stroke-linejoin="round" stroke-width="9" />
               </g>
               <g id="n15rizys" class="barLine">
                  <path d="M19992 1010 L19992 1730" stroke-width="27" />
               </g>
            </g>
         </g>
         <g id="yrv6s3u" class="system">
            <g id="mvi9py4" class="measure">
               <g id="uwxip6u" class="mNum autogenerated">
                  <text y="2927" text-anchor="middle" font-size="0px">
                     <tspan id="vhkp6e6" class="text">
                        <tspan font-size="324px">189</tspan>
                     </tspan>
                  </text>
               </g>
               <g id="si22soa" class="staff">
                  <path d="M0 3170 L4104 3170" stroke-width="13" />
                  <path d="M0 3350 L4104 3350" stroke-width="13" />
                  <path d="M0 3530 L4104 3530" stroke-width="13" />
                  <path d="M0 3710 L4104 3710" stroke-width="13" />
                  <path d="M0 3890 L4104 3890" stroke-width="13" />
                  <g id="b3y82qk" class="clef">
                     <use xlink:href="#E062-y5gx1mg" transform="translate(88, 3350) scale(0.72, 0.72)" />
                  </g>
                  <g id="c1biehwl" class="keySig">
                     <g id="dwcx3kj" class="keyAccid">
                        <use xlink:href="#E260-y5gx1mg" transform="translate(769, 3710) scale(0.72, 0.72)" />
                     </g>
                     <g id="e1mqlw3t" class="keyAccid">
                        <use xlink:href="#E260-y5gx1mg" transform="translate(949, 3440) scale(0.72, 0.72)" />
                     </g>
                     <g id="fjl9zfs" class="keyAccid">
                        <use xlink:href="#E260-y5gx1mg" transform="translate(1129, 3800) scale(0.72, 0.72)" />
                     </g>
                     <g id="g1jbdnvs" class="keyAccid">
                        <use xlink:href="#E260-y5gx1mg" transform="translate(1309, 3530) scale(0.72, 0.72)" />
                     </g>
                  </g>
                  <g id="lm80zhc" class="layer">
                     <g id="n7a9b30" class="note">
                        <g class="notehead">
                           <use xlink:href="#E0A4-y5gx1mg" transform="translate(1721, 3350) scale(0.72, 0.72)" />
                        </g>
                        <g id="p1f68278" class="stem">
                           <path d="M1730 3378 L1730 3980" stroke-width="18" />
                        </g>
                     </g>
                     <g id="r62l624" class="rest">
                        <use xlink:href="#E4E5-y5gx1mg" transform="translate(2457, 3530) scale(0.72, 0.72)" />
                     </g>
                     <g id="rehw8c5" class="rest">
                        <use xlink:href="#E4E5-y5gx1mg" transform="translate(3193, 3530) scale(0.72, 0.72)" />
                     </g>
                  </g>
               </g>
               <g id="b1atw5je" class="barLine">
                  <path d="M3929 3170 L3929 3890" stroke-width="27" />
                  <path d="M4059 3170 L4059 3890" stroke-width="90" />
               </g>
            </g>
            <g id="o1xgsdwv" class="systemMilestoneEnd spsqclq" />
         </g>
         <g id="povb7hb" class="pageMilestoneEnd szfol95" />
         <g id="q956uiw" class="pageMilestoneEnd mdsm8uo" />
         <g id="b1mec5wm" class="pgHead autogenerated">
            <text font-size="0px">
               <tspan id="c1t409zf" class="rend" x="10000" y="220" text-anchor="middle">
                  <tspan id="d7ucn2e" class="text">
                     <tspan font-size="324px">– </tspan>
                  </tspan>
                  <tspan id="etj2nxk" class="num">
                     <title class="labelAttr">page</title>
                     <tspan id="fzc1kl5" class="text">
                        <tspan font-size="324px">3</tspan>
                     </tspan>
                  </tspan>
                  <tspan id="h1bgrtq9" class="text">
                     <tspan font-size="324px"> –</tspan>
                  </tspan>
               </tspan>
            </text>
         </g>
         <g id="u6cpup3" class="pgFoot autogenerated">
            <g id="v1q449x8" class="fig">
               <g class="svg" transform="translate(7750, 28099) scale(10.000000, 10.000000)">
                  <g>
                     <path fill="#00000" d="M 17.11278,49.26451 V 10.367554 h 12.696511 c 3.288815,7.336676 6.71267,14.610456 10.127281,21.888976 3.419998,-7.484684 6.255515,-14.204887 9.58887,-21.909915 2.436207,0.103726 4.316952,0.08453 6.484294,-0.05808 V 49.264423 H 50.274275 C 50.145222,38.35639 50.016136,27.448368 49.887066,16.540329 45.003488,27.315459 39.967448,38.433564 35.083854,49.208695 34.678996,49.343717 34.426583,49.135619 34.021726,49.270644 29.46588,39.330716 24.910049,29.390805 20.354201,19.450876 20.224341,29.388756 20.09461,39.326619 19.964815,49.264497 H 17.11278 Z M 36.754144,39.324695 C 32.721221,30.512695 28.6883,21.700679 24.655394,12.888662 22.530527,12.750737 22.656775,12.71031 20.714356,12.813974 v 0.966497 c 4.612938,9.99784 9.609439,20.748709 13.87298,30.081745 0.722248,-1.512523 1.444528,-3.025014 2.166808,-4.537521 z m 25.738417,9.939815 c 0,-12.965651 0,-25.931305 0,-38.896956 10.084388,0 20.168791,0 30.253178,0 0,0.960416 0,1.920849 0,2.881265 -6.482825,0 -12.965652,0 -19.448478,0 0,4.802097 0,9.604178 0,14.406277 5.52241,0 11.044819,0 16.567229,0 0,0.960415 0,1.920832 0,2.881248 -5.52241,0 -11.044819,0 -16.567229,0 0,5.282306 0,10.564611 0,15.846917 6.963035,0 13.926068,0 20.889103,0 0,0.960416 0,1.920832 0,2.881249 -10.564597,0 -21.129207,0 -31.693803,0 z m 4.321874,-2.160937 c 0,-11.765131 0,-23.530263 0,-35.295394 -0.720312,0 -1.440625,0 -2.160937,0 0,11.765131 0,23.530263 0,35.295394 0.720312,0 1.440625,0 2.160937,0 z m 32.41413,2.160937 c 0,-12.965651 0,-25.931305 0,-38.896956 2.401045,0 4.802095,0 7.203135,0 0,12.965651 0,25.931305 0,38.896956 -2.40104,0 -4.80209,0 -7.203135,0 z m 2.881265,-2.160937 c 0,-11.765131 0,-23.530263 0,-35.295394 -0.72031,0 -1.44064,0 -2.160953,0 0,11.765131 0,23.530263 0,35.295394 0.720313,0 1.440643,0 2.160953,0 z" />
                     <path fill="#00000" d="m 346.3,6.7 c -3.1,0.5 -4.9,4.4 -2.7,6.8 1.2,1.4 2.7,2.4 4.1,3.5 -2.4,5.3 -7.7,8.3 -11.9,12.1 -3.7,2.8 -7,6.2 -9.7,9.9 -2.2,-0.8 -0.91472,-7.718806 -0.62677,-9.5 0.28796,-1.781194 0.72677,-6.4 2.92677,-8.7 1.3,-1.9 3,-3.5 4.5,-5.2 1.2,-3.4 -3.2,-4.9 -5.8,-4.6 -7.3,-0.5 -14.6,2 -20,6.8 -5,4.6 -10,10.1 -11.5,17 -0.9,3.5 -0.2,7.5 2.8,9.9 2.5,2.8 7.4,2.9 9.8,-0.2 1.7,-2.3 3.2,-4.8 3.8,-7.6 -0.1,-2.6 -4.4,-2.3 -4.3,0.2 1.2,2.4 -0.9,4.7 -2.7,6.2 -1.7,0.9 -4.7,0.7 -4.8,-1.7 -1,-5.8 2.1,-11.3 5.2,-16.1 4,-5.8 9.8,-11.2 17.2,-11.8 1.6,0 8.1,-1.2 6.8,1.4 -2.8,2.8 -5.6,6.1 -6,10.3 -1.6,7.7 0.1,15.7 -2.3,23.2 -1.1,3.9 2,2.6 2.5,0.2 3.3,-7.4 8.9,-13.4 15.1,-18.5 4.2,-3.9 9.5,-7.1 11.9,-12.6 1.3,-3.6 1.2,-9 -2.7,-10.9 -0.50431,-0.1767056 -1.06965,-0.1654404 -1.6,-0.1 z m 66,14.5 c -2,0.8 -1.8,4.9 0.8,4.4 3.4,0.4 2.9,-6.2 -0.8,-4.4 z m 0.6,7.3 c -1.3,0.5 -7.6,0.5 -5.4,2.2 4,-0.3 0.7,4.5 0.6,6.7 -0.4,2.9 -2.4,5.9 -1.2,8.8 2.7,1.7 5.6,-0.8 6.8,-3.2 1.6,-1.4 -0.5,-3 -1.2,-0.9 -0.4,0.8 -2.4,3.5 -2.6,1.8 1.1,-5 2.7,-9.9 3.9,-14.9 l -0.1,-0.5 h -0.9 z m -65.1,0.2 c -6.5,1.6 -10.5,9.5 -8.2,15.7 2.1,3.4 7.4,2.9 10.1,0.4 2,-0.2 3.6,-5.3 1,-3.4 -1.4,2 -4,4.2 -6.5,2.8 -2.2,-1.9 -1.9,-5.7 1.7,-5.3 3.1,-0.9 6.9,-2.1 8.1,-5.5 0.9,-2.7 -1.6,-5.2 -4.3,-4.8 h -1.1 -0.7 z m 13.6,0 c -2.2,0 -8.5,1.8 -2.9,2.3 0.9,1.9 -1,4.9 -1.1,7.2 -0.5,2.9 -1.4,5.7 -1.7,8.7 3.7,0.7 3.8,-2.6 4.4,-5.3 0.9,-3.3 1.6,-7 4.1,-9.5 2.4,1.6 6.8,-0.7 3.7,-3.4 -2.9,-0.5 -4.8,2.4 -6.2,4.3 0,-1.2 2.4,-5 -0.2,-4.3 z m 15.8,0 c -6.4,1.3 -9.6,9.1 -7.7,14.9 1.9,4 7.7,3.9 11,1.7 4.1,-3 6,-8.9 4.4,-13.7 -1.3,-3 -4.8,-3.2 -7.6,-3 z m 17,0 c -2.3,0 -8.8,1.9 -3,2.4 0.4,2.5 -1,5.7 -1.4,8.4 -0.7,2.4 -1.8,7.5 2.1,7.2 3.8,-0.1 6.5,-3.5 8.5,-6.3 2,-3.2 4.5,-7 3.3,-10.9 -3.7,-3 -3.6,2.6 -3.1,5.1 -0.7,3.8 -2.7,7.9 -6.2,9.8 -3.6,0.6 -1,-4.3 -0.8,-6.1 0.6,-3.2 1.6,-6.3 1.9,-9.5 h -1.1 z m 30.6,0 c -6.3,1.2 -9.5,8.9 -7.8,14.7 1.5,4 7.2,4.2 10.5,2.4 4.6,-2.8 6.6,-9.3 4.8,-14.3 -1.4,-2.8 -4.8,-3 -7.5,-2.8 z m -75.4,1.7 c 2.1,1.5 0.2,4.7 -1.6,5.7 -1.1,0.4 -5.5,3.4 -4.6,0.7 0.8,-2.7 2.2,-6.2 5.3,-6.6 l 0.9,0.1 z m 30.8,0 c 2.6,1.5 1.3,5.2 0.8,7.6 -0.8,2.7 -1.9,5.9 -4.7,7.1 -5.1,0.8 -4,-5.8 -2.8,-8.8 1,-2.8 3,-6.8 6.7,-5.8 z m 47.1,-0.1 c 2.9,0.7 2,4.7 1.5,6.8 -0.7,3 -1.8,6.7 -5,8 -4.7,0.8 -4,-5.1 -3,-7.9 0.9,-3 2.7,-7.3 6.5,-6.8 z" />
                     <g>
                        <path d="m 116.56641,37.118164 q 0,-3.251953 2.92968,-6.298828 2.90039,-3.046875 5.99121,-3.046875 1.14258,0 1.81641,0.527344 0.67383,0.527343 0.67383,1.567382 0,2.109375 -2.47559,3.618165 -2.46093,1.49414 -5.18554,1.831054 l -0.83496,0.102539 q -0.19043,0.600586 -0.26368,0.966797 -0.0732,0.351563 -0.0732,0.893555 0,1.289062 0.83496,2.006836 0.84961,0.717773 2.00684,0.717773 1.09863,0 2.3291,-0.732422 0.70312,-0.424804 2.03613,-1.523437 l 0.38086,0.336914 q -0.65918,0.834961 -1.88965,1.713867 -2.18261,1.567383 -4.37988,1.567383 -1.55273,0 -2.72461,-1.098633 -1.17187,-1.098633 -1.17187,-3.149414 z m 3.12011,-2.358398 q 2.79786,-0.410157 4.55567,-1.962891 Q 126,31.229492 126,29.691406 q 0,-0.55664 -0.26367,-0.878906 -0.26367,-0.336914 -0.77637,-0.336914 -0.95215,0 -1.875,0.820312 -0.9082,0.805664 -1.64062,1.831055 -0.77637,1.201172 -1.23047,2.299805 -0.24903,0.585937 -0.52735,1.333008 z" />
                        <path d="m 129.47168,41 2.53418,-9.052734 q 0.32226,-1.142579 0.36621,-1.376954 0.0586,-0.249023 0.0586,-0.527343 0,-0.424805 -0.24902,-0.65918 -0.23437,-0.249023 -0.9375,-0.249023 -0.17578,0 -0.35156,0.0293 -0.16113,0.01465 -0.36621,0.04395 v -0.498047 q 0.95215,-0.146484 1.34765,-0.219727 0.41016,-0.07324 0.87891,-0.175781 l 2.62207,-0.571289 q 0.0879,0.05859 0.11719,0.131836 l -1.94824,6.298828 q 1.7871,-2.739258 2.98828,-4.072266 2.10937,-2.358398 3.77929,-2.358398 0.64453,0 1.11328,0.249023 0.89356,0.483399 0.89356,1.743165 0,0.351562 -0.0732,0.732421 -0.0732,0.38086 -0.19043,0.820313 l -1.91895,7.016601 q -0.0586,0.219727 -0.13183,0.541993 -0.0733,0.307617 -0.0733,0.439453 0,0.219726 0.10254,0.395508 0.10254,0.175781 0.33692,0.175781 0.38086,0 0.8789,-0.439453 0.49805,-0.454102 1.62598,-1.918946 l 0.4248,0.38086 q -1.20117,1.625976 -1.90429,2.285156 -1.20117,1.157227 -2.29981,1.157227 -0.49804,0 -0.96679,-0.322266 -0.45411,-0.336914 -0.45411,-1.201172 0,-0.249023 0.0293,-0.527344 0.0439,-0.27832 0.10254,-0.483398 l 1.8457,-7.119141 q 0.14649,-0.585937 0.19043,-0.952148 0.0586,-0.38086 0.0586,-0.541992 0,-0.351563 -0.17578,-0.600586 -0.16114,-0.263672 -0.58594,-0.263672 -1.09863,0 -2.76856,1.992187 -0.98144,1.186524 -1.99218,2.827149 -0.77637,1.274414 -1.23047,2.490234 Q 132.70898,37.821289 131.74219,41 Z" />
                        <path d="m 149.12988,33.5 q 0,0.908203 0.27832,1.450195 0.46875,0.893555 1.68457,0.893555 1.31836,0 2.34375,-1.669922 1.04004,-1.68457 1.04004,-3.706055 0,-0.966796 -0.4248,-1.508789 -0.42481,-0.55664 -1.27442,-0.55664 -1.64062,0 -2.65136,1.743164 -0.9961,1.743164 -0.9961,3.354492 z m 0.5127,13.066406 q 1.74316,0 2.88574,-0.834961 1.15723,-0.834961 1.15723,-1.992187 0,-0.878906 -0.60059,-1.479492 -0.32226,-0.322266 -1.04004,-0.688477 -0.60058,-0.292969 -2.03613,-0.834961 -1.4209,-0.556641 -1.64063,-0.556641 -0.38086,0 -1.47949,1.010743 -1.09863,1.02539 -1.09863,2.314453 0,1.948242 1.68457,2.680664 0.87891,0.380859 2.16797,0.380859 z m -5.47852,-2.680664 q 0,-1.098633 0.83496,-2.094726 0.84961,-0.981446 2.68067,-1.962891 -0.36621,-0.234375 -0.60059,-0.483398 -0.23437,-0.263672 -0.23437,-0.688477 0,-0.600586 0.83496,-1.376953 0.46875,-0.439453 1.52343,-1.157227 -0.9375,-0.351562 -1.61132,-0.996093 -0.82032,-0.864258 -0.82032,-2.241211 0,-2.211914 1.72852,-3.676758 1.72852,-1.464844 4.27734,-1.464844 1.33301,0 2.25586,0.424805 0.92285,0.410156 1.08399,0.688476 h 1.97754 v 1.171875 h -1.49414 q 0.0879,0.322266 0.13183,0.585938 0.0439,0.263672 0.0439,0.74707 0,2.373047 -1.84571,3.735352 -1.83105,1.362304 -3.95507,1.362304 -0.21973,0 -0.41016,-0.01465 -0.19043,-0.0293 -0.46875,-0.08789 -0.21973,0 -0.60059,0.424805 -0.3955,0.424805 -0.3955,0.761719 0,0.498047 3.22265,1.699218 3.20801,1.215821 3.20801,3.559571 0,1.757812 -1.61133,3.076172 -1.61133,1.333007 -4.86328,1.333007 -2.25586,0 -3.57422,-0.966796 -1.31836,-0.966797 -1.31836,-2.358399 z" />
                        <path d="m 165.03809,27.669922 q 0.13183,0 0.17578,0.08789 0.0586,0.07324 0.0586,0.175782 -0.0146,0.146484 -0.0293,0.219726 l -1.46484,5.668946 0.32227,-0.629883 q 1.05468,-2.06543 2.46093,-3.764649 1.4209,-1.713867 2.69532,-1.713867 0.68847,0 1.05468,0.454102 0.38086,0.454101 0.38086,1.040039 0,0.659179 -0.38086,1.098633 -0.36621,0.424804 -1.02539,0.424804 -0.4541,0 -0.68847,-0.175781 -0.23438,-0.175781 -0.36621,-0.410156 l -0.17579,-0.322266 q -0.0586,-0.08789 -0.14648,-0.131836 -0.0732,-0.05859 -0.19043,-0.05859 -0.57129,0 -1.65527,1.59668 -1.06934,1.59668 -1.91895,3.457031 -0.51269,1.12793 -1.14258,2.988282 Q 162.60645,38.84668 161.94727,41 h -2.25586 l 2.43164,-8.818359 q 0.20507,-0.761719 0.32226,-1.362305 0.13184,-0.600586 0.13184,-0.981445 0,-0.439454 -0.21973,-0.673829 -0.21972,-0.234375 -0.76172,-0.234375 -0.17578,0 -0.43945,0.0293 -0.26367,0.0293 -0.62988,0.07324 v -0.483399 l 0.58593,-0.117187 q 1.14258,-0.234375 2.49024,-0.498047 1.3623,-0.263672 1.43555,-0.263672 z" />
                        <path d="m 181.51758,30.423828 q 0,-1.054687 -0.4834,-1.552734 -0.4834,-0.498047 -1.17188,-0.498047 -2.38769,0 -4.43847,3.662109 -1.80176,3.222656 -1.80176,5.551758 0,1.171875 0.49805,1.713867 0.51269,0.527344 1.25976,0.527344 2.21192,0 4.2627,-3.55957 1.875,-3.237305 1.875,-5.844727 z m -1.83106,-2.709961 q 1.15723,0 1.78711,0.600586 0.33692,0.322266 0.52735,0.849609 l 0.0732,0.205079 0.32226,-1.113282 q 0.0586,-0.190429 0.10254,-0.249023 0.0439,-0.07324 0.20508,-0.08789 l 1.65527,-0.190429 q 0.13184,0 0.14649,0.05859 0.0293,0.04395 0,0.175782 -0.0586,0.190429 -0.0879,0.307617 -0.0293,0.102539 -0.0879,0.307617 l -1.34766,5.244141 q -0.43945,1.713867 -0.74707,2.958984 -0.54199,2.255859 -0.54199,2.578125 0,0.205078 0.10254,0.307617 0.11719,0.08789 0.27832,0.08789 0.13183,0 0.27832,-0.08789 0.16113,-0.08789 0.38086,-0.263672 l 0.24902,-0.205078 q 0.11719,-0.102539 0.26367,-0.234375 0.14649,-0.146484 0.35157,-0.351562 l 0.9082,-0.9375 0.35156,0.307617 q -1.52344,1.948242 -2.44629,2.651367 -0.92285,0.688477 -1.75781,0.688477 -0.54199,0 -0.84961,-0.38086 -0.29297,-0.380859 -0.29297,-0.952148 0,-0.527344 0.19043,-1.508789 0.20508,-0.996094 0.39551,-1.669922 -0.26367,0.439453 -0.89356,1.289062 -0.61523,0.834961 -1.52343,1.625977 -1.06934,0.952148 -2.05078,1.347656 -0.76172,0.263672 -1.46485,0.263672 -1.18652,0 -2.15332,-0.966797 -0.96679,-0.981445 -0.96679,-2.768555 0,-3.076171 2.7539,-6.416015 2.8418,-3.47168 5.88867,-3.47168 z" />
                        <path d="m 196.66406,27.772461 q 0.82031,0 1.25977,0.585937 0.43945,0.585938 0.43945,1.333008 0,1.977539 -3.91113,6.928711 -3.70606,4.702149 -4.43848,4.702149 -0.21972,0 -0.29297,-0.600586 -0.0439,-0.336914 -0.0439,-1.142578 0,-0.981446 -0.19043,-3.325196 -0.19043,-2.34375 -0.36621,-3.471679 -0.36621,-2.475586 -0.71778,-3.19336 -0.35156,-0.717773 -1.333,-0.717773 -0.16114,0 -0.38086,0.01465 -0.20508,0.01465 -0.4834,0.04395 v -0.380859 q 0.43945,-0.08789 1.8457,-0.395508 1.40625,-0.307617 1.49414,-0.336914 l 0.4834,-0.146484 q 0.20508,-0.05859 0.32227,0.234375 0.11718,0.27832 0.29296,1.054687 0.55665,2.548828 0.83497,5.024414 0.17578,1.538086 0.35156,4.555664 l 0.4834,-0.512695 q 1.50879,-1.59668 3.01757,-3.793945 1.50879,-2.197266 1.50879,-3.105469 0,-0.454101 -0.65918,-1.083984 -0.65918,-0.644532 -0.65918,-1.171875 0,-0.483399 0.32227,-0.791016 0.33691,-0.307617 0.82031,-0.307617 z" />
                        <path d="m 199.82812,37.118164 q 0,-3.251953 2.92969,-6.298828 2.90039,-3.046875 5.99121,-3.046875 1.14258,0 1.81641,0.527344 0.67383,0.527343 0.67383,1.567382 0,2.109375 -2.47559,3.618165 -2.46094,1.49414 -5.18555,1.831054 l -0.83496,0.102539 q -0.19043,0.600586 -0.26367,0.966797 -0.0732,0.351563 -0.0732,0.893555 0,1.289062 0.83496,2.006836 0.84961,0.717773 2.00684,0.717773 1.09863,0 2.3291,-0.732422 0.70312,-0.424804 2.03613,-1.523437 l 0.38086,0.336914 q -0.65918,0.834961 -1.88965,1.713867 -2.18262,1.567383 -4.37988,1.567383 -1.55274,0 -2.72461,-1.098633 -1.17188,-1.098633 -1.17188,-3.149414 z m 3.12012,-2.358398 q 2.79785,-0.410157 4.55567,-1.962891 1.75781,-1.567383 1.75781,-3.105469 0,-0.55664 -0.26367,-0.878906 -0.26368,-0.336914 -0.77637,-0.336914 -0.95215,0 -1.875,0.820312 -0.9082,0.805664 -1.64063,1.831055 -0.77636,1.201172 -1.23046,2.299805 -0.24903,0.585937 -0.52735,1.333008 z" />
                        <path d="m 215.23828,37.601562 q 0,0.893555 0.41016,1.567383 0.41015,0.65918 1.3916,0.65918 2.09473,0 4.02832,-3.369141 1.81641,-3.164062 1.81641,-5.991211 0,-0.893554 -0.29297,-1.479492 -0.29297,-0.585937 -1.18653,-0.585937 -2.22656,0 -4.30664,3.603515 -1.86035,3.222657 -1.86035,5.595703 z m 6.00586,-9.887695 q 1.15723,0 1.64063,0.556641 0.27832,0.322265 0.43945,1.098633 l 1.66992,-6.00586 q 0.0732,-0.249023 0.0879,-0.439453 0.0293,-0.205078 0.0293,-0.351562 0,-0.571289 -0.21973,-0.717774 -0.20508,-0.146484 -0.60058,-0.146484 -0.24903,0 -0.46875,0.01465 -0.20508,0.01465 -0.55665,0.04395 v -0.483399 q 1.65528,-0.219726 4.58497,-0.761719 l 0.13183,0.146485 -0.0293,0.161133 -2.8125,10.532226 -1.91894,6.972656 q -0.0586,0.234375 -0.10254,0.439453 -0.0293,0.19043 -0.0293,0.351563 0,0.395508 0.19043,0.512695 0.20508,0.117188 0.35157,0.117188 0.4248,0 1.20117,-0.747071 0.4541,-0.454101 1.24511,-1.40625 l 0.33692,0.322266 -0.20508,0.307617 q -0.54199,0.805664 -1.3916,1.640625 -1.50879,1.479492 -2.70996,1.479492 -0.39551,0 -0.71778,-0.175781 -0.60058,-0.351562 -0.60058,-1.259765 0,-0.307618 0.0879,-0.981446 0.0879,-0.673828 0.26367,-1.464843 -1.11328,1.699218 -2.44629,2.783203 -1.31836,1.083984 -2.88574,1.083984 -1.27441,0 -2.22656,-0.908203 -0.95215,-0.908203 -0.95215,-2.797852 0,-3.193359 2.92969,-6.5625 2.91504,-3.354492 5.68359,-3.354492 z" />
                        <path d="m 254.12988,29.530273 q 0,1.230469 -1.18652,3.251954 -0.65918,1.127929 -1.86035,2.739257 -1.23047,1.655274 -2.53418,3.266602 -2.06543,2.548828 -2.43164,2.548828 -0.16114,0 -0.20508,-0.131836 -0.044,-0.131836 -0.11719,-0.893555 l -0.86426,-9.125976 -6.0791,9.960937 q -0.0439,0.08789 -0.11719,0.117188 -0.0586,0.0293 -0.13183,0.0293 l -0.20508,-0.04395 -0.0293,-0.131836 -0.17578,-3.618164 q -0.0586,-1.21582 -0.17578,-2.504882 -0.10254,-1.303711 -0.20508,-2.25586 -0.30761,-2.651367 -0.65918,-3.251953 -0.33691,-0.600586 -1.25976,-0.600586 -0.17578,0 -0.35156,0.01465 -0.17579,0 -0.36622,0.0293 v -0.424804 q 0.60059,-0.102539 1.14258,-0.219727 0.55664,-0.117187 1.21582,-0.263672 l 1.37696,-0.351562 q 0.49804,0 1.01074,4.174805 0.27832,2.285156 0.49805,5.200195 l 5.75683,-9.09668 q 0.0586,-0.117187 0.14649,-0.19043 0.0879,-0.08789 0.20507,-0.08789 0.13184,0 0.17578,0.08789 0.0439,0.08789 0.0586,0.263672 l 0.98144,10.590821 q 0.10254,-0.131836 1.62598,-2.06543 1.52344,-1.948242 1.59668,-2.06543 1.09863,-1.582031 1.46484,-2.446289 0.23438,-0.55664 0.23438,-1.083984 0,-0.205078 -0.0586,-0.38086 -0.0586,-0.190429 -0.27833,-0.395507 L 251.87402,29.75 q -0.19043,-0.19043 -0.33691,-0.410156 -0.13184,-0.234375 -0.13184,-0.541992 0,-0.366211 0.24903,-0.747071 0.26367,-0.380859 0.9375,-0.380859 0.54199,0 1.04004,0.439453 0.49804,0.424805 0.49804,1.420898 z" />
                        <path d="m 261.17578,24.520508 q -0.60058,0 -1.02539,-0.46875 -0.4248,-0.46875 -0.4248,-1.12793 0,-0.673828 0.4248,-1.142578 0.42481,-0.46875 1.02539,-0.46875 0.60059,0 1.02539,0.46875 0.43945,0.46875 0.43945,1.142578 0,0.673828 -0.43945,1.142578 -0.4248,0.454102 -1.02539,0.454102 z m 0.35156,3.208008 q 0.0879,0.04395 0.0733,0.117187 l -2.95899,10.458984 q -0.20508,0.834961 -0.20508,0.996094 0,0.219727 0.0879,0.38086 0.0733,0.175781 0.36621,0.175781 0.49805,0 1.31836,-0.864258 0.4834,-0.512695 1.18653,-1.464844 l 0.38086,0.322266 -0.14649,0.205078 q -1.09863,1.538086 -1.8164,2.211914 -1.12793,1.054688 -2.19727,1.054688 -0.62988,0 -1.05469,-0.527344 -0.41015,-0.527344 -0.41015,-1.245117 0,-0.424805 0.0586,-0.732422 0.0586,-0.322266 0.21973,-0.9375 l 2.05078,-7.529297 q 0.0439,-0.175781 0.0732,-0.322266 0.0293,-0.146484 0.0293,-0.292968 0,-0.527344 -0.39551,-0.644532 -0.38086,-0.131836 -1.52344,-0.131836 v -0.483398 q 1.21582,-0.146484 1.74317,-0.219727 0.54199,-0.08789 1.08398,-0.175781 0.70313,-0.117187 1.33301,-0.263672 0.62988,-0.146484 0.70312,-0.08789 z" />
                        <path d="m 264.17871,40.033203 q 0,-0.117187 0.0146,-0.263672 0.0147,-0.161133 0.0586,-0.322265 l 2.75391,-10.239258 h -2.22656 q 0,-0.395508 0.0586,-0.498047 0.0586,-0.102539 0.29297,-0.205078 1.47949,-0.629883 2.28516,-1.215821 0.82031,-0.585937 2.22656,-2.255859 l 0.23437,-0.27832 q 0.0439,-0.05859 0.10254,-0.08789 0.0732,-0.04395 0.14649,-0.04395 0.14648,0.0293 0.20507,0.05859 0.0439,0.102539 0.0439,0.190429 0.0147,0.07324 0,0.161133 l -0.83496,3.193359 h 2.38769 l -0.17578,0.981446 h -2.49023 l -2.63672,9.858398 q -0.0732,0.263672 0.0439,0.512696 0.11718,0.234375 0.3955,0.234375 0.38086,0 1.06934,-0.761719 0.39551,-0.410156 1.33301,-1.625977 l 0.38086,0.219727 -0.20508,0.307617 q -1.25977,1.889648 -2.22656,2.636719 -0.95215,0.732422 -1.81641,0.732422 -0.74707,0 -1.08399,-0.395508 -0.33691,-0.395508 -0.33691,-0.893555 z" />
                        <path d="m 274.69629,21.356445 q 0.9375,-0.131836 1.50879,-0.205078 0.58594,-0.08789 1.01074,-0.161133 1.72852,-0.336914 1.86035,-0.366211 0.13184,-0.0293 0.20508,-0.0293 0.17578,0.08789 0.17578,0.219726 l -3.44238,13.081055 q 1.8457,-2.72461 3.01758,-3.984375 2.05078,-2.167969 3.76464,-2.167969 0.70313,0 1.34766,0.454102 0.65918,0.439453 0.65918,1.596679 0,0.278321 -0.0732,0.717774 -0.0732,0.439453 -0.17578,0.776367 l -1.97754,7.016601 q -0.0879,0.292969 -0.14649,0.57129 -0.0586,0.263671 -0.0586,0.483398 0,0.249023 0.11719,0.380859 0.11719,0.117188 0.33691,0.117188 0.4541,0 1.06934,-0.629883 0.38086,-0.395508 1.4209,-1.728516 l 0.38086,0.351563 q -1.0254,1.523437 -1.74317,2.226562 -1.27441,1.245118 -2.56348,1.245118 -0.58593,0 -0.98144,-0.366211 -0.39551,-0.366211 -0.39551,-1.054688 0,-0.19043 0.0147,-0.351562 0.0293,-0.175782 0.0879,-0.38086 l 2.25586,-8.583984 q 0.0293,-0.117188 0.0439,-0.234375 0.0293,-0.131836 0.0293,-0.263672 0,-0.366211 -0.21972,-0.571289 -0.23438,-0.205078 -0.60059,-0.205078 -0.98145,0 -2.47559,1.582031 -1.49414,1.567383 -2.51953,3.208008 -0.70312,1.157226 -1.06933,2.182617 Q 275.20898,37.308594 274.18359,41 h -2.2705 l 4.6875,-17.768555 q 0.0439,-0.190429 0.0586,-0.322265 0.0147,-0.131836 0.0147,-0.249024 0,-0.629883 -0.41016,-0.74707 -0.41015,-0.131836 -1.56738,-0.07324 z" />
                     </g>
                  </g>
               </g>
            </g>
         </g>
      </g>
   </svg>
</svg>
