<svg width="1050px" height="392px" version="1.1" xmlns="http://www.w3.org/2000/svg" xmlns:xlink="http://www.w3.org/1999/xlink" overflow="visible" id="kl7ffk2">
   <desc>Engraved by Verovio 5.6.0-85e7620</desc>
   <defs>
      <g id="E050-kl7ffk2">
         <path transform="scale(1,-1)" d="M441 -245c-23 -4 -48 -6 -76 -6c-59 0 -102 7 -130 20c-88 42 -150 93 -187 154c-26 44 -43 103 -48 176c0 6 -1 13 -1 19c0 54 15 111 45 170c29 57 65 106 110 148s96 85 153 127c-3 16 -8 46 -13 92c-4 43 -5 73 -5 89c0 117 16 172 69 257c34 54 64 82 89 82 c21 0 43 -30 69 -92s39 -115 41 -159v-15c0 -109 -21 -162 -67 -241c-13 -20 -63 -90 -98 -118c-13 -9 -25 -19 -37 -29l31 -181c8 1 18 2 28 2c58 0 102 -12 133 -35c59 -43 92 -104 98 -184c1 -7 1 -15 1 -22c0 -123 -87 -209 -181 -248c8 -57 17 -110 25 -162 c5 -31 6 -58 6 -80c0 -30 -5 -53 -14 -70c-35 -64 -88 -99 -158 -103c-5 0 -11 -1 -16 -1c-37 0 -72 10 -108 27c-50 24 -77 59 -80 105v11c0 29 7 55 20 76c18 28 45 42 79 44h6c49 0 93 -42 97 -87v-9c0 -51 -34 -86 -105 -106c17 -24 51 -36 102 -36c62 0 116 43 140 85 c9 16 13 41 13 74c0 20 -1 42 -5 67c-8 53 -18 106 -26 159zM461 939c-95 0 -135 -175 -135 -286c0 -24 2 -48 5 -71c50 39 92 82 127 128c40 53 60 100 60 140v8c-4 53 -22 81 -55 81h-2zM406 119l54 -326c73 25 110 78 110 161c0 7 0 15 -1 23c-7 95 -57 142 -151 142h-12 zM382 117c-72 -2 -128 -47 -128 -120v-7c2 -46 43 -99 75 -115c-3 -2 -7 -5 -10 -10c-70 33 -116 88 -123 172v11c0 68 44 126 88 159c23 17 49 29 78 36l-29 170c-21 -13 -52 -37 -92 -73c-50 -44 -86 -84 -109 -119c-45 -69 -67 -130 -67 -182v-13c5 -68 35 -127 93 -176 s125 -73 203 -73c25 0 50 3 75 9c-19 111 -36 221 -54 331z" />
      </g>
      <g id="E260-kl7ffk2">
         <path transform="scale(1,-1)" d="M20 110c32 16 54 27 93 27c26 0 35 -3 54 -13c13 -7 24 -20 27 -38l4 -25c0 -28 -16 -57 -45 -89c-23 -25 -39 -44 -65 -68l-88 -79v644h20v-359zM90 106c-32 0 -48 -10 -70 -29v-194c31 31 54 59 71 84c21 32 32 59 32 84c0 9 1 16 1 20c0 14 -3 21 -11 30l-8 3z" />
      </g>
      <g id="E084-kl7ffk2">
         <path transform="scale(1,-1)" d="M20 -78c84 97 114 180 134 329h170c-13 -32 -82 -132 -99 -151l-84 -97c-33 -36 -59 -63 -80 -81h162v102l127 123v-225h57v-39h-57v-34c0 -43 19 -65 57 -65v-34h-244v36c48 0 60 26 60 70v27h-203v39z" />
      </g>
      <g id="E0A4-kl7ffk2">
         <path transform="scale(1,-1)" d="M0 -39c0 68 73 172 200 172c66 0 114 -37 114 -95c0 -84 -106 -171 -218 -171c-64 0 -96 30 -96 94z" />
      </g>
      <g id="E4C0-kl7ffk2">
         <path transform="scale(1,-1)" d="M0 0c0 0 40 320 300 320s300 -320 300 -320h-32s-38 227 -268 227s-268 -227 -268 -227h-32zM355 52c0 -30 -25 -55 -55 -55s-55 25 -55 55s25 55 55 55s55 -25 55 -55z" />
      </g>
      <g id="E262-kl7ffk2">
         <path transform="scale(1,-1)" d="M136 186v169h17v-164l44 14v-91l-44 -14v-165l44 12v-91l-44 -13v-155h-17v150l-76 -22v-155h-17v149l-43 -13v90l43 14v167l-43 -14v92l43 13v169h17v-163zM60 73v-167l76 22v168z" />
      </g>
      <g id="E0A3-kl7ffk2">
         <path transform="scale(1,-1)" d="M278 64c0 22 -17 39 -43 39c-12 0 -26 -3 -41 -10c-85 -43 -165 -94 -165 -156c5 -25 15 -32 49 -32c67 11 200 95 200 159zM0 -36c0 68 73 174 200 174c66 0 114 -39 114 -97c0 -84 -106 -173 -218 -173c-64 0 -96 32 -96 96z" />
      </g>
   </defs>
   <style type="text/css">#kl7ffk2 g.page-margin {font-family:Times,serif;}#kl7ffk2 g.ending, #kl7ffk2 g.fing, #kl7ffk2 g.reh, #kl7ffk2 g.tempo {font-weight:bold;}#kl7ffk2 g.dir, #kl7ffk2 g.dynam, #kl7ffk2 g.mNum {font-style:italic;}#kl7ffk2 g.label {font-weight:normal;}#kl7ffk2 path {stroke:currentColor}</style>
   <svg class="definition-scale" color="black" viewBox="0 0 21000 7840">
      <g class="page-margin" transform="translate(500, 500)">
         <g id="mdiv-0000000552917014" class="mdiv pageMilestone" />
         <g id="score-0000001272574010" class="score pageMilestone" />
         <g id="r11i62f0" class="system">
            <g id="section-0000001468343397" class="section systemMilestone" />
            <g id="pb-0000000926028608" class="pb" />
            <g id="measure-0000002144790773" class="measure">
               <g id="staff-0000000034372588" class="staff">
                  <path d="M0 1268 L4450 1268" stroke-width="13" />
                  <path d="M0 1448 L4450 1448" stroke-width="13" />
                  <path d="M0 1628 L4450 1628" stroke-width="13" />
                  <path d="M0 1808 L4450 1808" stroke-width="13" />
                  <path d="M0 1988 L4450 1988" stroke-width="13" />
                  <g id="mx5npc9" class="clef">
                     <use xlink:href="#E050-kl7ffk2" transform="translate(90, 1808) scale(0.72, 0.72)" />
                  </g>
                  <g id="nz9jj0j" class="keySig">
                     <g id="o1tdvpfv" class="keyAccid">
                        <use xlink:href="#E260-kl7ffk2" transform="translate(735, 1628) scale(0.72, 0.72)" />
                     </g>
                  </g>
                  <g id="p1ovzzfa" class="meterSig">
                     <use xlink:href="#E084-kl7ffk2" transform="translate(1043, 1448) scale(0.72, 0.72)" />
                     <use xlink:href="#E084-kl7ffk2" transform="translate(1043, 1808) scale(0.72, 0.72)" />
                  </g>
                  <g id="layer-0000002053967542" class="layer">
                     <g id="note-0000001524720202" class="note">
                        <g class="notehead">
                           <use xlink:href="#E0A4-kl7ffk2" transform="translate(1615, 1628) scale(0.72, 0.72)" />
                        </g>
                        <g id="toxhmas" class="stem">
                           <path d="M1624 1656 L1624 2228" stroke-width="18" />
                        </g>
                        <g id="q57wt7i" class="accid" />
                     </g>
                     <g id="note-0000001883674982" class="note">
                        <g class="notehead">
                           <use xlink:href="#E0A4-kl7ffk2" transform="translate(2320, 1718) scale(0.72, 0.72)" />
                        </g>
                        <g id="u1i9jbah" class="stem">
                           <path d="M2537 1690 L2537 1088" stroke-width="18" />
                        </g>
                     </g>
                     <g id="note-0000000236113239" class="note">
                        <g class="notehead">
                           <use xlink:href="#E0A4-kl7ffk2" transform="translate(3026, 1808) scale(0.72, 0.72)" />
                        </g>
                        <g id="v12jkw14" class="stem">
                           <path d="M3243 1780 L3243 1178" stroke-width="18" />
                        </g>
                     </g>
                     <g id="note-0000000311106693" class="note">
                        <g class="notehead">
                           <use xlink:href="#E0A4-kl7ffk2" transform="translate(3732, 1448) scale(0.72, 0.72)" />
                        </g>
                        <g id="w10oozaq" class="stem">
                           <path d="M3741 1476 L3741 2078" stroke-width="18" />
                        </g>
                     </g>
                  </g>
               </g>
               <g id="mxyi1a8" class="barLine">
                  <path d="M4437 1268 L4437 1988" stroke-width="27" />
               </g>
            </g>
            <g id="measure-0000001192163094" class="measure">
               <g id="staff-0000001035608786" class="staff">
                  <path d="M4450 1268 L7689 1268" stroke-width="13" />
                  <path d="M4450 1448 L7689 1448" stroke-width="13" />
                  <path d="M4450 1628 L7689 1628" stroke-width="13" />
                  <path d="M4450 1808 L7689 1808" stroke-width="13" />
                  <path d="M4450 1988 L7689 1988" stroke-width="13" />
                  <g id="layer-0000001784396853" class="layer">
                     <g id="beam-0000001859759379" class="beam">
                        <polygon stroke-opacity="1" fill-opacity="1" points="4640,2168 5117,2213 5117,2123 4640,2078" />
                        <g id="note-0000001913914112" class="note">
                           <g class="notehead">
                              <use xlink:href="#E0A4-kl7ffk2" transform="translate(4640, 1448) scale(0.72, 0.72)" />
                           </g>
                           <g id="x1omkmkn" class="stem">
                              <path d="M4649 1476 L4649 2150" stroke-width="18" />
                           </g>
                        </g>
                        <g id="note-0000002099480206" class="note">
                           <g class="notehead">
                              <use xlink:href="#E0A4-kl7ffk2" transform="translate(5099, 1538) scale(0.72, 0.72)" />
                           </g>
                           <g id="y1w0rh7g" class="stem">
                              <path d="M5108 1566 L5108 2195" stroke-width="18" />
                           </g>
                        </g>
                     </g>
                     <g id="note-0000001534212258" class="note">
                        <g class="notehead">
                           <use xlink:href="#E0A4-kl7ffk2" transform="translate(5559, 1628) scale(0.72, 0.72)" />
                        </g>
                        <g id="z5deq11" class="stem">
                           <path d="M5568 1656 L5568 2228" stroke-width="18" />
                        </g>
                        <g id="j1ruejdi" class="accid" />
                     </g>
                     <g id="note-0000002061952945" class="note">
                        <g class="notehead">
                           <use xlink:href="#E0A4-kl7ffk2" transform="translate(6264, 1718) scale(0.72, 0.72)" />
                        </g>
                        <g id="a16fw5mw" class="stem">
                           <path d="M6481 1690 L6481 1088" stroke-width="18" />
                        </g>
                     </g>
                     <g id="note-0000001025330648" class="note">
                        <g class="notehead">
                           <use xlink:href="#E0A4-kl7ffk2" transform="translate(6970, 1538) scale(0.72, 0.72)" />
                        </g>
                        <g id="brabj3l" class="stem">
                           <path d="M6979 1566 L6979 2168" stroke-width="18" />
                        </g>
                     </g>
                  </g>
               </g>
               <g id="fermata-0000002013481858" class="fermata">
                  <use xlink:href="#E4C0-kl7ffk2" transform="translate(5456, 1221) scale(0.72, 0.72)" />
               </g>
               <g id="cslu1yg" class="barLine">
                  <path d="M7676 1268 L7676 1988" stroke-width="27" />
               </g>
            </g>
            <g id="measure-0000000667303100" class="measure">
               <g id="staff-0000000873757501" class="staff">
                  <path d="M7689 1268 L10714 1268" stroke-width="13" />
                  <path d="M7689 1448 L10714 1448" stroke-width="13" />
                  <path d="M7689 1628 L10714 1628" stroke-width="13" />
                  <path d="M7689 1808 L10714 1808" stroke-width="13" />
                  <path d="M7689 1988 L10714 1988" stroke-width="13" />
                  <g id="layer-0000001782760727" class="layer">
                     <g id="note-0000000183011132" class="note">
                        <g class="notehead">
                           <use xlink:href="#E0A4-kl7ffk2" transform="translate(7879, 1628) scale(0.72, 0.72)" />
                        </g>
                        <g id="c1ij0ito" class="stem">
                           <path d="M7888 1656 L7888 2228" stroke-width="18" />
                        </g>
                        <g id="zzrfzze" class="accid" />
                     </g>
                     <g id="note-0000001057746298" class="note">
                        <g class="notehead">
                           <use xlink:href="#E0A4-kl7ffk2" transform="translate(8584, 1718) scale(0.72, 0.72)" />
                        </g>
                        <g id="dihw62t" class="stem">
                           <path d="M8801 1690 L8801 1088" stroke-width="18" />
                        </g>
                     </g>
                     <g id="note-0000001134139881" class="note">
                        <g class="notehead">
                           <use xlink:href="#E0A4-kl7ffk2" transform="translate(9290, 1808) scale(0.72, 0.72)" />
                        </g>
                        <g id="ehwtuxq" class="stem">
                           <path d="M9507 1780 L9507 1178" stroke-width="18" />
                        </g>
                     </g>
                     <g id="note-0000001358435879" class="note">
                        <g class="notehead">
                           <use xlink:href="#E0A4-kl7ffk2" transform="translate(9996, 1538) scale(0.72, 0.72)" />
                        </g>
                        <g id="f1a79djj" class="stem">
                           <path d="M10005 1566 L10005 2168" stroke-width="18" />
                        </g>
                     </g>
                  </g>
               </g>
               <g id="v12vx7ss" class="barLine">
                  <path d="M10701 1268 L10701 1988" stroke-width="27" />
               </g>
            </g>
            <g id="measure-0000000735210568" class="measure">
               <g id="staff-0000002055122946" class="staff">
                  <path d="M10714 1268 L13739 1268" stroke-width="13" />
                  <path d="M10714 1448 L13739 1448" stroke-width="13" />
                  <path d="M10714 1628 L13739 1628" stroke-width="13" />
                  <path d="M10714 1808 L13739 1808" stroke-width="13" />
                  <path d="M10714 1988 L13739 1988" stroke-width="13" />
                  <g id="layer-0000001726224877" class="layer">
                     <g id="note-0000002109260274" class="note">
                        <g class="notehead">
                           <use xlink:href="#E0A4-kl7ffk2" transform="translate(10904, 1628) scale(0.72, 0.72)" />
                        </g>
                        <g id="gc8f2ht" class="stem">
                           <path d="M10913 1656 L10913 2228" stroke-width="18" />
                        </g>
                        <g id="p1cozufo" class="accid" />
                     </g>
                     <g id="note-0000000298055390" class="note">
                        <g class="notehead">
                           <use xlink:href="#E0A4-kl7ffk2" transform="translate(11609, 1718) scale(0.72, 0.72)" />
                        </g>
                        <g id="h10kjdib" class="stem">
                           <path d="M11826 1690 L11826 1088" stroke-width="18" />
                        </g>
                     </g>
                     <g id="note-0000001594214663" class="note">
                        <g class="notehead">
                           <use xlink:href="#E0A4-kl7ffk2" transform="translate(12315, 1808) scale(0.72, 0.72)" />
                        </g>
                        <g id="i1rpa21" class="stem">
                           <path d="M12532 1780 L12532 1178" stroke-width="18" />
                        </g>
                     </g>
                     <g id="note-0000001101333840" class="note">
                        <g class="notehead">
                           <use xlink:href="#E0A4-kl7ffk2" transform="translate(13021, 1718) scale(0.72, 0.72)" />
                        </g>
                        <g id="jeylbr4" class="stem">
                           <path d="M13238 1690 L13238 1088" stroke-width="18" />
                        </g>
                     </g>
                  </g>
               </g>
               <g id="fermata-0000001345357986" class="fermata">
                  <use xlink:href="#E4C0-kl7ffk2" transform="translate(12212, 1122) scale(0.72, 0.72)" />
               </g>
               <g id="l1pj0kto" class="barLine">
                  <path d="M13726 1268 L13726 1988" stroke-width="27" />
               </g>
            </g>
            <g id="measure-0000000876265127" class="measure">
               <g id="staff-0000000514715738" class="staff">
                  <path d="M13739 1268 L16764 1268" stroke-width="13" />
                  <path d="M13739 1448 L16764 1448" stroke-width="13" />
                  <path d="M13739 1628 L16764 1628" stroke-width="13" />
                  <path d="M13739 1808 L16764 1808" stroke-width="13" />
                  <path d="M13739 1988 L16764 1988" stroke-width="13" />
                  <g id="layer-0000002004493973" class="layer">
                     <g id="note-0000001395574349" class="note">
                        <g class="notehead">
                           <use xlink:href="#E0A4-kl7ffk2" transform="translate(13929, 1628) scale(0.72, 0.72)" />
                        </g>
                        <g id="k15127oj" class="stem">
                           <path d="M13938 1656 L13938 2228" stroke-width="18" />
                        </g>
                        <g id="g1fztu6e" class="accid" />
                     </g>
                     <g id="note-0000001499471788" class="note">
                        <g class="notehead">
                           <use xlink:href="#E0A4-kl7ffk2" transform="translate(14634, 1718) scale(0.72, 0.72)" />
                        </g>
                        <g id="lxsqb63" class="stem">
                           <path d="M14851 1690 L14851 1088" stroke-width="18" />
                        </g>
                     </g>
                     <g id="note-0000002024533610" class="note">
                        <g class="notehead">
                           <use xlink:href="#E0A4-kl7ffk2" transform="translate(15340, 1808) scale(0.72, 0.72)" />
                        </g>
                        <g id="m1lt4x0r" class="stem">
                           <path d="M15557 1780 L15557 1178" stroke-width="18" />
                        </g>
                     </g>
                     <g id="note-0000002009924944" class="note">
                        <g class="notehead">
                           <use xlink:href="#E0A4-kl7ffk2" transform="translate(16046, 1448) scale(0.72, 0.72)" />
                        </g>
                        <g id="n1o1c751" class="stem">
                           <path d="M16055 1476 L16055 2078" stroke-width="18" />
                        </g>
                     </g>
                  </g>
               </g>
               <g id="c1s4b7dr" class="barLine">
                  <path d="M16751 1268 L16751 1988" stroke-width="27" />
               </g>
            </g>
            <g id="measure-0000001942273620" class="measure">
               <g id="staff-0000001709958364" class="staff">
                  <path d="M16764 1268 L20003 1268" stroke-width="13" />
                  <path d="M16764 1448 L20003 1448" stroke-width="13" />
                  <path d="M16764 1628 L20003 1628" stroke-width="13" />
                  <path d="M16764 1808 L20003 1808" stroke-width="13" />
                  <path d="M16764 1988 L20003 1988" stroke-width="13" />
                  <g id="layer-0000002065882345" class="layer">
                     <g id="beam-0000001859046736" class="beam">
                        <polygon stroke-opacity="1" fill-opacity="1" points="16954,2168 17431,2213 17431,2123 16954,2078" />
                        <g id="note-0000000008529779" class="note">
                           <g class="notehead">
                              <use xlink:href="#E0A4-kl7ffk2" transform="translate(16954, 1448) scale(0.72, 0.72)" />
                           </g>
                           <g id="o1wc0oay" class="stem">
                              <path d="M16963 1476 L16963 2150" stroke-width="18" />
                           </g>
                        </g>
                        <g id="note-0000001676926339" class="note">
                           <g class="notehead">
                              <use xlink:href="#E0A4-kl7ffk2" transform="translate(17413, 1538) scale(0.72, 0.72)" />
                           </g>
                           <g id="p1slt9wj" class="stem">
                              <path d="M17422 1566 L17422 2195" stroke-width="18" />
                           </g>
                        </g>
                     </g>
                     <g id="note-0000000094020639" class="note">
                        <g class="notehead">
                           <use xlink:href="#E0A4-kl7ffk2" transform="translate(17873, 1628) scale(0.72, 0.72)" />
                        </g>
                        <g id="q1onn9cg" class="stem">
                           <path d="M17882 1656 L17882 2228" stroke-width="18" />
                        </g>
                        <g id="zc68nuq" class="accid" />
                     </g>
                     <g id="note-0000000685357298" class="note">
                        <g class="notehead">
                           <use xlink:href="#E0A4-kl7ffk2" transform="translate(18578, 1718) scale(0.72, 0.72)" />
                        </g>
                        <g id="r1ivhlkh" class="stem">
                           <path d="M18795 1690 L18795 1088" stroke-width="18" />
                        </g>
                     </g>
                     <g id="note-0000000335427681" class="note">
                        <g class="notehead">
                           <use xlink:href="#E0A4-kl7ffk2" transform="translate(19284, 1538) scale(0.72, 0.72)" />
                        </g>
                        <g id="sp4c5n6" class="stem">
                           <path d="M19293 1566 L19293 2168" stroke-width="18" />
                        </g>
                     </g>
                  </g>
               </g>
               <g id="fermata-0000002039510182" class="fermata">
                  <use xlink:href="#E4C0-kl7ffk2" transform="translate(18475, 1032) scale(0.72, 0.72)" />
               </g>
               <g id="s5brmxg" class="barLine">
                  <path d="M19990 1268 L19990 1988" stroke-width="27" />
               </g>
            </g>
         </g>
         <g id="u18bcyu1" class="system">
            <g id="measure-0000001286326890" class="measure">
               <g id="a1lqmzu3" class="mNum autogenerated">
                  <text y="3185" text-anchor="middle" font-size="0px">
                     <tspan id="bzz9xk6" class="text">
                        <tspan font-size="324px">7</tspan>
                     </tspan>
                  </text>
               </g>
               <g id="staff-0000000052221504" class="staff">
                  <path d="M0 3428 L4066 3428" stroke-width="13" />
                  <path d="M0 3608 L4066 3608" stroke-width="13" />
                  <path d="M0 3788 L4066 3788" stroke-width="13" />
                  <path d="M0 3968 L4066 3968" stroke-width="13" />
                  <path d="M0 4148 L4066 4148" stroke-width="13" />
                  <g id="wm0kpu4" class="clef">
                     <use xlink:href="#E050-kl7ffk2" transform="translate(90, 3968) scale(0.72, 0.72)" />
                  </g>
                  <g id="x1alwubf" class="keySig">
                     <g id="y107ajh2" class="keyAccid">
                        <use xlink:href="#E260-kl7ffk2" transform="translate(735, 3788) scale(0.72, 0.72)" />
                     </g>
                  </g>
                  <g id="layer-0000000769516092" class="layer">
                     <g id="note-0000001084256649" class="note">
                        <g class="notehead">
                           <use xlink:href="#E0A4-kl7ffk2" transform="translate(1148, 3788) scale(0.72, 0.72)" />
                        </g>
                        <g id="t1akwsbs" class="stem">
                           <path d="M1157 3816 L1157 4388" stroke-width="18" />
                        </g>
                        <g id="pppq46q" class="accid" />
                     </g>
                     <g id="note-0000001639882837" class="note">
                        <g class="notehead">
                           <use xlink:href="#E0A4-kl7ffk2" transform="translate(1875, 3878) scale(0.72, 0.72)" />
                        </g>
                        <g id="utm04h2" class="stem">
                           <path d="M2092 3850 L2092 3248" stroke-width="18" />
                        </g>
                     </g>
                     <g id="note-0000001550044066" class="note">
                        <g class="notehead">
                           <use xlink:href="#E0A4-kl7ffk2" transform="translate(2601, 3968) scale(0.72, 0.72)" />
                        </g>
                        <g id="vymdrlp" class="stem">
                           <path d="M2818 3940 L2818 3338" stroke-width="18" />
                        </g>
                     </g>
                     <g id="note-0000000672298658" class="note">
                        <g class="notehead">
                           <use xlink:href="#E0A4-kl7ffk2" transform="translate(3327, 3698) scale(0.72, 0.72)" />
                        </g>
                        <g id="w1646qv6" class="stem">
                           <path d="M3336 3726 L3336 4328" stroke-width="18" />
                        </g>
                     </g>
                  </g>
               </g>
               <g id="l14suoek" class="barLine">
                  <path d="M4053 3428 L4053 4148" stroke-width="27" />
               </g>
            </g>
            <g id="measure-0000002056195375" class="measure">
               <g id="staff-0000001510852901" class="staff">
                  <path d="M4066 3428 L7165 3428" stroke-width="13" />
                  <path d="M4066 3608 L7165 3608" stroke-width="13" />
                  <path d="M4066 3788 L7165 3788" stroke-width="13" />
                  <path d="M4066 3968 L7165 3968" stroke-width="13" />
                  <path d="M4066 4148 L7165 4148" stroke-width="13" />
                  <g id="layer-0000000852178025" class="layer">
                     <g id="note-0000001894695606" class="note">
                        <g class="notehead">
                           <use xlink:href="#E0A4-kl7ffk2" transform="translate(4247, 3788) scale(0.72, 0.72)" />
                        </g>
                        <g id="x1yhgh54" class="stem">
                           <path d="M4256 3816 L4256 4388" stroke-width="18" />
                        </g>
                        <g id="f377c4p" class="accid" />
                     </g>
                     <g id="note-0000001916981941" class="note">
                        <g class="notehead">
                           <use xlink:href="#E0A4-kl7ffk2" transform="translate(4974, 3878) scale(0.72, 0.72)" />
                        </g>
                        <g id="yem5d0r" class="stem">
                           <path d="M5191 3850 L5191 3248" stroke-width="18" />
                        </g>
                     </g>
                     <g id="note-0000000864327149" class="note">
                        <g class="notehead">
                           <use xlink:href="#E0A4-kl7ffk2" transform="translate(5700, 3968) scale(0.72, 0.72)" />
                        </g>
                        <g id="z1eb3x3t" class="stem">
                           <path d="M5917 3940 L5917 3338" stroke-width="18" />
                        </g>
                     </g>
                     <g id="note-0000000856987919" class="note">
                        <g class="notehead">
                           <use xlink:href="#E0A4-kl7ffk2" transform="translate(6426, 3968) scale(0.72, 0.72)" />
                        </g>
                        <g id="agfzqz6" class="stem">
                           <path d="M6643 3940 L6643 3338" stroke-width="18" />
                        </g>
                     </g>
                  </g>
               </g>
               <g id="b1p1f0v2" class="barLine">
                  <path d="M7152 3428 L7152 4148" stroke-width="27" />
               </g>
            </g>
            <g id="measure-0000000135194777" class="measure">
               <g id="staff-0000001098882360" class="staff">
                  <path d="M7165 3428 L10484 3428" stroke-width="13" />
                  <path d="M7165 3608 L10484 3608" stroke-width="13" />
                  <path d="M7165 3788 L10484 3788" stroke-width="13" />
                  <path d="M7165 3968 L10484 3968" stroke-width="13" />
                  <path d="M7165 4148 L10484 4148" stroke-width="13" />
                  <g id="layer-0000000996848071" class="layer">
                     <g id="note-0000001220854261" class="note">
                        <g class="notehead">
                           <use xlink:href="#E0A4-kl7ffk2" transform="translate(7346, 3878) scale(0.72, 0.72)" />
                        </g>
                        <g id="b11yzrn" class="stem">
                           <path d="M7563 3850 L7563 3248" stroke-width="18" />
                        </g>
                     </g>
                     <g id="note-0000001324465406" class="note">
                        <g class="notehead">
                           <use xlink:href="#E0A4-kl7ffk2" transform="translate(8073, 4058) scale(0.72, 0.72)" />
                        </g>
                        <g id="c1kn9lzk" class="stem">
                           <path d="M8290 4030 L8290 3428" stroke-width="18" />
                        </g>
                     </g>
                     <g id="note-0000000762545082" class="note">
                        <g class="notehead">
                           <use xlink:href="#E0A4-kl7ffk2" transform="translate(8799, 4148) scale(0.72, 0.72)" />
                        </g>
                        <g id="d9sdivg" class="stem">
                           <path d="M9016 4120 L9016 3518" stroke-width="18" />
                        </g>
                     </g>
                     <g id="beam-0000000378627189" class="beam">
                        <polygon stroke-opacity="1" fill-opacity="1" points="9733,3563 10224,3518 10224,3608 9733,3653" />
                        <g id="note-0000000797188936" class="note">
                           <g class="notehead">
                              <use xlink:href="#E0A4-kl7ffk2" transform="translate(9525, 4238) scale(0.72, 0.72)" />
                           </g>
                           <g id="e1e0tbdz" class="stem">
                              <path d="M9742 4210 L9742 3581" stroke-width="18" />
                           </g>
                        </g>
                        <g id="note-0000000006275340" class="note">
                           <g class="notehead">
                              <use xlink:href="#E0A4-kl7ffk2" transform="translate(9998, 4148) scale(0.72, 0.72)" />
                           </g>
                           <g id="f1bfwi2e" class="stem">
                              <path d="M10215 4120 L10215 3536" stroke-width="18" />
                           </g>
                        </g>
                     </g>
                  </g>
               </g>
               <g id="r1fo525g" class="barLine">
                  <path d="M10471 3428 L10471 4148" stroke-width="27" />
               </g>
            </g>
            <g id="sb-0000002037002837" class="sb" />
            <g id="measure-0000000612275368" class="measure">
               <g id="staff-0000000418510441" class="staff">
                  <path d="M10484 3428 L13583 3428" stroke-width="13" />
                  <path d="M10484 3608 L13583 3608" stroke-width="13" />
                  <path d="M10484 3788 L13583 3788" stroke-width="13" />
                  <path d="M10484 3968 L13583 3968" stroke-width="13" />
                  <path d="M10484 4148 L13583 4148" stroke-width="13" />
                  <g id="layer-0000002087954068" class="layer">
                     <g id="note-0000000075800497" class="note">
                        <g class="notehead">
                           <use xlink:href="#E0A4-kl7ffk2" transform="translate(10665, 4058) scale(0.72, 0.72)" />
                        </g>
                        <g id="gcisxcr" class="stem">
                           <path d="M10882 4030 L10882 3428" stroke-width="18" />
                        </g>
                     </g>
                     <g id="note-0000000119073495" class="note">
                        <g class="notehead">
                           <use xlink:href="#E0A4-kl7ffk2" transform="translate(11392, 3968) scale(0.72, 0.72)" />
                        </g>
                        <g id="h19gz543" class="stem">
                           <path d="M11609 3940 L11609 3338" stroke-width="18" />
                        </g>
                     </g>
                     <g id="note-0000000372964887" class="note">
                        <g class="notehead">
                           <use xlink:href="#E0A4-kl7ffk2" transform="translate(12118, 3878) scale(0.72, 0.72)" />
                        </g>
                        <g id="i1les2y4" class="stem">
                           <path d="M12335 3850 L12335 3248" stroke-width="18" />
                        </g>
                     </g>
                     <g id="note-0000001211922469" class="note">
                        <g class="notehead">
                           <use xlink:href="#E0A4-kl7ffk2" transform="translate(12844, 4058) scale(0.72, 0.72)" />
                        </g>
                        <g id="j1p32wkz" class="stem">
                           <path d="M13061 4030 L13061 3428" stroke-width="18" />
                        </g>
                     </g>
                  </g>
               </g>
               <g id="fermata-0000001351329884" class="fermata">
                  <use xlink:href="#E4C0-kl7ffk2" transform="translate(12015, 3192) scale(0.72, 0.72)" />
               </g>
               <g id="jvsh6zf" class="barLine">
                  <path d="M13570 3428 L13570 4148" stroke-width="27" />
               </g>
            </g>
            <g id="measure-0000001750754146" class="measure">
               <g id="staff-0000000735234557" class="staff">
                  <path d="M13583 3428 L16902 3428" stroke-width="13" />
                  <path d="M13583 3608 L16902 3608" stroke-width="13" />
                  <path d="M13583 3788 L16902 3788" stroke-width="13" />
                  <path d="M13583 3968 L16902 3968" stroke-width="13" />
                  <path d="M13583 4148 L16902 4148" stroke-width="13" />
                  <g id="layer-0000000474586810" class="layer">
                     <g id="beam-0000000092009561" class="beam">
                        <polygon stroke-opacity="1" fill-opacity="1" points="13972,3248 14463,3203 14463,3293 13972,3338" />
                        <g id="note-0000001855263079" class="note">
                           <g class="notehead">
                              <use xlink:href="#E0A4-kl7ffk2" transform="translate(13764, 3968) scale(0.72, 0.72)" />
                           </g>
                           <g id="k3how4q" class="stem">
                              <path d="M13981 3940 L13981 3266" stroke-width="18" />
                           </g>
                        </g>
                        <g id="note-0000001546796796" class="note">
                           <g class="notehead">
                              <use xlink:href="#E0A4-kl7ffk2" transform="translate(14237, 3878) scale(0.72, 0.72)" />
                           </g>
                           <g id="l1jzm1tw" class="stem">
                              <path d="M14454 3850 L14454 3221" stroke-width="18" />
                           </g>
                        </g>
                     </g>
                     <g id="note-0000001717484517" class="note">
                        <g class="notehead">
                           <use xlink:href="#E0A4-kl7ffk2" transform="translate(14711, 3788) scale(0.72, 0.72)" />
                        </g>
                        <g id="m17zwmkr" class="stem">
                           <path d="M14720 3816 L14720 4388" stroke-width="18" />
                        </g>
                        <g id="g4fove1" class="accid" />
                     </g>
                     <g id="note-0000000965601466" class="note">
                        <g class="notehead">
                           <use xlink:href="#E0A4-kl7ffk2" transform="translate(15437, 3878) scale(0.72, 0.72)" />
                        </g>
                        <g id="ncqefw6" class="stem">
                           <path d="M15654 3850 L15654 3248" stroke-width="18" />
                        </g>
                     </g>
                     <g id="note-0000001074222334" class="note">
                        <g class="notehead">
                           <use xlink:href="#E0A4-kl7ffk2" transform="translate(16163, 3788) scale(0.72, 0.72)" />
                        </g>
                        <g id="oxyeo6d" class="stem">
                           <path d="M16172 3816 L16172 4388" stroke-width="18" />
                        </g>
                        <g id="j1n4p5gx" class="accid" />
                     </g>
                  </g>
               </g>
               <g id="z3h2vj7" class="barLine">
                  <path d="M16889 3428 L16889 4148" stroke-width="27" />
               </g>
            </g>
            <g id="measure-0000000129837174" class="measure">
               <g id="staff-0000000468077436" class="staff">
                  <path d="M16902 3428 L20001 3428" stroke-width="13" />
                  <path d="M16902 3608 L20001 3608" stroke-width="13" />
                  <path d="M16902 3788 L20001 3788" stroke-width="13" />
                  <path d="M16902 3968 L20001 3968" stroke-width="13" />
                  <path d="M16902 4148 L20001 4148" stroke-width="13" />
                  <g id="layer-0000000007318022" class="layer">
                     <g id="note-0000001917776991" class="note">
                        <g class="notehead">
                           <use xlink:href="#E0A4-kl7ffk2" transform="translate(17083, 3968) scale(0.72, 0.72)" />
                        </g>
                        <g id="pok96bl" class="stem">
                           <path d="M17300 3940 L17300 3338" stroke-width="18" />
                        </g>
                     </g>
                     <g id="note-0000000087857274" class="note">
                        <g class="notehead">
                           <use xlink:href="#E0A4-kl7ffk2" transform="translate(17810, 4058) scale(0.72, 0.72)" />
                        </g>
                        <g id="q123yw1u" class="stem">
                           <path d="M18027 4030 L18027 3428" stroke-width="18" />
                        </g>
                        <g id="accid-0000001634950074" class="accid">
                           <use xlink:href="#E262-kl7ffk2" transform="translate(17624, 4058) scale(0.72, 0.72)" />
                        </g>
                     </g>
                     <g id="note-0000000443643298" class="note">
                        <g class="notehead">
                           <use xlink:href="#E0A4-kl7ffk2" transform="translate(18536, 3968) scale(0.72, 0.72)" />
                        </g>
                        <g id="r18aj58i" class="stem">
                           <path d="M18753 3940 L18753 3338" stroke-width="18" />
                        </g>
                     </g>
                     <g id="note-0000000812967169" class="note">
                        <g class="notehead">
                           <use xlink:href="#E0A4-kl7ffk2" transform="translate(19262, 3968) scale(0.72, 0.72)" />
                        </g>
                        <g id="s1qldnj5" class="stem">
                           <path d="M19479 3940 L19479 3338" stroke-width="18" />
                        </g>
                     </g>
                  </g>
               </g>
               <g id="fermata-0000002013823353" class="fermata">
                  <use xlink:href="#E4C0-kl7ffk2" transform="translate(18433, 3282) scale(0.72, 0.72)" />
               </g>
               <g id="s1c4ddjr" class="barLine">
                  <path d="M19988 3428 L19988 4148" stroke-width="27" />
               </g>
            </g>
         </g>
         <g id="x1ju9e7z" class="system">
            <g id="measure-0000000794179580" class="measure">
               <g id="m170z6pp" class="mNum autogenerated">
                  <text y="5345" text-anchor="middle" font-size="0px">
                     <tspan id="nlnt3zg" class="text">
                        <tspan font-size="324px">13</tspan>
                     </tspan>
                  </text>
               </g>
               <g id="staff-0000000737961334" class="staff">
                  <path d="M0 5588 L4052 5588" stroke-width="13" />
                  <path d="M0 5768 L4052 5768" stroke-width="13" />
                  <path d="M0 5948 L4052 5948" stroke-width="13" />
                  <path d="M0 6128 L4052 6128" stroke-width="13" />
                  <path d="M0 6308 L4052 6308" stroke-width="13" />
                  <g id="f1vdf701" class="clef">
                     <use xlink:href="#E050-kl7ffk2" transform="translate(90, 6128) scale(0.72, 0.72)" />
                  </g>
                  <g id="g1gf5qcs" class="keySig">
                     <g id="h2a3w0r" class="keyAccid">
                        <use xlink:href="#E260-kl7ffk2" transform="translate(735, 5948) scale(0.72, 0.72)" />
                     </g>
                  </g>
                  <g id="layer-0000000161278180" class="layer">
                     <g id="note-0000001066464016" class="note">
                        <g class="notehead">
                           <use xlink:href="#E0A4-kl7ffk2" transform="translate(1147, 5768) scale(0.72, 0.72)" />
                        </g>
                        <g id="t133ixxc" class="stem">
                           <path d="M1156 5796 L1156 6398" stroke-width="18" />
                        </g>
                     </g>
                     <g id="note-0000000228362448" class="note">
                        <g class="notehead">
                           <use xlink:href="#E0A4-kl7ffk2" transform="translate(1870, 5948) scale(0.72, 0.72)" />
                        </g>
                        <g id="u1yg8s2g" class="stem">
                           <path d="M1879 5976 L1879 6548" stroke-width="18" />
                        </g>
                        <g id="o1g80bw5" class="accid" />
                     </g>
                     <g id="note-0000001501222754" class="note">
                        <g class="notehead">
                           <use xlink:href="#E0A4-kl7ffk2" transform="translate(2593, 5858) scale(0.72, 0.72)" />
                        </g>
                        <g id="v1a5e5vg" class="stem">
                           <path d="M2602 5886 L2602 6488" stroke-width="18" />
                        </g>
                     </g>
                     <g id="note-0000000213968593" class="note">
                        <g class="notehead">
                           <use xlink:href="#E0A4-kl7ffk2" transform="translate(3316, 5768) scale(0.72, 0.72)" />
                        </g>
                        <g id="wksr0f1" class="stem">
                           <path d="M3325 5796 L3325 6398" stroke-width="18" />
                        </g>
                     </g>
                  </g>
               </g>
               <g id="j1b4wufv" class="barLine">
                  <path d="M4039 5588 L4039 6308" stroke-width="27" />
               </g>
            </g>
            <g id="measure-0000000502580664" class="measure">
               <g id="staff-0000002039756465" class="staff">
                  <path d="M4052 5588 L6791 5588" stroke-width="13" />
                  <path d="M4052 5768 L6791 5768" stroke-width="13" />
                  <path d="M4052 5948 L6791 5948" stroke-width="13" />
                  <path d="M4052 6128 L6791 6128" stroke-width="13" />
                  <path d="M4052 6308 L6791 6308" stroke-width="13" />
                  <g id="layer-0000001651009201" class="layer">
                     <g id="note-0000001667829401" class="note">
                        <g class="notehead">
                           <use xlink:href="#E0A4-kl7ffk2" transform="translate(4232, 5858) scale(0.72, 0.72)" />
                        </g>
                        <g id="xgl23x1" class="stem">
                           <path d="M4241 5886 L4241 6488" stroke-width="18" />
                        </g>
                     </g>
                     <g id="note-0000001505009316" class="note">
                        <g class="notehead">
                           <use xlink:href="#E0A4-kl7ffk2" transform="translate(4955, 5948) scale(0.72, 0.72)" />
                        </g>
                        <g id="y1qehnbk" class="stem">
                           <path d="M4964 5976 L4964 6548" stroke-width="18" />
                        </g>
                        <g id="ek7o564" class="accid" />
                     </g>
                     <g id="note-0000000376057527" class="note">
                        <g class="notehead">
                           <use xlink:href="#E0A3-kl7ffk2" transform="translate(5678, 6038) scale(0.72, 0.72)" />
                        </g>
                        <g id="z189qp8o" class="stem">
                           <path d="M5895 6010 L5895 5408" stroke-width="18" />
                        </g>
                     </g>
                  </g>
               </g>
               <g id="zh8k613" class="barLine">
                  <path d="M6778 5588 L6778 6308" stroke-width="27" />
               </g>
            </g>
            <g id="measure-0000000181740878" class="measure">
               <g id="staff-0000000489342864" class="staff">
                  <path d="M6791 5588 L8550 5588" stroke-width="13" />
                  <path d="M6791 5768 L8550 5768" stroke-width="13" />
                  <path d="M6791 5948 L8550 5948" stroke-width="13" />
                  <path d="M6791 6128 L8550 6128" stroke-width="13" />
                  <path d="M6791 6308 L8550 6308" stroke-width="13" />
                  <g id="layer-0000001283686403" class="layer">
                     <g id="note-0000001284054805" class="note">
                        <g class="notehead">
                           <use xlink:href="#E0A3-kl7ffk2" transform="translate(6971, 6038) scale(0.72, 0.72)" />
                        </g>
                        <g id="bvnbf2k" class="dots">
                           <ellipse cx="7287" cy="6038" rx="36" ry="36" fill-opacity="1" stroke-opacity="1" />
                        </g>
                        <g id="a1aexdad" class="stem">
                           <path d="M7188 6010 L7188 5408" stroke-width="18" />
                        </g>
                     </g>
                  </g>
               </g>
               <g id="fermata-0000001940304078" class="fermata">
                  <use xlink:href="#E4C0-kl7ffk2" transform="translate(6868, 5352) scale(0.72, 0.72)" />
               </g>
               <g id="odg44no" class="barLine">
                  <path d="M8375 5588 L8375 6308" stroke-width="27" />
                  <path d="M8505 5588 L8505 6308" stroke-width="90" />
               </g>
            </g>
            <g id="a1n84xmf" class="systemMilestoneEnd section-0000001468343397" />
         </g>
         <g id="bn7ojtg" class="pageMilestoneEnd score-0000001272574010" />
         <g id="c1om8wct" class="pageMilestoneEnd mdiv-0000000552917014" />
         <g id="d12zrxh" class="pgHead autogenerated">
            <text font-size="0px">
               <tspan id="e17gwv3z" class="rend" x="10000" y="416" text-anchor="middle">
                  <title class="labelAttr">title</title>
                  <tspan id="ffbdwcv" class="rend">
                     <tspan id="ghxkjn6" class="text">
                        <tspan font-size="607px">Bach - Cantata BWV 2, Movement 6, Soprano</tspan>
                     </tspan>
                  </tspan>
               </tspan>
            </text>
         </g>
      </g>
   </svg>
</svg>
