<svg width="1050px" height="272px" version="1.1" xmlns="http://www.w3.org/2000/svg" xmlns:xlink="http://www.w3.org/1999/xlink" overflow="visible" id="vclq3dk">
   <desc>Engraved by Verovio 5.6.0-85e7620</desc>
   <defs>
      <g id="E050-vclq3dk">
         <path transform="scale(1,-1)" d="M441 -245c-23 -4 -48 -6 -76 -6c-59 0 -102 7 -130 20c-88 42 -150 93 -187 154c-26 44 -43 103 -48 176c0 6 -1 13 -1 19c0 54 15 111 45 170c29 57 65 106 110 148s96 85 153 127c-3 16 -8 46 -13 92c-4 43 -5 73 -5 89c0 117 16 172 69 257c34 54 64 82 89 82 c21 0 43 -30 69 -92s39 -115 41 -159v-15c0 -109 -21 -162 -67 -241c-13 -20 -63 -90 -98 -118c-13 -9 -25 -19 -37 -29l31 -181c8 1 18 2 28 2c58 0 102 -12 133 -35c59 -43 92 -104 98 -184c1 -7 1 -15 1 -22c0 -123 -87 -209 -181 -248c8 -57 17 -110 25 -162 c5 -31 6 -58 6 -80c0 -30 -5 -53 -14 -70c-35 -64 -88 -99 -158 -103c-5 0 -11 -1 -16 -1c-37 0 -72 10 -108 27c-50 24 -77 59 -80 105v11c0 29 7 55 20 76c18 28 45 42 79 44h6c49 0 93 -42 97 -87v-9c0 -51 -34 -86 -105 -106c17 -24 51 -36 102 -36c62 0 116 43 140 85 c9 16 13 41 13 74c0 20 -1 42 -5 67c-8 53 -18 106 -26 159zM461 939c-95 0 -135 -175 -135 -286c0 -24 2 -48 5 -71c50 39 92 82 127 128c40 53 60 100 60 140v8c-4 53 -22 81 -55 81h-2zM406 119l54 -326c73 25 110 78 110 161c0 7 0 15 -1 23c-7 95 -57 142 -151 142h-12 zM382 117c-72 -2 -128 -47 -128 -120v-7c2 -46 43 -99 75 -115c-3 -2 -7 -5 -10 -10c-70 33 -116 88 -123 172v11c0 68 44 126 88 159c23 17 49 29 78 36l-29 170c-21 -13 -52 -37 -92 -73c-50 -44 -86 -84 -109 -119c-45 -69 -67 -130 -67 -182v-13c5 -68 35 -127 93 -176 s125 -73 203 -73c25 0 50 3 75 9c-19 111 -36 221 -54 331z" />
      </g>
      <g id="E260-vclq3dk">
         <path transform="scale(1,-1)" d="M20 110c32 16 54 27 93 27c26 0 35 -3 54 -13c13 -7 24 -20 27 -38l4 -25c0 -28 -16 -57 -45 -89c-23 -25 -39 -44 -65 -68l-88 -79v644h20v-359zM90 106c-32 0 -48 -10 -70 -29v-194c31 31 54 59 71 84c21 32 32 59 32 84c0 9 1 16 1 20c0 14 -3 21 -11 30l-8 3z" />
      </g>
      <g id="E0A4-vclq3dk">
         <path transform="scale(1,-1)" d="M0 -39c0 68 73 172 200 172c66 0 114 -37 114 -95c0 -84 -106 -171 -218 -171c-64 0 -96 30 -96 94z" />
      </g>
      <g id="E0A3-vclq3dk">
         <path transform="scale(1,-1)" d="M278 64c0 22 -17 39 -43 39c-12 0 -26 -3 -41 -10c-85 -43 -165 -94 -165 -156c5 -25 15 -32 49 -32c67 11 200 95 200 159zM0 -36c0 68 73 174 200 174c66 0 114 -39 114 -97c0 -84 -106 -173 -218 -173c-64 0 -96 32 -96 96z" />
      </g>
      <g id="E4E5-vclq3dk">
         <path transform="scale(1,-1)" d="M107 292c-13 24 -30 49 -52 71c-1 1 0 2 0 3l-2 2c3 3 4 4 6 4c12 0 26 -7 40 -20s44 -40 89 -81c26 -24 28 -29 46 -47c4 -4 8 -9 10 -14c6 -8 8 -16 8 -27c0 -19 -12 -40 -36 -61c-28 -23 -49 -38 -61 -73c-4 -11 -7 -27 -10 -50c13 -43 34 -83 59 -121 c31 -47 59 -79 101 -129c-8 0 -26 7 -54 20l-62 29l-21 6l-23 1c-25 0 -45 -10 -60 -30l-4 -14l-1 -12c0 -33 20 -56 39 -78c8 -9 17 -18 26 -26c17 -15 27 -24 28 -30l-3 -3c-11 5 -19 10 -25 15c-9 3 -37 21 -45 26c-24 14 -45 32 -63 51c-19 21 -37 44 -37 71 c0 63 27 95 80 95c41 0 86 -18 136 -52c-19 26 -37 48 -55 66c-23 23 -48 44 -73 65c-28 23 -47 40 -58 53s-17 26 -18 39c75 64 113 125 113 183c0 27 -7 48 -18 68z" />
      </g>
      <g id="E07C-vclq3dk">
         <path transform="scale(1,-1)" d="M509 -105c0 28 22 51 50 51s51 -23 51 -51s-23 -51 -51 -51s-50 23 -50 51zM509 105c0 28 22 51 50 51s51 -23 51 -51s-23 -51 -51 -51s-50 23 -50 51zM138 84c43 0 63 -11 77 -43l14 -34c0 -16 -2 -27 -6 -35c-2 -9 -8 -17 -17 -27c-22 -24 -49 -38 -73 -38 c-43 0 -63 8 -98 39c-20 18 -31 47 -31 87c0 34 9 65 28 98c26 45 62 69 120 81l32 6l22 1c125 0 203 -51 240 -159c10 -30 15 -61 15 -93c0 -83 -19 -154 -59 -219c-70 -115 -185 -194 -360 -251l-26 -5c-8 0 -13 3 -13 7c2 7 3 8 9 14c47 20 66 30 84 39l68 37 c89 53 143 125 172 226c13 48 17 60 20 87c3 19 4 31 5 34c-5 51 -12 95 -20 123c-8 30 -5 22 -14 35c-6 9 -14 17 -27 29c-29 26 -64 39 -103 39c-44 0 -75 -8 -99 -25c-24 -16 -37 -38 -37 -64v-14c2 -4 3 -7 4 -9c25 23 49 34 73 34z" />
      </g>
      <g id="E062-vclq3dk">
         <path transform="scale(1,-1)" d="M582 -120c0 32 26 58 58 58s58 -26 58 -58s-26 -58 -58 -58s-58 26 -58 58zM582 120c0 32 26 58 58 58s58 -26 58 -58s-26 -58 -58 -58s-58 26 -58 58zM158 96c51 0 73 -14 88 -49l16 -39c0 -17 -2 -30 -7 -40c-3 -11 -10 -21 -19 -31c-17 -18 -49 -43 -84 -43 c-55 0 -77 13 -112 44c-24 21 -35 55 -35 100c0 46 14 81 32 112c30 52 71 79 137 93l36 6l26 2c154 0 235 -68 274 -182c11 -32 18 -68 18 -107c0 -103 -26 -182 -68 -250c-89 -145 -234 -230 -412 -288l-30 -5c-9 0 -14 3 -14 8c3 10 5 11 10 16c35 15 70 30 96 44l78 43 c96 57 162 136 197 258c9 33 17 60 22 100c3 22 5 35 6 39c-7 69 -16 115 -23 140s-4 22 -16 40c-8 12 -19 23 -31 34c-24 21 -62 44 -118 44c-48 0 -84 -8 -113 -28c-28 -19 -42 -44 -42 -73v-16c2 -5 3 -9 4 -11c24 22 52 39 84 39z" />
      </g>
   </defs>
   <style type="text/css">#vclq3dk g.page-margin {font-family:Times,serif;}#vclq3dk g.ending, #vclq3dk g.fing, #vclq3dk g.reh, #vclq3dk g.tempo {font-weight:bold;}#vclq3dk g.dir, #vclq3dk g.dynam, #vclq3dk g.mNum {font-style:italic;}#vclq3dk g.label {font-weight:normal;}#vclq3dk path {stroke:currentColor}</style>
   <svg class="definition-scale" color="black" viewBox="0 0 21000 5430">
      <g class="page-margin" transform="translate(500, 500)">
         <g id="mot1oph" class="system">
            <g id="m352ecs" class="measure">
               <g id="vdpjyqi" class="mNum autogenerated">
                  <text y="767" text-anchor="middle" font-size="0px">
                     <tspan id="w1mdoty4" class="text">
                        <tspan font-size="324px">181</tspan>
                     </tspan>
                  </text>
               </g>
               <g id="s19csu9" class="staff">
                  <path d="M0 1010 L3864 1010" stroke-width="13" />
                  <path d="M0 1190 L3864 1190" stroke-width="13" />
                  <path d="M0 1370 L3864 1370" stroke-width="13" />
                  <path d="M0 1550 L3864 1550" stroke-width="13" />
                  <path d="M0 1730 L3864 1730" stroke-width="13" />
                  <g id="xnhtau8" class="clef">
                     <use xlink:href="#E050-vclq3dk" transform="translate(90, 1550) scale(0.72, 0.72)" />
                  </g>
                  <g id="yuux7oy" class="keySig">
                     <g id="zq3xjqg" class="keyAccid">
                        <use xlink:href="#E260-vclq3dk" transform="translate(735, 1370) scale(0.72, 0.72)" />
                     </g>
                     <g id="adnh09u" class="keyAccid">
                        <use xlink:href="#E260-vclq3dk" transform="translate(915, 1100) scale(0.72, 0.72)" />
                     </g>
                     <g id="b62anli" class="keyAccid">
                        <use xlink:href="#E260-vclq3dk" transform="translate(1095, 1460) scale(0.72, 0.72)" />
                     </g>
                     <g id="coxicd5" class="keyAccid">
                        <use xlink:href="#E260-vclq3dk" transform="translate(1275, 1190) scale(0.72, 0.72)" />
                     </g>
                  </g>
                  <g class="ledgerLines above">
                     <path d="M1636 830 L1958 830" stroke-width="22" />
                     <path d="M2358 830 L2680 830" stroke-width="22" />
                     <path d="M3081 830 L3403 830" stroke-width="22" />
                     <path d="M1636 650 L1958 650" stroke-width="22" />
                  </g>
                  <g id="loqaf92" class="layer">
                     <g id="nm8z8ft" class="note">
                        <g class="notehead">
                           <use xlink:href="#E0A4-vclq3dk" transform="translate(1684, 650) scale(0.72, 0.72)" />
                        </g>
                        <g id="m6anon4" class="stem">
                           <path d="M1693 678 L1693 1370" stroke-width="18" />
                        </g>
                     </g>
                     <g id="nr18cez" class="note">
                        <g class="notehead">
                           <use xlink:href="#E0A4-vclq3dk" transform="translate(2406, 830) scale(0.72, 0.72)" />
                        </g>
                        <g id="n3cxmt6" class="stem">
                           <path d="M2415 858 L2415 1460" stroke-width="18" />
                        </g>
                        <g id="l1ap6e2y" class="accid" />
                     </g>
                     <g id="nmbwu61" class="note">
                        <g class="notehead">
                           <use xlink:href="#E0A4-vclq3dk" transform="translate(3129, 830) scale(0.72, 0.72)" />
                        </g>
                        <g id="oyrg2l3" class="stem">
                           <path d="M3138 858 L3138 1460" stroke-width="18" />
                        </g>
                        <g id="n1z1412l" class="accid" />
                     </g>
                  </g>
               </g>
               <g id="g1guim7v" class="barLine">
                  <path d="M3851 1010 L3851 1730" stroke-width="27" />
               </g>
            </g>
            <g id="sckvc7x" class="sb" />
            <g id="mj2ir23" class="measure">
               <g id="st2wbfw" class="staff">
                  <path d="M3864 1010 L6221 1010" stroke-width="13" />
                  <path d="M3864 1190 L6221 1190" stroke-width="13" />
                  <path d="M3864 1370 L6221 1370" stroke-width="13" />
                  <path d="M3864 1550 L6221 1550" stroke-width="13" />
                  <path d="M3864 1730 L6221 1730" stroke-width="13" />
                  <g class="ledgerLines above">
                     <path d="M3993 830 L4315 830" stroke-width="22" />
                  </g>
                  <g id="laq05m5" class="layer">
                     <g id="ngspgao" class="note">
                        <g class="notehead">
                           <use xlink:href="#E0A4-vclq3dk" transform="translate(4041, 740) scale(0.72, 0.72)" />
                        </g>
                        <g id="p1tdzxg7" class="stem">
                           <path d="M4050 768 L4050 1370" stroke-width="18" />
                        </g>
                        <g id="bg9pgdp" class="accid" />
                     </g>
                     <g id="nvz83jb" class="note">
                        <g class="notehead">
                           <use xlink:href="#E0A4-vclq3dk" transform="translate(4763, 920) scale(0.72, 0.72)" />
                        </g>
                        <g id="q1vygtee" class="stem">
                           <path d="M4772 948 L4772 1550" stroke-width="18" />
                        </g>
                     </g>
                     <g id="nxzga9q" class="note">
                        <g class="notehead">
                           <use xlink:href="#E0A4-vclq3dk" transform="translate(5486, 920) scale(0.72, 0.72)" />
                        </g>
                        <g id="r18zwt3z" class="stem">
                           <path d="M5495 948 L5495 1550" stroke-width="18" />
                        </g>
                     </g>
                  </g>
               </g>
               <g id="x18szt8k" class="barLine">
                  <path d="M6208 1010 L6208 1730" stroke-width="27" />
               </g>
            </g>
            <g id="midfuun" class="measure">
               <g id="s8qkmkz" class="staff">
                  <path d="M6221 1010 L8578 1010" stroke-width="13" />
                  <path d="M6221 1190 L8578 1190" stroke-width="13" />
                  <path d="M6221 1370 L8578 1370" stroke-width="13" />
                  <path d="M6221 1550 L8578 1550" stroke-width="13" />
                  <path d="M6221 1730 L8578 1730" stroke-width="13" />
                  <g class="ledgerLines above">
                     <path d="M6350 830 L6672 830" stroke-width="22" />
                  </g>
                  <g id="lg78uwy" class="layer">
                     <g id="nj75uyh" class="note">
                        <g class="notehead">
                           <use xlink:href="#E0A4-vclq3dk" transform="translate(6398, 830) scale(0.72, 0.72)" />
                        </g>
                        <g id="s6rkpvx" class="stem">
                           <path d="M6407 858 L6407 1460" stroke-width="18" />
                        </g>
                        <g id="q146np3" class="accid" />
                     </g>
                     <g id="nm4z1ut" class="note">
                        <g class="notehead">
                           <use xlink:href="#E0A4-vclq3dk" transform="translate(7120, 1010) scale(0.72, 0.72)" />
                        </g>
                        <g id="t49yooc" class="stem">
                           <path d="M7129 1038 L7129 1640" stroke-width="18" />
                        </g>
                     </g>
                     <g id="nc2mj0j" class="note">
                        <g class="notehead">
                           <use xlink:href="#E0A4-vclq3dk" transform="translate(7843, 1010) scale(0.72, 0.72)" />
                        </g>
                        <g id="u16w8xr8" class="stem">
                           <path d="M7852 1038 L7852 1640" stroke-width="18" />
                        </g>
                     </g>
                  </g>
               </g>
               <g id="m1k8z36p" class="barLine">
                  <path d="M8565 1010 L8565 1730" stroke-width="27" />
               </g>
            </g>
            <g id="mhucl0g" class="measure">
               <g id="sg43g3k" class="staff">
                  <path d="M8578 1010 L10590 1010" stroke-width="13" />
                  <path d="M8578 1190 L10590 1190" stroke-width="13" />
                  <path d="M8578 1370 L10590 1370" stroke-width="13" />
                  <path d="M8578 1550 L10590 1550" stroke-width="13" />
                  <path d="M8578 1730 L10590 1730" stroke-width="13" />
                  <g id="ljal61h" class="layer">
                     <g id="nseyauy" class="note">
                        <g class="notehead">
                           <use xlink:href="#E0A3-vclq3dk" transform="translate(8755, 1010) scale(0.72, 0.72)" />
                        </g>
                        <g id="vjxi85o" class="stem">
                           <path d="M8764 1035 L8764 1640" stroke-width="18" />
                        </g>
                     </g>
                     <g id="nvtavlv" class="note">
                        <g class="notehead">
                           <use xlink:href="#E0A4-vclq3dk" transform="translate(9854, 920) scale(0.72, 0.72)" />
                        </g>
                        <g id="w1ige2lx" class="stem">
                           <path d="M9863 948 L9863 1550" stroke-width="18" />
                        </g>
                     </g>
                  </g>
               </g>
               <g id="b1bqtf2v" class="barLine">
                  <path d="M10577 1010 L10577 1730" stroke-width="27" />
               </g>
            </g>
            <g id="mr4q2ob" class="measure">
               <g id="s1ai5ps" class="staff">
                  <path d="M10590 1010 L13167 1010" stroke-width="13" />
                  <path d="M10590 1190 L13167 1190" stroke-width="13" />
                  <path d="M10590 1370 L13167 1370" stroke-width="13" />
                  <path d="M10590 1550 L13167 1550" stroke-width="13" />
                  <path d="M10590 1730 L13167 1730" stroke-width="13" />
                  <g id="lsgmr78" class="layer">
                     <g id="nw048s1" class="note">
                        <g class="notehead">
                           <use xlink:href="#E0A4-vclq3dk" transform="translate(10767, 1010) scale(0.72, 0.72)" />
                        </g>
                        <g id="x1ot6aw2" class="stem">
                           <path d="M10776 1038 L10776 1640" stroke-width="18" />
                        </g>
                     </g>
                     <g id="rebc9sl" class="rest">
                        <use xlink:href="#E4E5-vclq3dk" transform="translate(11489, 1370) scale(0.72, 0.72)" />
                     </g>
                     <g id="bsfngxk" class="beam">
                        <polygon stroke-opacity="1" fill-opacity="1" points="12212,1820 12701,1865 12701,1775 12212,1730" />
                        <g id="nj9ugsj" class="note">
                           <g class="notehead">
                              <use xlink:href="#E0A4-vclq3dk" transform="translate(12212, 1100) scale(0.72, 0.72)" />
                           </g>
                           <g id="y1y1tar4" class="stem">
                              <path d="M12221 1128 L12221 1802" stroke-width="18" />
                           </g>
                           <g id="vzye3o5" class="accid" />
                        </g>
                        <g id="n6w0fiz" class="note">
                           <g class="notehead">
                              <use xlink:href="#E0A4-vclq3dk" transform="translate(12683, 1190) scale(0.72, 0.72)" />
                           </g>
                           <g id="z1be3fav" class="stem">
                              <path d="M12692 1218 L12692 1847" stroke-width="18" />
                           </g>
                           <g id="x8zqrke" class="accid" />
                        </g>
                     </g>
                  </g>
               </g>
               <g id="oi7k3ik" class="barLine">
                  <path d="M13154 1010 L13154 1730" stroke-width="27" />
               </g>
            </g>
            <g id="mmndc0p" class="measure">
               <g id="s9wm4f9" class="staff">
                  <path d="M13167 1010 L15524 1010" stroke-width="13" />
                  <path d="M13167 1190 L15524 1190" stroke-width="13" />
                  <path d="M13167 1370 L15524 1370" stroke-width="13" />
                  <path d="M13167 1550 L15524 1550" stroke-width="13" />
                  <path d="M13167 1730 L15524 1730" stroke-width="13" />
                  <g id="l1t7nnv" class="layer">
                     <g id="n4hrh5s" class="note">
                        <g class="notehead">
                           <use xlink:href="#E0A4-vclq3dk" transform="translate(13344, 1640) scale(0.72, 0.72)" />
                        </g>
                        <g id="a151x4b9" class="stem">
                           <path d="M13561 1612 L13561 1010" stroke-width="18" />
                        </g>
                     </g>
                     <g id="n2cv7is" class="note">
                        <g class="notehead">
                           <use xlink:href="#E0A4-vclq3dk" transform="translate(14066, 1640) scale(0.72, 0.72)" />
                        </g>
                        <g id="b4hmm8i" class="stem">
                           <path d="M14283 1612 L14283 1010" stroke-width="18" />
                        </g>
                     </g>
                     <g id="nx9issx" class="note">
                        <g class="notehead">
                           <use xlink:href="#E0A4-vclq3dk" transform="translate(14789, 1550) scale(0.72, 0.72)" />
                        </g>
                        <g id="caqlm8v" class="stem">
                           <path d="M15006 1522 L15006 920" stroke-width="18" />
                        </g>
                     </g>
                  </g>
               </g>
               <g id="tabvpzn" class="tie">
                  <path d="M13615,1685 C13727,1791 13906,1791 14021,1685 C13929,1840 13704,1840 13615,1685" stroke-linecap="round" stroke-linejoin="round" stroke-width="9" />
               </g>
               <g id="guoss96" class="barLine">
                  <path d="M15511 1010 L15511 1730" stroke-width="27" />
               </g>
            </g>
            <g id="machalp" class="measure">
               <g id="s1iez4v" class="staff">
                  <path d="M15524 1010 L17993 1010" stroke-width="13" />
                  <path d="M15524 1190 L17993 1190" stroke-width="13" />
                  <path d="M15524 1370 L17993 1370" stroke-width="13" />
                  <path d="M15524 1550 L17993 1550" stroke-width="13" />
                  <path d="M15524 1730 L17993 1730" stroke-width="13" />
                  <g id="l3vab7t" class="layer">
                     <g id="nmyiwwu" class="note">
                        <g class="notehead">
                           <use xlink:href="#E0A4-vclq3dk" transform="translate(15701, 1640) scale(0.72, 0.72)" />
                        </g>
                        <g id="drorzho" class="stem">
                           <path d="M15918 1612 L15918 1010" stroke-width="18" />
                        </g>
                     </g>
                     <g id="rfwzbnb" class="rest">
                        <use xlink:href="#E4E5-vclq3dk" transform="translate(16423, 1370) scale(0.72, 0.72)" />
                     </g>
                     <g id="rfvro2" class="rest">
                        <use xlink:href="#E4E5-vclq3dk" transform="translate(17146, 1370) scale(0.72, 0.72)" />
                     </g>
                     <g id="cjk8i47" class="clef">
                        <use xlink:href="#E07C-vclq3dk" transform="translate(17437, 1190) scale(0.72, 0.72)" />
                     </g>
                  </g>
               </g>
               <g id="v6qumjn" class="barLine">
                  <path d="M17980 1010 L17980 1730" stroke-width="27" />
               </g>
            </g>
            <g id="mo3edh1" class="measure">
               <g id="sounccq" class="staff">
                  <path d="M17993 1010 L20005 1010" stroke-width="13" />
                  <path d="M17993 1190 L20005 1190" stroke-width="13" />
                  <path d="M17993 1370 L20005 1370" stroke-width="13" />
                  <path d="M17993 1550 L20005 1550" stroke-width="13" />
                  <path d="M17993 1730 L20005 1730" stroke-width="13" />
                  <g class="ledgerLines above">
                     <path d="M18122 830 L18444 830" stroke-width="22" />
                     <path d="M19221 830 L19543 830" stroke-width="22" />
                  </g>
                  <g id="l310aoe" class="layer">
                     <g id="n5hrm7c" class="note">
                        <g class="notehead">
                           <use xlink:href="#E0A3-vclq3dk" transform="translate(18170, 830) scale(0.72, 0.72)" />
                        </g>
                        <g id="e1omwdst" class="stem">
                           <path d="M18179 855 L18179 1460" stroke-width="18" />
                        </g>
                     </g>
                     <g id="nd1pc6y" class="note">
                        <g class="notehead">
                           <use xlink:href="#E0A4-vclq3dk" transform="translate(19269, 830) scale(0.72, 0.72)" />
                        </g>
                        <g id="fv21cjw" class="stem">
                           <path d="M19278 858 L19278 1460" stroke-width="18" />
                        </g>
                     </g>
                  </g>
               </g>
               <g id="tvp5dwl" class="tie">
                  <path d="M18441,785 C18629,633 19032,633 19224,785 C19018,679 18643,679 18441,785" stroke-linecap="round" stroke-linejoin="round" stroke-width="9" />
               </g>
               <g id="kqk4yw3" class="barLine">
                  <path d="M19992 1010 L19992 1730" stroke-width="27" />
               </g>
            </g>
         </g>
         <g id="p9634qc" class="system">
            <g id="mvi9py4" class="measure">
               <g id="l1hig2jl" class="mNum autogenerated">
                  <text y="2927" text-anchor="middle" font-size="0px">
                     <tspan id="m1b6gw98" class="text">
                        <tspan font-size="324px">189</tspan>
                     </tspan>
                  </text>
               </g>
               <g id="si22soa" class="staff">
                  <path d="M0 3170 L4104 3170" stroke-width="13" />
                  <path d="M0 3350 L4104 3350" stroke-width="13" />
                  <path d="M0 3530 L4104 3530" stroke-width="13" />
                  <path d="M0 3710 L4104 3710" stroke-width="13" />
                  <path d="M0 3890 L4104 3890" stroke-width="13" />
                  <g id="svik65a" class="clef">
                     <use xlink:href="#E062-vclq3dk" transform="translate(88, 3350) scale(0.72, 0.72)" />
                  </g>
                  <g id="tqhokgd" class="keySig">
                     <g id="u1vzo4q8" class="keyAccid">
                        <use xlink:href="#E260-vclq3dk" transform="translate(769, 3710) scale(0.72, 0.72)" />
                     </g>
                     <g id="v1tabt5m" class="keyAccid">
                        <use xlink:href="#E260-vclq3dk" transform="translate(949, 3440) scale(0.72, 0.72)" />
                     </g>
                     <g id="wuhrz5" class="keyAccid">
                        <use xlink:href="#E260-vclq3dk" transform="translate(1129, 3800) scale(0.72, 0.72)" />
                     </g>
                     <g id="xck4da3" class="keyAccid">
                        <use xlink:href="#E260-vclq3dk" transform="translate(1309, 3530) scale(0.72, 0.72)" />
                     </g>
                  </g>
                  <g id="lm80zhc" class="layer">
                     <g id="n7a9b30" class="note">
                        <g class="notehead">
                           <use xlink:href="#E0A4-vclq3dk" transform="translate(1721, 3350) scale(0.72, 0.72)" />
                        </g>
                        <g id="gik6bzl" class="stem">
                           <path d="M1730 3378 L1730 3980" stroke-width="18" />
                        </g>
                     </g>
                     <g id="r62l624" class="rest">
                        <use xlink:href="#E4E5-vclq3dk" transform="translate(2457, 3530) scale(0.72, 0.72)" />
                     </g>
                     <g id="rehw8c5" class="rest">
                        <use xlink:href="#E4E5-vclq3dk" transform="translate(3193, 3530) scale(0.72, 0.72)" />
                     </g>
                  </g>
               </g>
               <g id="y16vqadh" class="barLine">
                  <path d="M3929 3170 L3929 3890" stroke-width="27" />
                  <path d="M4059 3170 L4059 3890" stroke-width="90" />
               </g>
            </g>
            <g id="lvyy6f8" class="systemMilestoneEnd spsqclq" />
         </g>
         <g id="mvvy5u1" class="pageMilestoneEnd szfol95" />
         <g id="n1txgl8d" class="pageMilestoneEnd mdsm8uo" />
         <g id="s1sooiyh" class="pgHead autogenerated">
            <text font-size="0px">
               <tspan id="tks8cfs" class="rend" x="10000" y="220" text-anchor="middle">
                  <tspan id="u1euubho" class="text">
                     <tspan font-size="324px">– </tspan>
                  </tspan>
                  <tspan id="v9xlfur" class="num">
                     <title class="labelAttr">page</title>
                     <tspan id="w1u1rr3n" class="text">
                        <tspan font-size="324px">3</tspan>
                     </tspan>
                  </tspan>
                  <tspan id="yv365nn" class="text">
                     <tspan font-size="324px"> –</tspan>
                  </tspan>
               </tspan>
            </text>
         </g>
      </g>
   </svg>
</svg>
